<svg xmlns="http://www.w3.org/2000/svg" viewBox="0 0 190.57 117.15"><defs><style>.cls-1{fill:#ededed;}.cls-2{fill:#4d4d4d;}.cls-3{fill:#c6c6c6;}.cls-4{fill:#e94e1b;}.cls-5{fill:#cf4518;}.cls-6{fill:#575756;}.cls-7{fill:#1d1d1b;opacity:0.2;}.cls-8{fill:#f2c799;}.cls-9{fill:#ffd2a1;}.cls-10{fill:#3c3c3b;}.cls-11{fill:#dadada;}.cls-12{fill:#ffcb94;}.cls-13{fill:#eeb279;}.cls-14{fill:#f1bf8b;}.cls-15{fill:#ebebeb;}</style></defs><title>card-3</title><g id="Layer_2" data-name="Layer 2"><g id="Layer_1-2" data-name="Layer 1"><rect class="cls-1" x="4.05" y="3.67" width="58.82" height="100.88"/><path class="cls-2" d="M59.92,7.17a1.76,1.76,0,0,1,1.76,1.76v90a1.76,1.76,0,0,1-1.76,1.76h-51A1.76,1.76,0,0,1,7.17,98.9v-90A1.76,1.76,0,0,1,8.92,7.17Zm0-7.17h-51A8.92,8.92,0,0,0,0,8.92v94.8a8.92,8.92,0,0,0,8.92,8.92h51a8.92,8.92,0,0,0,8.92-8.92V8.92A8.92,8.92,0,0,0,59.92,0Z"/><circle class="cls-3" cx="34.42" cy="3.91" r="2.39"/><circle class="cls-3" cx="34.42" cy="106.62" r="3.43"/><path class="cls-3" d="M23.63,109.93l-8.81-2.23a1.23,1.23,0,0,1,0-2.39l8.81-2.22a1.23,1.23,0,0,1,1.54,1.2v4.45A1.23,1.23,0,0,1,23.63,109.93Z"/><path class="cls-3" d="M45.21,103.09,54,105.32a1.23,1.23,0,0,1,0,2.39l-8.81,2.23a1.23,1.23,0,0,1-1.54-1.2v-4.45A1.23,1.23,0,0,1,45.21,103.09Z"/><path class="cls-1" d="M18,70.69a68.15,68.15,0,0,1,.13,9c-.05,1.52-.11,3-.15,4.5H50.82A115,115,0,0,1,50.75,71a22.27,22.27,0,0,1,.4-2.6c.73-3.32,1-7.55,2-15.19-4.1-1.71-9.51-4.05-10.4-4.9-1.47.57-5.15.79-7.33,1l-1,.09h0c-1.78-.2-6.61-.39-8.35-1.06-.89.85-6.27,3.18-10.37,4.89h0c1,7.64,1.26,11.87,2,15.19A20.51,20.51,0,0,1,18,70.69Z"/><polygon class="cls-4" points="33.22 57.91 32.39 53.98 34.39 53.93 36.39 53.98 35.56 57.91 33.22 57.91"/><polygon class="cls-5" points="33.22 57.91 31.27 78.36 34.39 81.12 37.51 78.36 35.56 57.91 33.22 57.91"/><path class="cls-1" d="M19,84.18l-.81-4.5,2-7.45,4.4-16.74-8.86-2.33h0a145.18,145.18,0,0,0-6.36,24.2l.45,6.84Z"/><path class="cls-6" d="M35.55,84.18c0-3.57,0-7.55-.13-9.81,0,0-7.65-25.43-9.38-26.1-.89.85-6.27,3.18-10.37,4.89h0a145.18,145.18,0,0,0-6.36,24.2l.45,6.84Z"/><path class="cls-6" d="M59.06,84.18l.45-6.84a145.18,145.18,0,0,0-6.36-24.2h0c-4.1-1.71-9.48-4-10.37-4.89-1.73.67-8.14,26.1-8.14,26.1-.16,2.27-.11,6.25,0,9.81Z"/><path class="cls-7" d="M23.55,84.18c-.86-.67-1.68-1.35-2.42-2l9.12,1.27a12.15,12.15,0,0,1-8-5.88,15.69,15.69,0,0,1-1.11-2.14c-1.71-4-1.94-8.53-2.15-12.91l-.21-4.62c-.24,0-.94,15-1.11,19.91,0,.63,0,3.46.12,6.4Z"/><path class="cls-7" d="M48.09,80.17c-.34,1.13-.75,2.56-1.27,4H51.6c-.23-4.51-.53-9.49-.56-10.06A102.75,102.75,0,0,0,48.8,59.84c.15,2,1.05,9.14.21,15.76A28.55,28.55,0,0,1,48.09,80.17Z"/><path class="cls-8" d="M28.69,43.73l0,1.73s0,0,0,0l0,1.85h0l0,.83.11,5.94L32.39,54l1.9,0h.16l1.74,0,3.62-.07L40,48.15l0-.73.05-1.84h0l0-1.52Z"/><path class="cls-9" d="M34.31,22.46c5.11,0,9.18,3.34,8.8,9.4a15.84,15.84,0,0,1-.26,2.08c1.14-.64,2.13.48,1.73,2.2C44.3,37.35,43.71,39,43,39.23S42,39,41.94,39c-.36,1.75-.51,3.31-1.13,4.24A29.53,29.53,0,0,1,39,45.79c-1.2,1.41-2.2,1.76-4.49,1.77h0c-2.29,0-3.3-.32-4.51-1.72a29.63,29.63,0,0,1-1.87-2.52c-.64-.92-.8-2.48-1.18-4.23,0,0-.29.52-1.1.24s-1.29-1.86-1.59-3.07c-.42-1.72.56-2.85,1.71-2.22A15.8,15.8,0,0,1,25.62,32C25.17,25.92,29.2,22.51,34.31,22.46Z"/><path class="cls-10" d="M41.67,24.22c2,2.29,2.58,4.83,1.81,9.54-.77.43-1.17,1-1.47,3.34-.56.16-.8.19-1.31.37C43.76,25,38.93,24.78,37.6,24.52a33.23,33.23,0,0,0-6.57,0c-1.32.27-6.15.55-2.94,13-.51-.17-.75-.2-1.31-.35-.32-2.33-.74-2.9-1.51-3.32-.83-4.69,0-7.06,1.69-9.56C29.31,20.84,38.16,20.13,41.67,24.22Z"/><path class="cls-10" d="M31.26,22.48a3.78,3.78,0,0,0-1.79.56c-.79.43-2.8,3.35-2.38,4,1.7,2.78,7,3.58,10.7,3.68a3.45,3.45,0,0,1-1.25-1.54,9.89,9.89,0,0,0,6.45.52,12.49,12.49,0,0,0-2.79-5,8.33,8.33,0,0,0-4.23-2A24.84,24.84,0,0,0,31.26,22.48Z"/><path class="cls-11" d="M28.89,57.37a17.66,17.66,0,0,1-3.43-8.81l3.28-1.82a11.07,11.07,0,0,0,5.65,7.2Z"/><path class="cls-11" d="M39.89,57.37a17.66,17.66,0,0,0,3.43-8.81L40,46.74a11.07,11.07,0,0,1-5.65,7.2Z"/><path class="cls-10" d="M35.41,74.36l-.43-.6-.37-.49c-4.81-6.6-11.34-15.34-11.34-15.34S27,56,26.69,55.74l-4,.14.75-6.12,3.68-2.19c2.68,8.85,5.34,16.35,7.7,24.59.13.43.25.87.37,1.31Z"/><path class="cls-10" d="M45.5,57.93s-5.93,8.27-10.34,15.54l-.18.29-.37-.49c.05-.38.12-.75.18-1.11,1.51-9,4.23-15.79,6.9-24.59l3.68,2.19.75,6.12-4-.14C41.83,56,45.5,57.93,45.5,57.93Z"/><circle class="cls-10" cx="34.96" cy="78.8" r="0.82"/><rect class="cls-10" x="41.35" y="71.94" width="6.65" height="1.61"/><path class="cls-12" d="M105.53,77.37v-.12a5.79,5.79,0,0,0-5.7-5.87L53,70.71a5.79,5.79,0,0,0-5.87,5.7v.12a5.79,5.79,0,0,0,5.7,5.87l46.8.67A5.79,5.79,0,0,0,105.53,77.37Z"/><path class="cls-12" d="M105.36,89.06v-.12a5.79,5.79,0,0,0-5.7-5.87L78.1,82.76a5.79,5.79,0,0,0-5.87,5.7v.12a5.79,5.79,0,0,0,5.7,5.87l21.55.31A5.79,5.79,0,0,0,105.36,89.06Z"/><path class="cls-13" d="M133.31,81.15l0-.12c1.17-3.32-.89-6.75-4.42-7.78a190.49,190.49,0,0,1-37.66-16,6.49,6.49,0,0,0-8.62,2.29l-.07.11a6.05,6.05,0,0,0,2.33,8.56,202.62,202.62,0,0,0,39.39,17C128,86.34,132.14,84.46,133.31,81.15Z"/><rect class="cls-12" x="84.53" y="85.65" width="11.69" height="29.64" rx="5.79" ry="5.79" transform="translate(-11.4 189.39) rotate(-89.17)"/><path class="cls-12" d="M105,111.77v-.1a5.14,5.14,0,0,0-5.06-5.21l-16-.23a5.14,5.14,0,0,0-5.21,5.06v.1a5.14,5.14,0,0,0,5.06,5.21l16,.23A5.14,5.14,0,0,0,105,111.77Z"/><path class="cls-14" d="M139,100.37l.16-11.4a17,17,0,0,0-16.78-17.27l-13.92-.2L107.79,117l13.92.2A17,17,0,0,0,139,100.37Z"/><rect class="cls-14" x="123.42" y="78.91" width="33.9" height="30.95" transform="translate(43.99 233.39) rotate(-89.18)"/><path class="cls-14" d="M109.9,117l-10.35-.15a5.14,5.14,0,0,1-5.06-5.21v-.1a5.14,5.14,0,0,1,5.21-5.06l-1.88,0a5.79,5.79,0,0,1-5.7-5.87v-.12A5.79,5.79,0,0,1,98,94.74l-1.74,0a5.79,5.79,0,0,1-5.7-5.87v-.12A5.79,5.79,0,0,1,96.41,83a5.79,5.79,0,0,1-5.7-5.87V77a5.79,5.79,0,0,1,5.87-5.7l14,.2Z"/><polygon class="cls-15" points="159.3 113.78 159.67 75.46 141.09 75.8 141.16 113.41 159.3 113.78"/><polygon class="cls-6" points="190.57 116.29 155.14 115.79 154.56 73.5 190.57 73.78 190.57 116.29"/><circle class="cls-15" cx="176.25" cy="110.35" r="2.16" transform="translate(13.84 240.2) rotate(-70.69)"/><circle class="cls-15" cx="169.25" cy="110.25" r="2.16" transform="translate(9.25 233.54) rotate(-70.7)"/><circle class="cls-15" cx="162.32" cy="110.15" r="2.16" transform="translate(4.71 226.93) rotate(-70.7)"/></g></g></svg>