<?xml version="1.0" encoding="utf-8"?>
<!-- Generator: Adobe Illustrator 21.1.0, SVG Export Plug-In . SVG Version: 6.00 Build 0)  -->
<svg version="1.1" id="Layer_1" xmlns="http://www.w3.org/2000/svg" xmlns:xlink="http://www.w3.org/1999/xlink" x="0px" y="0px"
	 viewBox="0 0 359 467.1" style="enable-background:new 0 0 359 467.1;" xml:space="preserve">
<style type="text/css">
	.st0{fill:#D5DEF5;}
	.st1{fill:url(#SVGID_1_);}
	.st2{fill:url(#SVGID_2_);}
	.st3{fill:url(#SVGID_3_);}
	.st4{fill:#FEC4AD;}
	.st5{fill:url(#SVGID_4_);}
	.st6{fill:#AEBFDE;}
	.st7{fill:url(#SVGID_5_);}
	.st8{fill:#7B2B1A;}
	.st9{fill:#FFFFFF;}
	.st10{fill:#542F38;}
	.st11{opacity:0.35;fill:#FFFFFF;enable-background:new    ;}
	.st12{fill:#782F38;}
	.st13{fill:#8E373F;}
	.st14{fill:#2F2521;}
	.st15{fill:#F49A8A;}
	.st16{fill:#C85A58;}
	.st17{fill:url(#SVGID_6_);}
	.st18{fill:url(#SVGID_7_);}
	.st19{fill:url(#SVGID_8_);}
	.st20{fill:#97A3CC;}
	.st21{fill:url(#_Path_2_1_);}
	.st22{fill:url(#SVGID_9_);}
	.st23{fill:url(#SVGID_10_);}
	.st24{fill:url(#SVGID_11_);}
	.st25{fill:url(#SVGID_12_);}
	.st26{fill:none;stroke:#E9F2F4;stroke-width:0.3;stroke-miterlimit:10;}
	.st27{fill:#67B8EF;}
	.st28{fill:#E9F2F4;}
</style>
<title>hero-img</title>
<g>
	<g id="Layer_2">
		<g id="Layer_1-2">
			<path class="st0" d="M154.3,223.9v-31.6l-15.5-4.6c-1-3-2.2-5.9-3.7-8.8l7.7-14.2l-22.3-22.3l-14.2,7.7c-2.8-1.4-5.8-2.7-8.8-3.7
				L92.9,131H61.3l-4.6,15.5c-3,1-5.9,2.2-8.8,3.7l-14.2-7.7l-22.4,22.3l7.7,14.2c-1.4,2.8-2.7,5.8-3.7,8.8L0,192.3v31.6l15.5,4.6
				c1,3,2.2,5.9,3.7,8.8l-7.7,14.2l22.3,22.3l14.2-7.7c2.8,1.4,5.8,2.7,8.8,3.7l4.6,15.5h31.6l4.6-15.5c3-1,5.9-2.2,8.8-3.7
				l14.2,7.7l22.3-22.3l-7.7-14.2c1.4-2.8,2.7-5.8,3.7-8.8L154.3,223.9z M111.9,208.1c0,19.2-15.6,34.7-34.7,34.7
				c-19.2,0-34.7-15.6-34.7-34.7c0-19.2,15.6-34.7,34.7-34.7S111.9,188.9,111.9,208.1C111.9,208.1,111.9,208.1,111.9,208.1
				L111.9,208.1z"/>
			<path class="st0" d="M263.1,137.3v-19.5l-9.6-2.8c-0.6-1.9-1.4-3.7-2.3-5.4l4.8-8.8L242.3,87l-8.8,4.8c-1.7-0.9-3.6-1.6-5.4-2.3
				l-2.8-9.6h-19.5l-2.8,9.5c-1.9,0.6-3.7,1.4-5.4,2.3l-8.8-4.7L175,100.7l4.8,8.8c-0.9,1.7-1.6,3.6-2.3,5.4l-9.6,2.8v19.5l9.6,2.8
				c0.6,1.9,1.4,3.7,2.3,5.4l-4.8,8.8l13.8,13.8l8.8-4.8c1.7,0.9,3.6,1.6,5.4,2.3l2.8,9.6h19.5l2.8-9.6c1.9-0.6,3.7-1.4,5.4-2.3
				l8.8,4.8l13.8-13.8l-4.8-8.8c0.9-1.7,1.6-3.6,2.3-5.4L263.1,137.3z M237,127.5c0,11.8-9.6,21.4-21.4,21.4s-21.4-9.6-21.4-21.4
				s9.6-21.4,21.4-21.4S237,115.7,237,127.5L237,127.5z"/>
			<linearGradient id="SVGID_1_" gradientUnits="userSpaceOnUse" x1="137.3044" y1="301.7924" x2="189.0879" y2="466.4835">
				<stop  offset="0" style="stop-color:#272438"/>
				<stop  offset="0.427" style="stop-color:#304260"/>
				<stop  offset="0.7887" style="stop-color:#304260;stop-opacity:2.321142e-02"/>
				<stop  offset="0.7973" style="stop-color:#304260;stop-opacity:0"/>
			</linearGradient>
			<path class="st1" d="M135.3,467.1H187c2-17.4,3.6-31.8,4.2-40.4c3-40.5,1.2-94.3,5.1-99.9s-10.6-37.3-10.6-37.3l-34.2,7.8
				l-16.1,55.9c0,0-1.6,89.3-0.6,105.7C135,460.5,135.1,463.3,135.3,467.1z"/>
			<linearGradient id="SVGID_2_" gradientUnits="userSpaceOnUse" x1="92.8677" y1="294.0318" x2="145.7576" y2="462.2419">
				<stop  offset="0" style="stop-color:#272438"/>
				<stop  offset="0.427" style="stop-color:#304260"/>
				<stop  offset="0.7887" style="stop-color:#304260;stop-opacity:2.321142e-02"/>
				<stop  offset="0.7973" style="stop-color:#304260;stop-opacity:0"/>
			</linearGradient>
			<path class="st2" d="M130.2,467.1c2.6-14.6,5-26.4,6.9-33.2c9.7-35.2,28.4-144.1,28.4-144.1l-83.1,7.4c-4.7,29.9-7.8,60-9.3,90.2
				c1.3,0.8,1.7,2.5,0.9,3.8c-0.1,0.2-0.3,0.4-0.4,0.5l-0.7,0.6c-0.2,5.5-0.3,11-0.3,16.5c-0.1,13.6,0.3,34.5,0.8,58.2L130.2,467.1z
				"/>
			
				<linearGradient id="SVGID_3_" gradientUnits="userSpaceOnUse" x1="176.648" y1="279.21" x2="220.3866" y2="279.21" gradientTransform="matrix(1 0 0 -1 0 467.28)">
				<stop  offset="0" style="stop-color:#8A74DC"/>
				<stop  offset="0.42" style="stop-color:#634DB4"/>
				<stop  offset="0.79" style="stop-color:#473198"/>
				<stop  offset="1" style="stop-color:#3D278D"/>
			</linearGradient>
			<path class="st3" d="M220.3,193.9c0,0,0.9,10.1-4.6,15.7s-11.4,16.8-11.4,16.8c-4-3.7-7.7-7.7-11.1-11.9
				c-3.9-5.2-16.4-26.6-16.6-37.5s19.2-27.2,19.2-27.2s10.8,17.6,11.7,27.6S220.3,193.9,220.3,193.9z"/>
			<path class="st4" d="M229,187c-1.8,5-1.8,10.3-1.8,17.2s0.7,18.9-3.7,21.8s-10.5,8.6-15.8,4s-8-11.9-8.7-18.9s7.8-17,11.7-23
				L229,187z"/>
			
				<linearGradient id="SVGID_4_" gradientUnits="userSpaceOnUse" x1="233.3301" y1="276.33" x2="208.4701" y2="242.9499" gradientTransform="matrix(1 0 0 -1 0 467.28)">
				<stop  offset="0" style="stop-color:#8A74DC"/>
				<stop  offset="0.42" style="stop-color:#634DB4"/>
				<stop  offset="0.79" style="stop-color:#473198"/>
				<stop  offset="1" style="stop-color:#3D278D"/>
			</linearGradient>
			<path class="st5" d="M193.3,214.4c0,0,4.1,7.4,14.5,15.5S226,234,229,230s0-33.1,0-33.1c-7.3,0.6-14.3-2.7-18.3-8.8L193.3,214.4z
				"/>
			<polygon class="st6" points="217.2,198.3 229,196.9 229,187 217.2,188.1 			"/>
			<path class="st4" d="M110.7,102.8c-1.9,5.3-19.6,11.6-19.6,11.6s53.5,61.3,74.2,60.9s-9-57.8-9-57.8s-6-3-7.9-8.8
				s2.1-30.9,2.1-30.9l-21.8-13.3C128.6,64.4,112.6,97.5,110.7,102.8z"/>
			
				<linearGradient id="SVGID_5_" gradientUnits="userSpaceOnUse" x1="117.2286" y1="354.6243" x2="141.4086" y2="348.5844" gradientTransform="matrix(1 0 0 -1 0 467.28)">
				<stop  offset="0" style="stop-color:#FFFFFF;stop-opacity:0"/>
				<stop  offset="1" style="stop-color:#E0BAD1"/>
			</linearGradient>
			<path class="st7" d="M110.7,102.8c-1.9,5.3-19.6,11.6-19.6,11.6s53.5,61.3,74.2,60.9s-9-57.8-9-57.8s-6-3-7.9-8.8
				s2.1-30.9,2.1-30.9l-21.8-13.3C128.6,64.4,112.6,97.5,110.7,102.8z"/>
			<path class="st4" d="M177.3,30.6c3.3,3.1,8.7,9.4,8.2,13s-0.4,14.7-3.3,20.2c-4,7.6-3.6,19.2-6.2,26s-15.7,17.2-17.8,18
				s-9.1-0.5-12.5-3.2s-21.2-25.4-17.1-40.3c0,0-7.8,1.5-10.5-13.4c-0.7-3.9,15-14.6,17.4-18.4c6-9.2,27.2-1.4,33.3-0.8
				C174.9,32.3,177.3,30.6,177.3,30.6z"/>
			<path class="st8" d="M184.8,49.6c0,0,2.7-9.2-5.2-10.2l-24.5-5c-3.3-0.9-6.5-2-9.7-3.4c0,0-2,9.3-4.5,11.4s-7.4,4.1-8.3,7.1
				c-0.6,2-1,4-1.3,6.1c0,0-3.2-6.3-6.9-6.1s-4.9,5.8-2,9.1c1.9,2.1,3.9,4.1,6.1,5.9c-0.6,2.5-1.4,5-2.5,7.4
				c-1.5,3.1-4.3,8.3-4.3,8.3s-3.4-20.9-7.9-30.2s-4.6-35,22.7-34.6c0,0,17.8-13.6,35.4-9.9c15.2,3.2,31.4,15.8,18.2,36.3
				C185.6,48.9,184.8,49.6,184.8,49.6z"/>
			<path class="st9" d="M156.4,60.4c0.5,1.6,1.5,3,2.8,4.1c2.3,2,4.1,2,6.8-0.6C163.7,61.1,160,59.7,156.4,60.4z"/>
			<path class="st10" d="M160.6,60.9c-0.8-0.3-1.3,2.1-1.1,2.6c0.2,1.2,1.2,2.1,2.4,2.2c2.8,0.4,3.3-3.1,3.3-3.1L160.6,60.9z"/>
			<path class="st11" d="M164.1,63.1c-1.2-0.1-2,1.1-1.2,1.8s1.7,0.9,2.1-0.1S165.3,63.2,164.1,63.1z"/>
			<path class="st12" d="M154,60.5c0,0,7.8-0.3,13.3,4.2c0,0,0.6-1.2-0.9-2.5c-1.4-1-2.9-1.7-4.6-2.1C155.2,58.7,154,60.5,154,60.5z
				"/>
			<path class="st13" d="M169.6,55.1c0.9-1,1.4-2.4,1.3-3.8c0,0-8-4.2-18.7-0.7c0,0-1.2,0.7,0.7,0.8S165.5,50.8,169.6,55.1z"/>
			<path class="st9" d="M180.1,66.9c0,0-0.1,3.6-2,4c-2.6,0.6-2.8-2.2-2.7-4.1C176.9,66,178.7,66,180.1,66.9z"/>
			<path class="st10" d="M180.1,67.4c0.6,0.2-0.1,2-0.4,2.3c-0.6,0.7-1.7,0.8-2.5,0.2c-1.9-1.1-0.7-3.6-0.7-3.6L180.1,67.4z"/>
			<path class="st11" d="M180,68.4c0.9,0.6,0.8,1.9,0,2s-1.7-0.3-1.4-1.2S179.1,67.8,180,68.4z"/>
			<path class="st12" d="M180.9,67.8c0.9,0.1,0.7-0.7-0.7-1.4c-1.3-0.7-2.8-1-4.3-1c-1.7,0.1-1.9,1.3-1.9,1.3
				c2.2-0.1,4.3,0.4,6.3,1.2C180.5,67.8,180.7,67.8,180.9,67.8z"/>
			<path class="st13" d="M184.7,57.9c-3.9-4.2-6.6-4.5-6.6-4.5c-0.7,1-1.1,2.3-1.1,3.5c2.7,0.5,5.4,1.5,7.8,2.9
				C184.9,59.2,185,58.5,184.7,57.9z"/>
			<path class="st14" d="M147.1,56.3c-0.1,0.7,1.3,1.5,1.5,1.8c0.4,0.6,0.2,0.5,0.8,6c0.5,4,3.1,6.6,9.9,7.4
				c5.1,0.7,6.4-3.8,7.6-5.6s1.7-1.9,2.5-1.7s1.1,0.6,1.2,2.8s-1.5,6.9,3.5,8.5c3.4,1.1,4.7,0.6,6.4-1.9c1.4-2,2.5-4.2,3.4-6.4
				c0.7-1.9,1.2-3,0.4-3.5c-1.3-0.7-2.6-1.2-4-1.5c-3-0.9-5-1.8-7-1.4s-2.2,1.2-3,1s-0.7-1.1-2.2-2.5s-9.5-3.8-12.5-4.7
				s-7.4-1.7-7.8-0.5C147.3,54.8,147.2,55.5,147.1,56.3z M172.9,64c0.8-1.4,0.8-1.2,4.6-0.3s4.1,1.2,4.5,2.2s-0.1,3.5-1.9,6.4
				c-0.9,1.6-2.2,3.5-5.2,2.6c-3.3-1-3.2-2.9-3.1-5.6C171.9,67.5,172.3,65.7,172.9,64z M152,56.3c0.8-0.6,5.8,1.1,9.4,2.4
				s4.9,1.7,4.9,3.4c-0.3,1.8-0.9,3.5-1.8,5.1c-1.2,2.4-2.6,4.3-8.5,2.6c-4.1-1.2-5.5-3.3-5.6-7.2C150.3,59.1,151.1,56.9,152,56.3z
				 M130.6,54.1c0,0,2-1.2,2.7-1.1c0.3,0.1,0.7,0.3,0.9,0.6l12.9,3.1l4.4-3.2c0,0-10.9-2.8-16.3-4.1c-2.5-0.6-6.2,2.7-6.2,2.7
				C129.7,52.7,130.2,53.4,130.6,54.1L130.6,54.1z"/>
			<path class="st15" d="M170.4,65.6c0,0,1.1,9.9,3.4,11.9c2.9,2.6,1.7,4.7-0.5,5.3s-7.3-0.3-7.3-0.3c0.1-2.9,0.7-5.7,1.7-8.4
				C168.8,71.4,169.7,68.5,170.4,65.6z"/>
			<path class="st10" d="M168.4,86.8c-0.7,2.1-2,3.9-3.8,5.1c-0.9,0.6-1.9,0.9-3,1c-2.8,0.3-5.5-1.4-6.4-4.1c-0.7-1.8-1-3.8-1-5.8
				c2.6,1.4,5.4,2.4,8.3,3.1C167,87,168.4,86.8,168.4,86.8z"/>
			<path class="st16" d="M164.6,91.9c-0.9,0.6-1.9,0.9-3,1c-2.8,0.3-5.5-1.4-6.4-4.1C156.1,88.3,161.6,92.9,164.6,91.9z"/>
			
				<linearGradient id="SVGID_6_" gradientUnits="userSpaceOnUse" x1="178.3997" y1="336.9142" x2="193.7197" y2="264.1342" gradientTransform="matrix(1 0 0 -1 0 467.28)">
				<stop  offset="0" style="stop-color:#8A74DC"/>
				<stop  offset="0.42" style="stop-color:#634DB4"/>
				<stop  offset="0.79" style="stop-color:#473198"/>
				<stop  offset="1" style="stop-color:#3D278D"/>
			</linearGradient>
			<path class="st17" d="M176.1,123.1c11.1,5.5,14.5,12.4,20,26.2s11,17,11,17s-11.7,2.5-24.7,28.3c-8.8-6.3-15-15.7-17.1-26.4
				C161.8,150.6,176.1,123.1,176.1,123.1z"/>
			
				<linearGradient id="SVGID_7_" gradientUnits="userSpaceOnUse" x1="125.8696" y1="359.67" x2="125.8696" y2="154.2367" gradientTransform="matrix(1 0 0 -1 0 467.28)">
				<stop  offset="0" style="stop-color:#8A74DC"/>
				<stop  offset="0.42" style="stop-color:#634DB4"/>
				<stop  offset="0.79" style="stop-color:#473198"/>
				<stop  offset="1" style="stop-color:#3D278D"/>
			</linearGradient>
			<path class="st18" d="M100.7,107.6L64,121.5c0,0-6,34.8-5.5,47.7s20,141.4,20,141.4s48.8,5.4,73.3,0s41.4-10.4,41.4-10.4
				s-8.5-125.4-10.4-138.3s-6.8-38.8-6.8-38.8l-19.2-9.1l-10.6,7.5L100.7,107.6z"/>
			
				<linearGradient id="SVGID_8_" gradientUnits="userSpaceOnUse" x1="153.205" y1="184.59" x2="153.205" y2="329.82" gradientTransform="matrix(1 0 0 -1 0 467.28)">
				<stop  offset="0" style="stop-color:#272438"/>
				<stop  offset="1" style="stop-color:#304260"/>
			</linearGradient>
			<path class="st19" d="M150.4,137.5c0,0,12.9,115.5,15.3,128.5l-8.4,16.7c0,0-14.1-9.6-14.9-15S140.6,138,140.6,138L150.4,137.5z"
				/>
			<path class="st4" d="M209.2,166.3c-2.6-0.9-13.6-3.6-17.8-3.5s-17.3-1-22.4-0.2s-9.9,7.9-14.3,10c-2.3,1.1-6.9,3.2-12.4,5.7
				c1.9,4.9,3.6,9.8,5.4,14.6c2.1-1.6,4.5-2.9,7-3.8c7.4-2.1,7.2-4,11.2-3.8s3.4,0.3,7-0.4s6.1-5.9,8.7-7.5s6.4-3.4,5.9-4.7
				s-0.6-3-9.3-1.1c0,0,8.3-3,11.9-3s11.4,0.9,15.1,0.9S211.7,167.2,209.2,166.3z"/>
			<polygon class="st6" points="140.1,178.8 150.5,173.7 160,194.7 149.9,202 			"/>
			<path id="_Path_" class="st20" d="M172.8,203.6l29.9,6.9c3.4,0.5,6.7-1.1,8.3-4.1l33.2-65.6c1.5-2.9,0.3-5.9-2.8-6.6l-29.6-7.1
				c-5.4-0.2-8.3,1.1-9.8,4.1l-33.2,65.2C167.2,199.4,167.6,201.4,172.8,203.6z"/>
			
				<linearGradient id="_Path_2_1_" gradientUnits="userSpaceOnUse" x1="3195.2185" y1="197.346" x2="3293.4187" y2="198.386" gradientTransform="matrix(-0.72 -0.23 0.4 -0.83 2460.958 1078.1124)">
				<stop  offset="0" style="stop-color:#EEF4FB"/>
				<stop  offset="0.31" style="stop-color:#E3EDF8"/>
				<stop  offset="1" style="stop-color:#CFE1F3"/>
			</linearGradient>
			<path id="_Path_2" class="st21" d="M174.4,204.1l30,7c3.4,0.5,6.7-1.1,8.3-4.1l33.3-66c1.5-3,0.3-5.9-2.8-6.6l-29.7-7.1
				c-3.5-0.6-7,1.1-8.6,4.2l-33.5,65.8C169.9,200.3,171.2,203.4,174.4,204.1z"/>
			<path class="st4" d="M222.8,192.5c3-0.8,7-1.1,8-2.9s2.5-2.3,4.2-3.7s0.7-2.8,2.7-4.4s0-4.6,0.2-6.1c0.3-2.4,0.2-4.9-0.3-7.3
				c-0.7-2.8-3.3-3.4-6.8-4.4s-6-1.1-6,0.6s3.7,4,3.7,4s-6-1.8-7.7-2.4s-4.3,0.8-3.2,2.8s6,4.6,7.5,5.4c1,0.5,1.8,1.3,2.3,2.3
				c-2.6,0-5.2-0.4-7.7-1.2c-3.2-1.2-6-4-8.2-2.8s-1,2.8,1.2,4.4c0,0,4.7,2.9,6.2,3.5c0,0-4.7,0.1-7-0.8s-3.5,0.1-2.8,1.8
				s7.2,3.1,7.3,3.7s-1.2,2.1-2,4S222.8,192.5,222.8,192.5z"/>
			
				<linearGradient id="SVGID_9_" gradientUnits="userSpaceOnUse" x1="140.97" y1="329.32" x2="140.97" y2="345.73" gradientTransform="matrix(1 0 0 -1 0 467.28)">
				<stop  offset="0" style="stop-color:#272438"/>
				<stop  offset="1" style="stop-color:#304260"/>
			</linearGradient>
			<polygon class="st22" points="156.1,124.1 150.4,137.5 140.6,138 125.9,122.2 147.4,121.5 			"/>
			
				<linearGradient id="SVGID_10_" gradientUnits="userSpaceOnUse" x1="123.485" y1="360.15" x2="123.485" y2="334.93" gradientTransform="matrix(1 0 0 -1 0 467.28)">
				<stop  offset="0" style="stop-color:#8A74DC"/>
				<stop  offset="0.42" style="stop-color:#634DB4"/>
				<stop  offset="0.79" style="stop-color:#473198"/>
				<stop  offset="1" style="stop-color:#3D278D"/>
			</linearGradient>
			<polygon class="st23" points="105.2,101.1 146.2,121.5 129.6,134.2 100.7,107.6 			"/>
			
				<linearGradient id="SVGID_11_" gradientUnits="userSpaceOnUse" x1="152.945" y1="360.15" x2="152.945" y2="334.93" gradientTransform="matrix(1 0 0 -1 0 467.28)">
				<stop  offset="0" style="stop-color:#8A74DC"/>
				<stop  offset="0.42" style="stop-color:#634DB4"/>
				<stop  offset="0.79" style="stop-color:#473198"/>
				<stop  offset="1" style="stop-color:#3D278D"/>
			</linearGradient>
			<polygon class="st24" points="146.2,121.5 159.6,131.4 156.9,114 152.5,109.1 			"/>
			
				<linearGradient id="SVGID_12_" gradientUnits="userSpaceOnUse" x1="101.0997" y1="306.8801" x2="81.1697" y2="205.2601" gradientTransform="matrix(1 0 0 -1 0 467.28)">
				<stop  offset="0" style="stop-color:#8A74DC"/>
				<stop  offset="0.42" style="stop-color:#634DB4"/>
				<stop  offset="0.79" style="stop-color:#473198"/>
				<stop  offset="1" style="stop-color:#3D278D"/>
			</linearGradient>
			<path class="st25" d="M64,121.5c0,0-11.8,8.8-14.3,13.1s-1,14-2,24.7s2.9,64.3,8.5,73.2s15.8,11.2,20.8,11.2s72.9-41.7,72.9-41.7
				l-9.7-23.2l-49.7,18.8c0,0,0.5-37.8,1-46.2S74.1,123.9,64,121.5z"/>
			<line class="st26" x1="230.6" y1="10.9" x2="230.6" y2="30"/>
			<ellipse class="st27" cx="230.6" cy="9.6" rx="9.8" ry="9.6"/>
			<ellipse class="st27" cx="230.6" cy="43.1" rx="9.8" ry="9.6"/>
			<polygon class="st9" points="229.8,13.3 225.3,7.6 229.4,9.3 238.8,1.2 			"/>
			<polygon class="st9" points="229.8,47.2 225.3,41.5 229.4,43.2 238.8,35.2 			"/>
			<rect x="246.1" y="13.3" class="st28" width="112.9" height="10.3"/>
			<rect x="246.1" y="46.5" class="st28" width="73.8" height="10.3"/>
			<rect x="246.1" y="3.2" class="st27" width="64.5" height="5.3"/>
			<rect x="246.1" y="36.1" class="st27" width="40" height="5.3"/>
		</g>
	</g>
</g>
</svg>
