<?xml version="1.0" encoding="utf-8"?>
<!-- Generator: Adobe Illustrator 21.1.0, SVG Export Plug-In . SVG Version: 6.00 Build 0)  -->
<svg version="1.1" id="Layer_1" xmlns="http://www.w3.org/2000/svg" xmlns:xlink="http://www.w3.org/1999/xlink" x="0px" y="0px"
	 viewBox="0 0 464.8 385.7" style="enable-background:new 0 0 464.8 385.7;" xml:space="preserve">
<style type="text/css">
	.st0{fill:#F1F2F2;}
	.st1{fill:#E4E6E6;}
	.st2{fill:#D7DADA;}
	.st3{fill:#FDC200;}
	.st4{fill:#EC681C;}
	.st5{fill:#0F2A3F;}
	.st6{fill:url(#SVGID_1_);}
	.st7{fill:url(#SVGID_2_);}
	.st8{fill:url(#SVGID_3_);}
	.st9{clip-path:url(#SVGID_5_);}
	.st10{clip-path:url(#SVGID_7_);}
	.st11{clip-path:url(#SVGID_9_);}
	.st12{clip-path:url(#SVGID_11_);}
	.st13{clip-path:url(#SVGID_13_);}
	.st14{clip-path:url(#SVGID_15_);}
	.st15{clip-path:url(#SVGID_17_);}
	.st16{clip-path:url(#SVGID_19_);}
	.st17{clip-path:url(#SVGID_21_);}
	.st18{clip-path:url(#SVGID_23_);}
	.st19{clip-path:url(#SVGID_25_);}
	.st20{clip-path:url(#SVGID_27_);}
	.st21{clip-path:url(#SVGID_29_);}
	.st22{clip-path:url(#SVGID_31_);}
	.st23{clip-path:url(#SVGID_33_);}
	.st24{clip-path:url(#SVGID_35_);}
	.st25{clip-path:url(#SVGID_37_);}
	.st26{clip-path:url(#SVGID_39_);}
	.st27{clip-path:url(#SVGID_41_);}
	.st28{clip-path:url(#SVGID_43_);}
	.st29{clip-path:url(#SVGID_45_);}
	.st30{clip-path:url(#SVGID_47_);}
	.st31{clip-path:url(#SVGID_49_);}
	.st32{clip-path:url(#SVGID_51_);}
	.st33{clip-path:url(#SVGID_53_);}
	.st34{clip-path:url(#SVGID_55_);}
	.st35{clip-path:url(#SVGID_57_);}
	.st36{clip-path:url(#SVGID_59_);}
	.st37{clip-path:url(#SVGID_61_);}
	.st38{clip-path:url(#SVGID_63_);}
	.st39{clip-path:url(#SVGID_65_);}
	.st40{clip-path:url(#SVGID_67_);}
	.st41{clip-path:url(#SVGID_69_);}
	.st42{clip-path:url(#SVGID_71_);}
	.st43{clip-path:url(#SVGID_73_);}
	.st44{clip-path:url(#SVGID_75_);}
	.st45{clip-path:url(#SVGID_77_);}
	.st46{clip-path:url(#SVGID_79_);}
	.st47{clip-path:url(#SVGID_81_);}
	.st48{clip-path:url(#SVGID_83_);}
	.st49{clip-path:url(#SVGID_85_);}
	.st50{clip-path:url(#SVGID_87_);}
	.st51{clip-path:url(#SVGID_89_);}
	.st52{clip-path:url(#SVGID_91_);}
	.st53{clip-path:url(#SVGID_93_);}
	.st54{clip-path:url(#SVGID_95_);}
	.st55{clip-path:url(#SVGID_97_);}
	.st56{clip-path:url(#SVGID_99_);}
	.st57{clip-path:url(#SVGID_101_);}
	.st58{clip-path:url(#SVGID_103_);}
	.st59{clip-path:url(#SVGID_105_);}
	.st60{clip-path:url(#SVGID_107_);}
	.st61{clip-path:url(#SVGID_109_);}
	.st62{clip-path:url(#SVGID_111_);}
	.st63{clip-path:url(#SVGID_113_);}
	.st64{clip-path:url(#SVGID_115_);}
	.st65{clip-path:url(#SVGID_117_);}
	.st66{clip-path:url(#SVGID_119_);}
	.st67{clip-path:url(#SVGID_121_);}
	.st68{clip-path:url(#SVGID_123_);}
	.st69{opacity:0.43;fill:#CEE5ED;enable-background:new    ;}
	.st70{fill:#AAC6CE;}
	.st71{fill:#85B0BA;}
	.st72{fill:#3E8CCC;}
	.st73{fill:#CEE5ED;}
	.st74{fill:#1E394C;}
	.st75{fill:#62BDF4;}
	.st76{fill:#34648C;}
	.st77{fill:#67B8EF;}
	.st78{opacity:0.25;fill:#34648C;enable-background:new    ;}
	.st79{fill:#F2BF75;}
	.st80{fill:#EA9249;}
	.st81{fill:#80A9B2;}
	.st82{opacity:0.67;fill:#EA9249;enable-background:new    ;}
	.st83{opacity:0.29;fill:#34648C;enable-background:new    ;}
	.st84{opacity:0.48;fill:#1E394C;enable-background:new    ;}
	.st85{fill:#2173AA;}
	.st86{fill:#1A3651;}
</style>
<title>login-hero-img</title>
<path class="st0" d="M362.8,383.3v1.1h2.5v-1.1C364.4,383.3,363.6,383.3,362.8,383.3 M365.2,0h-2.5v37.4l2.5,0.9V0"/>
<path class="st0" d="M344.4,383.1c-0.8,0.2-1.6,0.4-2.5,0.6v0.6h2.5V383.1 M344.4,0h-2.5v32.3c0.8,0.1,1.6,0.2,2.5,0.4V0"/>
<path class="st0" d="M323.5,0h-2.5v24.6c0.8,0.5,1.7,1,2.5,1.6V0"/>
<path class="st0" d="M300.2,383v1.4h2.5v-0.8C301.9,383.4,301,383.2,300.2,383 M302.7,0h-2.5v17.5c0.8,0.1,1.7,0.3,2.5,0.4V0"/>
<path class="st0" d="M281.8,377.1h-2.5v7.3h2.5V377.1 M281.8,0h-2.5v16.9h0.7l1.8-0.1L281.8,0"/>
<path class="st0" d="M261,377.1h-2.5v7.3h2.5V377.1 M261,0h-2.5v20.2c0.8-0.2,1.6-0.4,2.5-0.6L261,0"/>
<path class="st0" d="M240.1,377.1h-2.5v7.3h2.5V377.1 M240.1,0h-2.5v18.5l2.5,0.2V0"/>
<path class="st0" d="M219.3,377.1h-2.5v7.3h2.5L219.3,377.1 M219.3,0h-2.5v18.1l2.5-0.1L219.3,0"/>
<path class="st0" d="M198.4,377.1H196v7.3h2.5L198.4,377.1 M198.4,0H196v17.9c0.8,0.6,1.7,1.2,2.5,1.9L198.4,0"/>
<path class="st0" d="M177.6,377.1h-2.5v7.3h2.5L177.6,377.1 M177.6,0h-2.5v8c0.8,0.2,1.7,0.5,2.5,0.8L177.6,0"/>
<path class="st0" d="M156.7,377.1h-2.5v7.3h2.5V377.1 M156.7,0h-2.5v5.2h0.5h2L156.7,0"/>
<path class="st0" d="M135.9,377.1h-2.5v7.3h2.5L135.9,377.1 M135.9,0h-2.5v8.1c0.8-0.2,1.6-0.5,2.5-0.7L135.9,0"/>
<path class="st0" d="M115,377.1h-2.5v7.3h2.5V377.1 M115,0h-2.5v17.7c0.8-0.5,1.6-1.1,2.5-1.6V0"/>
<path class="st0" d="M91.7,360.7v23.7h2.5v-21.5C93.4,362.2,92.5,361.4,91.7,360.7 M94.2,0h-2.5v39.5c0.8-1.3,1.6-2.6,2.5-3.9
	L94.2,0"/>
<path class="st0" d="M365.2,38.3v35.6c7,8.1,10.7,17.3,12.4,27.5c12.2,17,21.9,35.6,28.8,55.4l1.1,0.9
	c5.4-52.9,17.9-94.1-37.2-117.3C368.6,39.6,366.9,39,365.2,38.3 M344.4,32.7v18c1.7,3.2,3.3,6.6,4.9,10.1c4.9,2.9,9.5,6.4,13.5,10.4
	V37.4C356.8,35.3,350.6,33.7,344.4,32.7 M330,31.3c4.6,4.4,8.6,9.5,11.9,15v-14C337.9,31.7,334,31.4,330,31.3"/>
<path class="st1" d="M362.8,37.4v33.8c0.9,0.9,1.7,1.8,2.5,2.7V38.3L362.8,37.4"/>
<path class="st1" d="M341.9,32.3v14.1c0.9,1.4,1.7,2.9,2.5,4.4V32.7C343.6,32.5,342.7,32.4,341.9,32.3"/>
<path class="st0" d="M89.8,43c-10,2.2-19.5,6.6-27.7,12.8c4.7-0.7,9.4-1,14.2-1c2.9,0,5.8,0.1,8.9,0.4C86.3,51,87.9,46.9,89.8,43"/>
<path class="st0" d="M323.5,26.1v5.2c1.4-0.1,2.8-0.1,4.2-0.1h2.3C328,29.4,325.8,27.7,323.5,26.1 M258.5,20.2
	c-0.9,0.2-1.8,0.5-2.6,0.7l2.6,0.5V20.2 M302.7,17.9v16.2c6.1-1.3,12.2-2.2,18.4-2.6v-6.9C315.4,21.3,309.2,19,302.7,17.9
	 M279.4,16.9c-6.2,0.4-12.3,1.3-18.4,2.7V22c6.2,1.4,12.3,3.1,18.4,5.1L279.4,16.9 M287.6,16.6c-1.9,0-3.8,0-5.8,0.1v11.2
	c5.8,2,11.5,4.4,17,7l1.3-0.3V17.5C296,16.9,291.8,16.6,287.6,16.6"/>
<path class="st1" d="M321.1,24.6v6.9l2.5-0.1v-5.2C322.7,25.6,321.9,25.1,321.1,24.6"/>
<path class="st1" d="M300.2,17.5v17.1l2.5-0.5V17.9C301.9,17.7,301.1,17.6,300.2,17.5"/>
<path class="st1" d="M281.8,16.8l-1.8,0.1h-0.7v10.2l2.5,0.9L281.8,16.8"/>
<path class="st1" d="M261,19.6c-0.8,0.2-1.7,0.4-2.5,0.6v1.2L261,22V19.6"/>
<path class="st0" d="M11,170.5c-6.2,13.6-7.9,28.9-4.9,43.5c1.8-11.5,6.6-22.4,13.8-31.6C16.5,178.8,13.5,174.7,11,170.5
	 M407.5,157.6c-0.1,0.6-0.1,1.3-0.2,1.9c6.1,18.2,9.5,37.2,10.2,56.3c4.2,9.4,9,18.7,13.2,28.2c10.5,12.1,18.8,25.6,21.4,42.8
	c9-14.5,13.4-31.4,12.6-48.5C463,197.5,433.9,178.3,407.5,157.6"/>
<path class="st1" d="M417.6,215.9c0.1,2.1,0.1,4.3,0.1,6.4c0,2,0,3.9-0.1,5.9c1.5,2,2.8,4.1,4.1,6.2c3.1,3.2,6.2,6.4,9.1,9.7
	C426.5,234.6,421.8,225.3,417.6,215.9 M406.4,156.8c0.3,0.9,0.6,1.8,0.9,2.8c0.1-0.6,0.1-1.3,0.2-1.9L406.4,156.8 M344.4,50.8v7.3
	c1.7,0.9,3.3,1.8,4.9,2.7C347.7,57.3,346.1,53.9,344.4,50.8 M300.2,34.6l-1.3,0.3l1.3,0.6V34.6 M321.1,31.5
	c-6.2,0.4-12.3,1.3-18.4,2.6v2.7c6.3,3.2,12.4,6.6,18.4,10.5V31.5 M327.7,31.3c-1.4,0-2.8,0-4.2,0.1v17.5l2.3,1.6
	c3.4,1.1,7,2.4,10.6,3.9c1.9,0.8,3.7,1.6,5.5,2.5V46.3c-3.3-5.6-7.3-10.6-11.9-15L327.7,31.3"/>
<path class="st2" d="M341.9,46.3v10.5c0.9,0.4,1.7,0.8,2.5,1.2v-7.4C343.6,49.2,342.8,47.8,341.9,46.3"/>
<path class="st2" d="M323.5,31.4l-2.5,0.1v15.8l2.5,1.6V31.4"/>
<path class="st2" d="M302.7,34.1l-2.5,0.5v0.9l2.5,1.2V34.1"/>
<path class="st3" d="M421.7,234.4c21.6,35.8,14.8,84.9-22.9,110.8c-1.3,0.9-2.5,1.7-3.8,2.4c-10.8,16.3-27,28.4-45.7,34.1
	c4.4,0.8,8.9,1.4,13.4,1.5c0.8,0,1.7,0,2.5,0h0.6c43.6,0,83.9-32.4,86.9-80c0.4-5.5,0.1-11-0.6-16.4c-2.5-17.2-10.9-30.7-21.4-42.8
	C427.9,240.7,424.8,237.5,421.7,234.4 M19.9,182.4c-7.3,9.2-12,20-13.8,31.6c-5,31,10.5,64.8,38.6,80.3c-9.6-22.8-14.5-47.3-14.5-72
	c0-9.7,0.7-19.4,2.2-29c-3.5-2.6-6.9-5.4-10-8.4C21.5,184,20.7,183.2,19.9,182.4"/>
<path class="st4" d="M417.6,228.2c-0.6,19.6-4.3,39-11,57.4c3.6,15.5,3.4,31.8-4.7,49.7c-2,4.3-4.3,8.4-6.9,12.4
	c1.3-0.8,2.5-1.6,3.8-2.4c37.7-25.9,44.5-75,22.9-110.8C420.4,232.3,419,230.2,417.6,228.2 M154.8,5.2h-0.5
	c-6.2,0-12.4,0.8-18.4,2.3c-0.8,0.2-1.7,0.4-2.5,0.7c-6.5,1.8-12.6,4.5-18.4,8c-0.8,0.5-1.7,1-2.5,1.6c-7.2,4.7-13.5,10.8-18.4,17.9
	c-0.9,1.3-1.7,2.6-2.5,3.9c-0.7,1.1-1.3,2.3-1.9,3.5c-2,3.9-3.5,8-4.7,12.2c8.3,0.7,16.5,2.2,24.6,4.4
	c25.6-20.6,55.9-34.8,88.7-39.7l0,0c-0.8-0.7-1.6-1.3-2.5-1.9l-0.1-0.1c-5.6-4-11.8-7-18.3-9.2c-0.8-0.3-1.7-0.5-2.5-0.8
	c-6-1.7-12.2-2.6-18.4-2.8L154.8,5.2"/>
<path class="st5" d="M406.6,285.6c-13.6,37.2-38.5,69.1-71.1,91.5h-51.5c5.2,2.5,10.7,4.5,16.3,5.9c0.8,0.2,1.6,0.4,2.5,0.6
	c12.9,2.9,26.3,3,39.2,0.1c0.8-0.2,1.7-0.4,2.5-0.6c1.7-0.4,3.3-0.9,5-1.4c18.7-5.8,34.8-17.9,45.6-34.2c2.6-3.9,4.9-8.1,6.8-12.4
	C409.9,317.3,410.1,301,406.6,285.6 M76.3,54.8c-4.7,0-9.5,0.3-14.2,1C3.4,64.7-13.8,129,11,170.5c2.5,4.3,5.5,8.3,8.9,12
	c0.8,0.8,1.6,1.6,2.4,2.4c3.1,3,6.5,5.9,10,8.4c1.6-10.6,4-21,7.3-31.2c0.3-4.9,2-9.7,4.9-13.7c13.7-34.7,36.2-65.3,65.2-88.8
	c-8-2.2-16.3-3.7-24.6-4.4C82.1,54.9,79.1,54.8,76.3,54.8 M325.8,50.5c20.1,13.9,37.6,31.1,51.8,50.9c-1.6-10.2-5.3-19.4-12.4-27.6
	c-0.8-0.9-1.6-1.8-2.5-2.7c-4-4-8.6-7.5-13.5-10.4c-1.5-0.9-3.2-1.8-4.9-2.7c-0.8-0.4-1.6-0.8-2.5-1.2c-1.7-0.8-3.6-1.7-5.5-2.5
	C332.8,52.9,329.3,51.5,325.8,50.5"/>
<linearGradient id="SVGID_1_" gradientUnits="userSpaceOnUse" x1="-693.3389" y1="-1124.561" x2="-692.3389" y2="-1124.561" gradientTransform="matrix(39.73 43.32 -43.32 39.73 -21121.5527 74876.0313)">
	<stop  offset="0" style="stop-color:#FDC872"/>
	<stop  offset="1" style="stop-color:#F57F43"/>
</linearGradient>
<path class="st6" d="M44.5,148.3c-2.9,4-4.6,8.8-4.9,13.7C41.1,157.4,42.7,152.8,44.5,148.3"/>
<linearGradient id="SVGID_2_" gradientUnits="userSpaceOnUse" x1="-738.5147" y1="-1193.3275" x2="-737.5147" y2="-1193.3275" gradientTransform="matrix(6.93 6.93 -6.93 6.93 -3145.0398 13449.2197)">
	<stop  offset="0" style="stop-color:#FDC872"/>
	<stop  offset="1" style="stop-color:#F57F43"/>
</linearGradient>
<circle class="st7" cx="11.3" cy="66" r="6.1"/>
<linearGradient id="SVGID_3_" gradientUnits="userSpaceOnUse" x1="-649.578" y1="-1094.416" x2="-648.5779" y2="-1094.416" gradientTransform="matrix(-6.76 -24.51 24.51 -6.76 22495.4961 -23266.8672)">
	<stop  offset="0" style="stop-color:#FDC872"/>
	<stop  offset="1" style="stop-color:#F57F43"/>
</linearGradient>
<path class="st8" d="M51,32.9l-0.6,0.2c-2.5,0.8-5.3,0.5-7.6-0.9c-2-1.4-4.7-1.5-6.8-0.2c-2,1.1-3.2,3.2-3.2,5.5
	c0,3.5,2.8,6.4,6.4,6.4c2.4,0,4.6-1.4,5.7-3.5c1.1-2.2,3.1-3.9,5.5-4.6l1.3-0.4c2.8-0.7,5.7,0.3,7.5,2.4c4.7,5.2,12.7,5.7,17.9,1
	c5.2-4.7,5.7-12.7,1-17.9c-4.7-5.2-12.7-5.7-17.9-1c-2.2,1.9-3.6,4.5-4.1,7.4C55.7,30,53.7,32.2,51,32.9z"/>
<g>
	<defs>
		<path id="SVGID_4_" d="M240.1,18.7v8.1c5.1-2.4,10.3-4.4,15.7-5.9C250.7,19.9,245.4,19.2,240.1,18.7 M216.8,18.1
			c-6.1,0.3-12.3,0.8-18.3,1.8c6.8,5.4,12.9,11.6,18.3,18.5V18.1 M223.9,17.9c-1.5,0-3.1,0-4.6,0.1v21.7c5.7-4.5,11.9-8.4,18.4-11.7
			v-9.5C233.1,18.1,228.5,17.9,223.9,17.9"/>
	</defs>
	<clipPath id="SVGID_5_">
		<use xlink:href="#SVGID_4_"  style="overflow:visible;"/>
	</clipPath>
	<g class="st9">
		
			<image style="overflow:visible;enable-background:new    ;" width="125" height="49" xlink:href="35FBFC0B.png"  transform="matrix(0.4723 0 0 -0.4702 197.52 40.28)">
		</image>
	</g>
</g>
<g>
	<defs>
		<path id="SVGID_6_" d="M237.6,18.5V28c0.8-0.4,1.6-0.8,2.5-1.2v-8.1L237.6,18.5"/>
	</defs>
	<clipPath id="SVGID_7_">
		<use xlink:href="#SVGID_6_"  style="overflow:visible;"/>
	</clipPath>
	<g class="st10">
		
			<image style="overflow:visible;enable-background:new    ;" width="9" height="24" xlink:href="35FBFC09.png"  transform="matrix(0.4267 0 0 -0.46 236.88 28.76)">
		</image>
	</g>
</g>
<g>
	<defs>
		<path id="SVGID_8_" d="M219.3,18l-2.5,0.1v20.2c0.6,0.7,1.1,1.4,1.6,2l0.8-0.7L219.3,18"/>
	</defs>
	<clipPath id="SVGID_9_">
		<use xlink:href="#SVGID_8_"  style="overflow:visible;"/>
	</clipPath>
	<g class="st11">
		
			<image style="overflow:visible;enable-background:new    ;" width="9" height="51" xlink:href="35FBFC0F.png"  transform="matrix(0.4267 0 0 -0.4706 216.24 41.24)">
		</image>
	</g>
</g>
<g>
	<defs>
		<path id="SVGID_10_" d="M237.6,28c-6.5,3.3-12.6,7.2-18.4,11.7v1.7c3.2,4.1,6.3,8.4,9.4,12.9c3-0.5,6-1.1,9-1.7L237.6,28
			 M281.9,27.9v11.8c5.7-1.8,11.3-3.4,17-4.7C293.3,32.3,287.7,30,281.9,27.9 M261,22v24.3c2.6-0.8,5.1-1.6,7.6-2.4
			c3.6-1.2,7.2-2.3,10.7-3.4V27.1C273.3,25.1,267.2,23.4,261,22 M255.9,21c-5.4,1.5-10.7,3.5-15.7,5.9V52c6.3-1.5,12.4-3.2,18.4-5
			V21.4L255.9,21"/>
	</defs>
	<clipPath id="SVGID_11_">
		<use xlink:href="#SVGID_10_"  style="overflow:visible;"/>
	</clipPath>
	<g class="st12">
		
			<image style="overflow:visible;enable-background:new    ;" width="171" height="73" xlink:href="35FBFC08.png"  transform="matrix(0.4744 0 0 -0.48 218.64 55.16)">
		</image>
	</g>
</g>
<g>
	<defs>
		<polyline id="SVGID_12_" points="279.4,27.1 279.4,40.4 281.8,39.7 281.8,27.9 279.4,27.1 		"/>
	</defs>
	<clipPath id="SVGID_13_">
		<use xlink:href="#SVGID_12_"  style="overflow:visible;"/>
	</clipPath>
	<g class="st13">
		
			<image style="overflow:visible;enable-background:new    ;" width="9" height="32" xlink:href="35FBFC06.png"  transform="matrix(0.4267 0 0 -0.465 278.64 41.24)">
		</image>
	</g>
</g>
<g>
	<defs>
		<polyline id="SVGID_14_" points="258.5,21.4 258.5,47 261,46.3 261,22 258.5,21.5 		"/>
	</defs>
	<clipPath id="SVGID_15_">
		<use xlink:href="#SVGID_14_"  style="overflow:visible;"/>
	</clipPath>
	<g class="st14">
		
			<image style="overflow:visible;enable-background:new    ;" width="9" height="58" xlink:href="35FBFC07.png"  transform="matrix(0.4267 0 0 -0.4717 258 47.96)">
		</image>
	</g>
</g>
<g>
	<defs>
		<path id="SVGID_16_" d="M240.1,26.8c-0.8,0.4-1.7,0.8-2.5,1.2v24.6l2.5-0.6V26.8"/>
	</defs>
	<clipPath id="SVGID_17_">
		<use xlink:href="#SVGID_16_"  style="overflow:visible;"/>
	</clipPath>
	<g class="st15">
		
			<image style="overflow:visible;enable-background:new    ;" width="9" height="58" xlink:href="35FBFC17.png"  transform="matrix(0.4267 0 0 -0.4717 236.88 53.24)">
		</image>
	</g>
</g>
<g>
	<defs>
		<polyline id="SVGID_18_" points="219.3,39.7 218.4,40.3 219.3,41.4 219.3,39.7 		"/>
	</defs>
	<clipPath id="SVGID_19_">
		<use xlink:href="#SVGID_18_"  style="overflow:visible;"/>
	</clipPath>
	<g class="st16">
		
			<image style="overflow:visible;enable-background:new    ;" width="7" height="8" xlink:href="35FBFC19.png"  transform="matrix(0.3429 0 0 -0.42 217.68 42.2)">
		</image>
	</g>
</g>
<g>
	<defs>
		<path id="SVGID_20_" d="M237.6,52.6c-2.9,0.7-5.9,1.2-9,1.7c1,1.5,2,3,3,4.5l2.9-0.9l3-1L237.6,52.6 M323.5,48.9v0.8l2.3,0.7
			L323.5,48.9 M258.5,47c-6,1.8-12,3.5-18.4,5v4.1c6.2-2,12.3-3.9,18.4-5.5V47 M279.3,40.4c-3.6,1.1-7.1,2.3-10.7,3.4
			c-2.5,0.8-5.1,1.6-7.6,2.4v3.6c6-1.6,12.2-2.8,18.4-3.7V40.4 M302.6,36.8v8.9c6.2,0.5,12.4,1.7,18.4,3.3v-1.8
			C315.1,43.4,309,39.9,302.6,36.8 M298.9,34.9c-5.7,1.3-11.4,3-17,4.7V46c4-0.4,7.9-0.7,11.9-0.7c2.1,0,4.3,0.1,6.5,0.2v-10
			L298.9,34.9"/>
	</defs>
	<clipPath id="SVGID_21_">
		<use xlink:href="#SVGID_20_"  style="overflow:visible;"/>
	</clipPath>
	<g class="st17">
		
			<image style="overflow:visible;enable-background:new    ;" width="207" height="55" xlink:href="35FBFC1B.png"  transform="matrix(0.4777 0 0 -0.4625 227.76 59.48)">
		</image>
	</g>
</g>
<g>
	<defs>
		<path id="SVGID_22_" d="M321.1,47.2V49c0.8,0.2,1.7,0.5,2.5,0.7v-0.8L321.1,47.2"/>
	</defs>
	<clipPath id="SVGID_23_">
		<use xlink:href="#SVGID_22_"  style="overflow:visible;"/>
	</clipPath>
	<g class="st18">
		
			<image style="overflow:visible;enable-background:new    ;" width="9" height="8" xlink:href="CD6B6DA8.png"  transform="matrix(0.4267 0 0 -0.48 320.4 50.36)">
		</image>
	</g>
</g>
<g>
	<defs>
		<path id="SVGID_24_" d="M300.2,35.6v9.9c0.8,0.1,1.7,0.1,2.5,0.2v-8.9L300.2,35.6"/>
	</defs>
	<clipPath id="SVGID_25_">
		<use xlink:href="#SVGID_24_"  style="overflow:visible;"/>
	</clipPath>
	<g class="st19">
		
			<image style="overflow:visible;enable-background:new    ;" width="11" height="24" xlink:href="CD6B6DAF.png"  transform="matrix(0.3927 0 0 -0.48 299.28 46.52)">
		</image>
	</g>
</g>
<g>
	<defs>
		<polyline id="SVGID_26_" points="281.8,39.7 279.4,40.4 279.4,46.3 281.8,46 281.8,39.7 		"/>
	</defs>
	<clipPath id="SVGID_27_">
		<use xlink:href="#SVGID_26_"  style="overflow:visible;"/>
	</clipPath>
	<g class="st20">
		
			<image style="overflow:visible;enable-background:new    ;" width="9" height="19" xlink:href="CD6B6DA9.png"  transform="matrix(0.4267 0 0 -0.4295 278.64 47)">
		</image>
	</g>
</g>
<g>
	<defs>
		<polyline id="SVGID_28_" points="261,46.3 258.5,47 258.5,50.6 261,49.9 261,46.3 		"/>
	</defs>
	<clipPath id="SVGID_29_">
		<use xlink:href="#SVGID_28_"  style="overflow:visible;"/>
	</clipPath>
	<g class="st21">
		
			<image style="overflow:visible;enable-background:new    ;" width="9" height="12" xlink:href="CD6B6DAB.png"  transform="matrix(0.4267 0 0 -0.48 258 51.32)">
		</image>
	</g>
</g>
<g>
	<defs>
		<polyline id="SVGID_30_" points="240.1,52 237.6,52.6 237.6,56.9 240.1,56.1 240.1,52 		"/>
	</defs>
	<clipPath id="SVGID_31_">
		<use xlink:href="#SVGID_30_"  style="overflow:visible;"/>
	</clipPath>
	<g class="st22">
		
			<image style="overflow:visible;enable-background:new    ;" width="9" height="14" xlink:href="CD6B6DB6.png"  transform="matrix(0.4267 0 0 -0.4457 236.88 57.56)">
		</image>
	</g>
</g>
<g>
	<defs>
		<path id="SVGID_32_" d="M198.5,19.8c-32.9,4.9-63.2,19.2-88.7,39.7c2.6,0.7,5.3,1.5,8,2.4c19.3,6.2,36.2,8.6,51.6,8.6
			c23.7,0,43.6-5.7,62.4-11.7c-1-1.5-2-3-3-4.5c-3.1-4.5-6.2-8.8-9.4-12.9l-0.8-1.1c-0.6-0.7-1.1-1.4-1.6-2
			C211.5,31.5,205.3,25.3,198.5,19.8"/>
	</defs>
	<clipPath id="SVGID_33_">
		<use xlink:href="#SVGID_32_"  style="overflow:visible;"/>
	</clipPath>
	<g class="st23">
		
			<image style="overflow:visible;enable-background:new    ;" width="259" height="109" xlink:href="CD6B6DB7.png"  transform="matrix(0.4763 0 0 -0.4756 109.2 71)">
		</image>
	</g>
</g>
<g>
	<defs>
		<path id="SVGID_34_" d="M377.6,101.4c1.4,8.7,1.4,18.1,0.6,28.1c7.6,10.4,17.6,18.9,28.2,27.3C399.5,137,389.8,118.4,377.6,101.4"
			/>
	</defs>
	<clipPath id="SVGID_35_">
		<use xlink:href="#SVGID_34_"  style="overflow:visible;"/>
	</clipPath>
	<g class="st24">
		
			<image style="overflow:visible;enable-background:new    ;" width="65" height="118" xlink:href="CD6B6DB8.png"  transform="matrix(0.4652 0 0 -0.48 377.04 157.4)">
		</image>
	</g>
</g>
<g>
	<defs>
		<path id="SVGID_36_" d="M407.4,159.5c-0.3,2.7-0.5,5.4-0.7,8.1c-1.3,16.9,4,32.6,10.9,48.2C416.9,196.7,413.4,177.7,407.4,159.5"
			/>
	</defs>
	<clipPath id="SVGID_37_">
		<use xlink:href="#SVGID_36_"  style="overflow:visible;"/>
	</clipPath>
	<g class="st25">
		
			<image style="overflow:visible;enable-background:new    ;" width="30" height="120" xlink:href="CD6B6DBB.png"  transform="matrix(0.464 0 0 -0.48 404.4 216.44)">
		</image>
	</g>
</g>
<g>
	<defs>
		<path id="SVGID_38_" d="M378.2,129.5c-1,13.9-3.4,29.1-5,45.4c4,11.5,10.9,21.2,19.1,30.3l0.8,0.5c9.5,5.8,17.8,13.4,24.4,22.4
			c0.1-1.9,0.1-3.9,0.1-5.9c0-2.1,0-4.3-0.1-6.4c-6.9-15.6-12.3-31.3-10.9-48.2c0.2-2.7,0.5-5.4,0.7-8.1c-0.3-0.9-0.6-1.9-0.9-2.8
			C395.8,148.5,385.8,139.9,378.2,129.5"/>
	</defs>
	<clipPath id="SVGID_39_">
		<use xlink:href="#SVGID_38_"  style="overflow:visible;"/>
	</clipPath>
	<g class="st26">
		
			<image style="overflow:visible;enable-background:new    ;" width="96" height="210" xlink:href="CD6B6DB9.png"  transform="matrix(0.475 0 0 -0.4777 372.72 228.92)">
		</image>
	</g>
</g>
<g>
	<defs>
		<path id="SVGID_40_" d="M373.3,174.9c-0.2,2.2-0.4,4.5-0.6,6.8c-0.3,4.5-0.2,9.1,0.3,13.6c6.7,2.9,13.1,6.2,19.4,10
			C384.2,196.2,377.2,186.4,373.3,174.9"/>
	</defs>
	<clipPath id="SVGID_41_">
		<use xlink:href="#SVGID_40_"  style="overflow:visible;"/>
	</clipPath>
	<g class="st27">
		
			<image style="overflow:visible;enable-background:new    ;" width="45" height="67" xlink:href="CD6B6DBF.png"  transform="matrix(0.4693 0 0 -0.4728 371.76 205.88)">
		</image>
	</g>
</g>
<g>
	<defs>
		<path id="SVGID_42_" d="M373,195.3c3.7,31,26.4,59,33.6,90.3c6.7-18.4,10.4-37.8,11-57.4c-6.6-9-14.9-16.6-24.4-22.4l-0.8-0.5
			C386.1,201.5,379.7,198.1,373,195.3"/>
	</defs>
	<clipPath id="SVGID_43_">
		<use xlink:href="#SVGID_42_"  style="overflow:visible;"/>
	</clipPath>
	<g class="st28">
		
			<image style="overflow:visible;enable-background:new    ;" width="97" height="192" xlink:href="CD6B6DD3.png"  transform="matrix(0.4751 0 0 -0.48 372.24 286.52)">
		</image>
	</g>
</g>
<g>
	<defs>
		<path id="SVGID_44_" d="M281.8,376v1h2.1C283.2,376.7,282.5,376.3,281.8,376 M262.6,362.8c0.4,1.5-0.3,3.1-1.7,3.9V377h18.4v-2.4
			C273.4,371.4,267.8,367.4,262.6,362.8 M196,359.4c-5.6,1.2-11.3,2-17,2.2c1.1,1.7,0.7,3.9-1,5c-0.1,0.1-0.3,0.2-0.5,0.3v10.1H196
			v-9.9c-1.9-0.5-3.1-2.5-2.6-4.4c0.3-1.3,1.3-2.2,2.6-2.6V359.4 M156.8,358.1v2.3c1.8,0.8,2.7,2.9,1.9,4.8c-0.4,0.8-1,1.5-1.9,1.9
			v10.1h18.3v-9.9c-1.9-0.5-3.1-2.5-2.5-4.4c0.1-0.4,0.3-0.8,0.5-1.1C167.5,361.4,162,360.2,156.8,358.1 M216.8,353.9
			c-6.3,1.9-12.4,3.6-18.4,5v1.6c1.8,0.9,2.5,3.1,1.6,4.9c-0.3,0.7-0.9,1.3-1.6,1.6v10.1h18.3v-9.9c-2-0.4-3.2-2.3-2.8-4.3
			c0.3-1.4,1.4-2.5,2.8-2.8L216.8,353.9 M234.8,348.5c-5.3,1.6-10.5,3.2-15.5,4.8v7.3c1.8,0.9,2.4,3.1,1.5,4.9
			c-0.3,0.6-0.9,1.2-1.5,1.5v10.2h18.4v-9.8c-2-0.4-3.2-2.3-2.9-4.2c0.3-1.5,1.4-2.6,2.9-2.9v-9
			C236.2,350.9,235.1,349.8,234.8,348.5 M246.7,345c-1.7,0.5-3.3,0.9-4.9,1.4c0.6,1.7-0.1,3.5-1.6,4.4v9.8c1.7,1,2.4,3.2,1.4,4.9
			c-0.3,0.6-0.8,1-1.4,1.4v10.2h18.4v-9.8c-2-0.3-3.3-2.2-3-4.2c0.3-1.5,1.4-2.7,3-3v-1.2c-1.1-1.1-2.2-2.3-3.2-3.4
			C252.4,352.2,249.6,348.7,246.7,345 M135.9,342.9v34.2h18.4v-9.9c-1.9-0.5-3.1-2.5-2.6-4.4c0.3-1.3,1.3-2.2,2.6-2.6V357
			C147.2,353.6,141,348.7,135.9,342.9 M115,307.5v69.5h18.4v-37.2c-2.2-2.8-4.3-5.6-6.2-8.6c-4.9-7.4-8.9-15.4-11.8-23.8L115,307.5
			 M101.5,324.7c-2.9,0-5.2-2.3-5.2-5.2c0-2.9,2.3-5.2,5.2-5.2c2.9,0,5.2,2.3,5.2,5.2c0,0,0,0,0,0
			C106.7,322.4,104.3,324.7,101.5,324.7L101.5,324.7 M94.2,306.4v56.5c5.8,5.1,11.8,9.8,18.2,14.2h0.2v-69.6
			C106.2,307.2,100.1,306.9,94.2,306.4 M44.6,294.3c10.7,25.3,26.8,47.9,47.1,66.4v-54.5c-15.6-1.4-29.7-4-41.6-9.2
			C48.3,296.1,46.4,295.2,44.6,294.3"/>
	</defs>
	<clipPath id="SVGID_45_">
		<use xlink:href="#SVGID_44_"  style="overflow:visible;"/>
	</clipPath>
	<g class="st29">
		
			<image style="overflow:visible;enable-background:new    ;" width="503" height="175" xlink:href="CD6B6DDD.png"  transform="matrix(0.479 0 0 -0.48 43.92 377.72)">
		</image>
	</g>
</g>
<g>
	<defs>
		<path id="SVGID_46_" d="M279.4,374.7v2.4h2.5v-1C281,375.7,280.2,375.2,279.4,374.7"/>
	</defs>
	<clipPath id="SVGID_47_">
		<use xlink:href="#SVGID_46_"  style="overflow:visible;"/>
	</clipPath>
	<g class="st30">
		
			<image style="overflow:visible;enable-background:new    ;" width="9" height="9" xlink:href="CD6B6DDF.png"  transform="matrix(0.4267 0 0 -0.4267 278.64 377.72)">
		</image>
	</g>
</g>
<g>
	<defs>
		<path id="SVGID_48_" d="M261,366.8c-0.6,0.3-1.2,0.5-1.9,0.5c-0.2,0-0.4,0-0.6,0v9.8h2.5V366.8 M258.5,358.9v1.2
			c0.4-0.1,0.8-0.1,1.2,0L258.5,358.9"/>
	</defs>
	<clipPath id="SVGID_49_">
		<use xlink:href="#SVGID_48_"  style="overflow:visible;"/>
	</clipPath>
	<g class="st31">
		<g transform="matrix(0.48, 0, 0, -0.48, 258, 377.72)">
			
				<image style="overflow:visible;enable-background:new    ;" width="9" height="42" id="image" xlink:href="CD6B6DD2.png"  transform="matrix(0.4267 0 0 -0.4686 258 377.72)">
			</image>
		</g>
	</g>
</g>
<g>
	<defs>
		<path id="SVGID_50_" d="M240.1,366.8c-0.8,0.4-1.6,0.6-2.5,0.4v9.8h2.5V366.8 M240.1,350.7c-0.8,0.4-1.6,0.6-2.5,0.4v9
			c0.9-0.2,1.7,0,2.5,0.4V350.7"/>
	</defs>
	<clipPath id="SVGID_51_">
		<use xlink:href="#SVGID_50_"  style="overflow:visible;"/>
	</clipPath>
	<g class="st32">
		
			<image style="overflow:visible;enable-background:new    ;" width="9" height="59" xlink:href="CD6B6DD1.png"  transform="matrix(0.4267 0 0 -0.4719 236.88 377.72)">
		</image>
	</g>
</g>
<g>
	<defs>
		<path id="SVGID_52_" d="M219.3,366.9c-0.8,0.4-1.6,0.5-2.5,0.3v9.9h2.5V366.9 M219.3,353.2l-2.5,0.8v6.2c0.8-0.2,1.7-0.1,2.5,0.3
			V353.2"/>
	</defs>
	<clipPath id="SVGID_53_">
		<use xlink:href="#SVGID_52_"  style="overflow:visible;"/>
	</clipPath>
	<g class="st33">
		
			<image style="overflow:visible;enable-background:new    ;" width="9" height="54" xlink:href="CD6B6DD5.png"  transform="matrix(0.4267 0 0 -0.4711 216.24 377.72)">
		</image>
	</g>
</g>
<g>
	<defs>
		<path id="SVGID_54_" d="M198.4,366.9c-0.8,0.4-1.7,0.5-2.5,0.3v9.9h2.5V366.9 M198.4,358.9l-2.5,0.5v0.7c0.8-0.2,1.7-0.1,2.5,0.3
			V358.9"/>
	</defs>
	<clipPath id="SVGID_55_">
		<use xlink:href="#SVGID_54_"  style="overflow:visible;"/>
	</clipPath>
	<g class="st34">
		<g transform="matrix(0.48, 0, 0, -0.48, 195.12, 377.72)">
			
				<image style="overflow:visible;enable-background:new    ;" width="9" height="42" id="image_2_" xlink:href="CD6B6DD7.png"  transform="matrix(0.4267 0 0 -0.4686 195.12 377.72)">
			</image>
		</g>
	</g>
</g>
<g>
	<defs>
		<path id="SVGID_56_" d="M177.6,367c-0.8,0.4-1.7,0.4-2.5,0.2v9.9h2.5V367"/>
	</defs>
	<clipPath id="SVGID_57_">
		<use xlink:href="#SVGID_56_"  style="overflow:visible;"/>
	</clipPath>
	<g class="st35">
		
			<image style="overflow:visible;enable-background:new    ;" width="9" height="25" xlink:href="CD6B6DD0.png"  transform="matrix(0.4267 0 0 -0.4608 174.48 377.72)">
		</image>
	</g>
</g>
<g>
	<defs>
		<path id="SVGID_58_" d="M156.7,367c-0.8,0.3-1.7,0.4-2.5,0.2v9.9h2.5V367 M154.3,357v3.2c0.8-0.2,1.7-0.2,2.5,0.2v-2.3
			C155.9,357.8,155.1,357.4,154.3,357"/>
	</defs>
	<clipPath id="SVGID_59_">
		<use xlink:href="#SVGID_58_"  style="overflow:visible;"/>
	</clipPath>
	<g class="st36">
		
			<image style="overflow:visible;enable-background:new    ;" width="11" height="46" xlink:href="CD6B6DEF.png"  transform="matrix(0.3927 0 0 -0.4696 153.36 377.72)">
		</image>
	</g>
</g>
<g>
	<defs>
		<path id="SVGID_60_" d="M133.4,339.9v37.2h2.5v-34.2C135,341.9,134.2,340.9,133.4,339.9"/>
	</defs>
	<clipPath id="SVGID_61_">
		<use xlink:href="#SVGID_60_"  style="overflow:visible;"/>
	</clipPath>
	<g class="st37">
		
			<image style="overflow:visible;enable-background:new    ;" width="9" height="80" xlink:href="CD6B6DCD.png"  transform="matrix(0.4267 0 0 -0.48 132.72 377.72)">
		</image>
	</g>
</g>
<g>
	<defs>
		<polyline id="SVGID_62_" points="112.6,307.4 112.6,377.1 115,377.1 115,307.5 112.5,307.4 		"/>
	</defs>
	<clipPath id="SVGID_63_">
		<use xlink:href="#SVGID_62_"  style="overflow:visible;"/>
	</clipPath>
	<g class="st38">
		
			<image style="overflow:visible;enable-background:new    ;" width="11" height="148" xlink:href="CD6B6DF2.png"  transform="matrix(0.3927 0 0 -0.48 111.6 377.72)">
		</image>
	</g>
</g>
<g>
	<defs>
		<path id="SVGID_64_" d="M91.7,306.2v54.5c0.8,0.8,1.7,1.5,2.5,2.2v-56.5L91.7,306.2"/>
	</defs>
	<clipPath id="SVGID_65_">
		<use xlink:href="#SVGID_64_"  style="overflow:visible;"/>
	</clipPath>
	<g class="st39">
		
			<image style="overflow:visible;enable-background:new    ;" width="9" height="122" xlink:href="CD6B6DCC.png"  transform="matrix(0.4267 0 0 -0.48 90.96 363.8)">
		</image>
	</g>
</g>
<g>
	<defs>
		<path id="SVGID_66_" d="M32.3,193.3c-1.5,9.6-2.2,19.3-2.2,29c0,24.7,4.9,49.2,14.5,72c1.8,1,3.6,1.9,5.5,2.7
			c11.9,5.2,26,7.8,41.6,9.2l2.5,0.2c5.9,0.5,12.1,0.8,18.4,1l2.5,0.1h0.3c-2.4-7-4-14.2-4.8-21.5l-0.3,0.1
			c-8.2,2-16.5-3.1-18.5-11.4c-1.8-7.5,2.3-15.1,9.5-17.9c1.8-0.7,3.7-1,5.6-1c1.4,0,2.8,0.2,4.1,0.6c0.8-8,2-16.1,3-24.3
			C82.9,219.2,53.1,208.6,32.3,193.3"/>
	</defs>
	<clipPath id="SVGID_67_">
		<use xlink:href="#SVGID_66_"  style="overflow:visible;"/>
	</clipPath>
	<g class="st40">
		
			<image style="overflow:visible;enable-background:new    ;" width="182" height="242" xlink:href="CD6B6DCE.png"  transform="matrix(0.4747 0 0 -0.478 29.52 308.12)">
		</image>
	</g>
</g>
<g>
	<defs>
		<path id="SVGID_68_" d="M155.3,351.2c-2,0-3.6-1.6-3.6-3.6c0-2,1.6-3.6,3.6-3.6c2,0,3.6,1.6,3.6,3.6l0,0
			C158.9,349.6,157.3,351.2,155.3,351.2 M176,351.2c-2,0-3.6-1.6-3.6-3.6c0-2,1.6-3.6,3.6-3.6c2,0,3.6,1.6,3.6,3.6l0,0
			C179.7,349.6,178,351.2,176,351.2 M196.8,351.2c-2,0-3.6-1.6-3.6-3.6c0-2,1.6-3.6,3.6-3.6c2,0,3.6,1.6,3.6,3.6l0,0
			C200.4,349.6,198.8,351.2,196.8,351.2 M217.6,351.2c-2,0-3.6-1.6-3.6-3.6c0-2,1.6-3.6,3.6-3.6c2,0,3.6,1.6,3.6,3.6l0,0
			C221.2,349.6,219.6,351.2,217.6,351.2 M217.6,335.1c-2,0-3.6-1.6-3.6-3.6c0-2,1.6-3.6,3.6-3.6c2,0,3.6,1.6,3.6,3.6l0,0
			C221.2,333.4,219.6,335.1,217.6,335.1 M217.6,318.9c-2,0-3.6-1.6-3.6-3.6c0-2,1.6-3.6,3.6-3.6c2,0,3.6,1.6,3.6,3.6l0,0
			C221.2,317.3,219.6,318.9,217.6,318.9 M114,232c-1.1,8.3-2.2,16.3-3,24.3c3,0.8,5.7,2.6,7.7,5c1.7,2.2,4.3,3.5,7.1,3.5
			c0.6,0,1.3-0.1,1.9-0.2l1.6-0.4c2.9-0.7,5.5-2.6,6.9-5.2c2-3.7,6.7-5.1,10.4-3c3.7,2,5.1,6.7,3,10.4c-0.7,1.3-1.8,2.4-3.1,3.1
			c-1.1,0.6-2.3,0.9-3.6,0.9c-1.6,0-3.2-0.5-4.5-1.5c-1.7-1.2-3.8-1.8-5.9-1.8c-1.1,0-2.1,0.1-3.2,0.4l-0.8,0.2
			c-3.3,0.7-5.9,3.2-6.6,6.5c-1.2,5.8-5.6,10.3-11.3,11.7c0.8,7.3,2.4,14.6,4.8,21.5c3,8.4,6.9,16.4,11.8,23.8c1.9,3,4,5.9,6.2,8.6
			c0.8,1,1.7,2,2.5,2.9c5.1,5.9,11.3,10.8,18.4,14.2c0.8,0.4,1.7,0.7,2.5,1.1c5.2,2.1,10.7,3.3,16.3,3.5c1.1-1.7,3.4-2.1,5-1
			c0.4,0.3,0.7,0.6,1,1c5.7-0.2,11.4-1,16.9-2.2l2.5-0.5c5.9-1.3,12-3.1,18.4-5l2.5-0.8c5-1.5,10.2-3.1,15.5-4.8
			c-0.5-1.9,0.7-3.9,2.6-4.4c1.8-0.5,3.8,0.6,4.4,2.4c1.6-0.5,3.3-0.9,4.9-1.4c-2.4-3.2-4.8-6.5-7.1-10.1c-1.9,0.7-4-0.2-4.7-2.1
			c-0.5-1.4-0.2-2.9,0.9-3.9c-1.5-2.5-3-5.1-4.5-7.8c-3.6-6.5-7.7-12.7-12.2-18.6c-1.8,0.8-4,0.1-4.8-1.8c-0.6-1.2-0.4-2.6,0.4-3.7
			C187.7,265.1,150.1,247,114,232"/>
	</defs>
	<clipPath id="SVGID_69_">
		<use xlink:href="#SVGID_68_"  style="overflow:visible;"/>
	</clipPath>
	<g class="st41">
		
			<image style="overflow:visible;enable-background:new    ;" width="289" height="274" xlink:href="CD6B6DCB.png"  transform="matrix(0.4767 0 0 -0.4782 109.68 362.36)">
		</image>
	</g>
</g>
<g>
	<defs>
		<path id="SVGID_70_" d="M259.1,351.2c-2,0-3.6-1.6-3.6-3.6c0-2,1.6-3.6,3.6-3.6s3.6,1.6,3.6,3.6l0,0
			C262.7,349.6,261.1,351.2,259.1,351.2 M259.1,335.1c-2,0-3.6-1.6-3.6-3.6c0-2,1.6-3.6,3.6-3.6s3.6,1.6,3.6,3.6l0,0
			C262.7,333.4,261.1,335.1,259.1,335.1 M238.3,318.9c-2,0-3.6-1.6-3.6-3.6c0-2,1.6-3.6,3.6-3.6c2,0,3.6,1.6,3.6,3.6l0,0
			C242,317.3,240.3,318.9,238.3,318.9 M259.1,318.9c-2,0-3.6-1.6-3.6-3.6c0-2,1.6-3.6,3.6-3.6s3.6,1.6,3.6,3.6l0,0
			C262.7,317.3,261.1,318.9,259.1,318.9 M238.3,302.8c-2,0-3.6-1.7-3.6-3.6c0-2,1.7-3.6,3.6-3.6c2,0,3.6,1.6,3.6,3.6
			C242,301.2,240.4,302.8,238.3,302.8 M259.1,302.8c-2,0-3.6-1.6-3.6-3.6c0-2,1.6-3.6,3.6-3.6s3.6,1.6,3.6,3.6l0,0
			C262.8,301.2,261.1,302.8,259.1,302.8 M317.7,262.2c4.1,0.1,8-2.1,10.1-5.7c3.6-6.5,10.4-10.5,17.8-10.5c0.5,0,1,0,1.6,0.1
			c11.2,0.8,19.7,10.6,18.8,21.9c-0.8,10.2-8.9,18.2-19,18.9c-0.4,0-0.9,0-1.3,0c-8.3,0-15.9-5-19-12.7c-1.6-4.3-5.5-7.3-10-7.8
			l-2.2-0.2c-0.4,0-0.7,0-1.1,0c-3.7,0-7.2,1.4-9.8,3.9c-1.9,1.8-4.4,2.8-7,2.8h-0.8c-5.6-0.4-9.8-5.4-9.4-11
			c0.1-0.9,0.3-1.8,0.6-2.7c1.2-3.4,4.2-6,7.8-6.6c0.6-0.1,1.2-0.1,1.8-0.1c3.2,0,6.3,1.5,8.2,4.1c2.5,3.4,6.6,5.1,11,5.4l1,0.1
			C317.1,262.2,317.4,262.2,317.7,262.2 M87.1,134.9c-6.8,0-12.3-5.5-12.3-12.3c0-6.8,5.5-12.3,12.3-12.3c6.8,0,12.3,5.5,12.3,12.3
			S93.9,134.9,87.1,134.9L87.1,134.9 M293.8,45.3c-4,0-8,0.2-11.9,0.7l-2.5,0.3c-6.2,0.8-12.3,2.1-18.4,3.7l-2.5,0.7
			c-6.1,1.7-12.2,3.6-18.4,5.5l-2.5,0.8l-3,1l-2.9,0.9c-18.8,6-38.7,11.7-62.4,11.7c-15.3,0-32.3-2.4-51.6-8.6
			c-2.7-0.9-5.4-1.7-8-2.4c-29,23.5-51.5,54.1-65.2,88.8c8.6-12.1,25.4-14.8,37.4-6.2c12.1,8.6,14.8,25.4,6.2,37.4
			s-25.4,14.8-37.4,6.2c-7.1-5.1-11.3-13.2-11.2-21.9c0-0.6,0-1.2,0.1-1.8c-3.2,10.2-5.7,20.6-7.3,31.2C53.1,208.5,83,219.2,114,232
			c36,15,73.7,33,100.7,65c1.2-1.6,3.5-1.9,5.1-0.7s1.9,3.5,0.7,5.1c-0.4,0.5-0.8,0.8-1.4,1.1c4.5,5.9,8.6,12.1,12.2,18.6
			c1.5,2.7,3,5.3,4.5,7.8c1.4-1.4,3.7-1.3,5.1,0.1c1.4,1.4,1.3,3.7-0.1,5.1c-0.4,0.3-0.8,0.6-1.2,0.8c2.3,3.6,4.7,6.9,7.1,10.1
			c2.8,3.8,5.7,7.3,8.6,10.5c1,1.2,2.1,2.3,3.2,3.4l1.2,1.2c1.5,0.2,2.7,1.3,3,2.8c5.1,4.6,10.7,8.6,16.7,11.9
			c0.8,0.5,1.7,0.9,2.5,1.3c0.7,0.4,1.4,0.7,2.1,1h51.5c32.6-22.4,57.5-54.4,71.1-91.5c-7.2-31.3-30-59.3-33.6-90.3
			c-0.5-4.5-0.6-9.1-0.3-13.6c0.2-2.3,0.4-4.5,0.6-6.8c1.6-16.3,3.9-31.4,5-45.4c0.8-10,0.8-19.4-0.6-28.1
			C363.6,81.6,346,64.3,326,50.4l-2.3-0.7c-0.8-0.2-1.7-0.5-2.5-0.7c-6-1.7-12.2-2.8-18.4-3.3c-0.8-0.1-1.7-0.1-2.5-0.2
			c-2.2-0.1-4.3-0.2-6.5-0.2"/>
	</defs>
	<clipPath id="SVGID_71_">
		<use xlink:href="#SVGID_70_"  style="overflow:visible;"/>
	</clipPath>
	<g class="st42">
		
			<image style="overflow:visible;enable-background:new    ;" width="785" height="694" xlink:href="CD6B6DD4.png"  transform="matrix(0.4788 0 0 -0.48 31.44 377.72)">
		</image>
	</g>
</g>
<g>
	<defs>
		<path id="SVGID_72_" d="M66.4,137.1c-8.7,0-16.9,4.2-21.9,11.3c-1.8,4.5-3.4,9.1-4.9,13.7c0,0.6-0.1,1.2-0.1,1.8
			c0,14.8,12,26.8,26.8,26.8s26.8-12,26.8-26.8C93.2,149.1,81.2,137.1,66.4,137.1"/>
	</defs>
	<clipPath id="SVGID_73_">
		<use xlink:href="#SVGID_72_"  style="overflow:visible;"/>
	</clipPath>
	<g class="st43">
		
			<image style="overflow:visible;enable-background:new    ;" width="117" height="115" xlink:href="CD6B6DD6.png"  transform="matrix(0.4718 0 0 -0.48 38.64 191.48)">
		</image>
	</g>
</g>
<g>
	<defs>
		<path id="SVGID_74_" d="M87.1,110.3c-6.8,0-12.3,5.5-12.3,12.3s5.5,12.3,12.3,12.3c6.8,0,12.3-5.5,12.3-12.3
			S93.9,110.3,87.1,110.3L87.1,110.3"/>
	</defs>
	<clipPath id="SVGID_75_">
		<use xlink:href="#SVGID_74_"  style="overflow:visible;"/>
	</clipPath>
	<g class="st44">
		
			<image style="overflow:visible;enable-background:new    ;" width="55" height="57" xlink:href="CD6B6DDA.png"  transform="matrix(0.4713 0 0 -0.4632 74.16 135.8)">
		</image>
	</g>
</g>
<g>
	<defs>
		<path id="SVGID_76_" d="M345.6,246c-7.4,0-14.2,4-17.8,10.5c-2.1,3.6-5.9,5.7-10.1,5.7c-0.3,0-0.6,0-0.9,0l-1-0.1
			c-4.4-0.3-8.5-2-11-5.4c-1.9-2.6-5-4.2-8.2-4.1c-0.6,0-1.2,0.1-1.8,0.1c-3.6,0.6-6.6,3.2-7.8,6.6c-1.9,5.3,0.9,11.2,6.2,13.1
			c0.9,0.3,1.7,0.5,2.7,0.6h0.8c2.6,0,5.1-1,7-2.8c2.6-2.5,6.1-3.9,9.8-3.9c0.4,0,0.7,0,1.1,0l2.2,0.2c4.5,0.5,8.4,3.5,10,7.8
			c3.1,7.7,10.7,12.8,19,12.7c0.4,0,0.9,0,1.3,0c11.3-0.7,19.8-10.4,19.1-21.7c-0.7-10.2-8.7-18.3-18.9-19
			C346.6,246.1,346.1,246,345.6,246"/>
	</defs>
	<clipPath id="SVGID_77_">
		<use xlink:href="#SVGID_76_"  style="overflow:visible;"/>
	</clipPath>
	<g class="st45">
		
			<image style="overflow:visible;enable-background:new    ;" width="178" height="88" xlink:href="CD6B6DDB.png"  transform="matrix(0.4773 0 0 -0.48 283.92 287.48)">
		</image>
	</g>
</g>
<g>
	<defs>
		<path id="SVGID_78_" d="M142.8,255.1c-2.8,0-5.4,1.5-6.7,4c-1.5,2.6-4,4.5-6.9,5.2l-1.6,0.4c-0.6,0.1-1.2,0.2-1.9,0.2
			c-2.8-0.1-5.4-1.4-7.1-3.5c-2-2.4-4.7-4.2-7.7-5c-1.3-0.4-2.7-0.6-4.1-0.6c-8.5,0-15.3,6.8-15.4,15.3c0,0.6,0,1.1,0.1,1.7
			c0.9,8.4,8.5,14.5,16.9,13.6c0.6-0.1,1.2-0.2,1.8-0.3l0.3-0.1c5.7-1.4,10-6,11.2-11.8c0.8-3.3,3.3-5.8,6.6-6.5l0.8-0.2
			c1-0.2,2.1-0.4,3.2-0.4c2.1-0.1,4.2,0.6,5.9,1.8c1.3,1,2.9,1.5,4.5,1.5c1.2,0,2.5-0.3,3.6-0.9c2.4-1.3,4-3.7,4.1-6.5
			c0.2-4.2-3.1-7.8-7.4-8C143,255.1,142.9,255.1,142.8,255.1"/>
	</defs>
	<clipPath id="SVGID_79_">
		<use xlink:href="#SVGID_78_"  style="overflow:visible;"/>
	</clipPath>
	<g class="st46">
		
			<image style="overflow:visible;enable-background:new    ;" width="130" height="69" xlink:href="CD6B6DDC.png"  transform="matrix(0.4726 0 0 -0.473 90 287)">
		</image>
	</g>
</g>
<g>
	<defs>
		<path id="SVGID_80_" d="M101.5,314.4c-2.9,0-5.2,2.3-5.2,5.2c0,2.9,2.3,5.2,5.2,5.2s5.2-2.3,5.2-5.2c0,0,0,0,0,0
			C106.7,316.7,104.4,314.4,101.5,314.4C101.5,314.4,101.5,314.4,101.5,314.4"/>
	</defs>
	<clipPath id="SVGID_81_">
		<use xlink:href="#SVGID_80_"  style="overflow:visible;"/>
	</clipPath>
	<g class="st47">
		
			<image style="overflow:visible;enable-background:new    ;" width="25" height="24" xlink:href="CD6B6DDE.png"  transform="matrix(0.4608 0 0 -0.48 95.76 325.4)">
		</image>
	</g>
</g>
<g>
	<defs>
		<path id="SVGID_82_" d="M238.4,327.8c-2,0-3.6,1.6-3.6,3.6c0,2,1.6,3.6,3.6,3.6c2,0,3.6-1.6,3.6-3.6l0,0
			C242,329.4,240.4,327.8,238.4,327.8C238.4,327.8,238.4,327.8,238.4,327.8"/>
	</defs>
	<clipPath id="SVGID_83_">
		<use xlink:href="#SVGID_82_"  style="overflow:visible;"/>
	</clipPath>
	<g class="st48">
		
			<image style="overflow:visible;enable-background:new    ;" width="19" height="19" xlink:href="CD6B6E39.png"  transform="matrix(0.4547 0 0 -0.4547 234 335.96)">
		</image>
	</g>
</g>
<g>
	<defs>
		<path id="SVGID_84_" d="M217.6,295.6c-2,0-3.6,1.6-3.6,3.6c0,2,1.6,3.6,3.6,3.6c2,0,3.6-1.6,3.6-3.6l0,0
			C221.2,297.2,219.6,295.6,217.6,295.6"/>
	</defs>
	<clipPath id="SVGID_85_">
		<use xlink:href="#SVGID_84_"  style="overflow:visible;"/>
	</clipPath>
	<g class="st49">
		<g transform="matrix(0.48, 0, 0, -0.48, 213.36, 303.32)">
			
				<image style="overflow:visible;enable-background:new    ;" width="20" height="18" id="image-2" xlink:href="CD6B6E3B.png"  transform="matrix(0.432 0 0 -0.48 213.36 303.32)">
			</image>
		</g>
	</g>
</g>
<g>
	<defs>
		<path id="SVGID_86_" d="M217.6,327.8c-2,0-3.6,1.6-3.6,3.6c0,2,1.6,3.6,3.6,3.6c2,0,3.6-1.6,3.6-3.6l0,0
			C221.2,329.4,219.6,327.8,217.6,327.8"/>
	</defs>
	<clipPath id="SVGID_87_">
		<use xlink:href="#SVGID_86_"  style="overflow:visible;"/>
	</clipPath>
	<g class="st50">
		<g transform="matrix(0.48, 0, 0, -0.48, 213.36, 335.96)">
			
				<image style="overflow:visible;enable-background:new    ;" width="20" height="19" id="image-4" xlink:href="CD6B6E38.png"  transform="matrix(0.432 0 0 -0.4547 213.36 335.96)">
			</image>
		</g>
	</g>
</g>
<g>
	<defs>
		<path id="SVGID_88_" d="M217.6,311.7c-2,0-3.6,1.6-3.6,3.6c0,2,1.6,3.6,3.6,3.6c2,0,3.6-1.6,3.6-3.6l0,0
			C221.2,313.3,219.6,311.7,217.6,311.7"/>
	</defs>
	<clipPath id="SVGID_89_">
		<use xlink:href="#SVGID_88_"  style="overflow:visible;"/>
	</clipPath>
	<g class="st51">
		<g transform="matrix(0.48, 0, 0, -0.48, 213.36, 319.64)">
			
				<image style="overflow:visible;enable-background:new    ;" width="20" height="18" id="image-3" xlink:href="CD6B6E3F.png"  transform="matrix(0.432 0 0 -0.48 213.36 319.64)">
			</image>
		</g>
	</g>
</g>
<g>
	<defs>
		<path id="SVGID_90_" d="M238.4,311.7c-2,0-3.6,1.6-3.6,3.6c0,2,1.6,3.6,3.6,3.6c2,0,3.6-1.6,3.6-3.6l0,0
			C242,313.3,240.3,311.7,238.4,311.7"/>
	</defs>
	<clipPath id="SVGID_91_">
		<use xlink:href="#SVGID_90_"  style="overflow:visible;"/>
	</clipPath>
	<g class="st52">
		
			<image style="overflow:visible;enable-background:new    ;" width="19" height="18" xlink:href="CD6B6E3A.png"  transform="matrix(0.4547 0 0 -0.48 234 319.64)">
		</image>
	</g>
</g>
<g>
	<defs>
		<path id="SVGID_92_" d="M259.1,295.6c-2,0-3.6,1.6-3.6,3.6c0,2,1.6,3.6,3.6,3.6s3.6-1.6,3.6-3.6l0,0
			C262.7,297.2,261.1,295.6,259.1,295.6"/>
	</defs>
	<clipPath id="SVGID_93_">
		<use xlink:href="#SVGID_92_"  style="overflow:visible;"/>
	</clipPath>
	<g class="st53">
		<g transform="matrix(0.48, 0, 0, -0.48, 254.64, 303.32)">
			
				<image style="overflow:visible;enable-background:new    ;" width="20" height="18" id="image-2_2_" xlink:href="CD6B6E26.png"  transform="matrix(0.432 0 0 -0.48 254.64 303.32)">
			</image>
		</g>
	</g>
</g>
<g>
	<defs>
		<path id="SVGID_94_" d="M259.1,311.7c-2,0-3.6,1.6-3.6,3.6c0,2,1.6,3.6,3.6,3.6s3.6-1.6,3.6-3.6l0,0
			C262.7,313.3,261.1,311.7,259.1,311.7"/>
	</defs>
	<clipPath id="SVGID_95_">
		<use xlink:href="#SVGID_94_"  style="overflow:visible;"/>
	</clipPath>
	<g class="st54">
		<g transform="matrix(0.48, 0, 0, -0.48, 254.64, 319.64)">
			
				<image style="overflow:visible;enable-background:new    ;" width="20" height="18" id="image-3_2_" xlink:href="CD6B6E27.png"  transform="matrix(0.432 0 0 -0.48 254.64 319.64)">
			</image>
		</g>
	</g>
</g>
<g>
	<defs>
		<path id="SVGID_96_" d="M259.1,327.8c-2,0-3.6,1.6-3.6,3.6c0,2,1.6,3.6,3.6,3.6s3.6-1.6,3.6-3.6l0,0
			C262.7,329.4,261.1,327.8,259.1,327.8"/>
	</defs>
	<clipPath id="SVGID_97_">
		<use xlink:href="#SVGID_96_"  style="overflow:visible;"/>
	</clipPath>
	<g class="st55">
		<g transform="matrix(0.48, 0, 0, -0.48, 254.64, 335.96)">
			
				<image style="overflow:visible;enable-background:new    ;" width="20" height="19" id="image-4_2_" xlink:href="CD6B6E37.png"  transform="matrix(0.432 0 0 -0.4547 254.64 335.96)">
			</image>
		</g>
	</g>
</g>
<g>
	<defs>
		<path id="SVGID_98_" d="M238.4,295.6c-2,0-3.6,1.7-3.6,3.6c0,2,1.7,3.6,3.6,3.6c2,0,3.6-1.6,3.6-3.6
			C242,297.2,240.4,295.6,238.4,295.6"/>
	</defs>
	<clipPath id="SVGID_99_">
		<use xlink:href="#SVGID_98_"  style="overflow:visible;"/>
	</clipPath>
	<g class="st56">
		
			<image style="overflow:visible;enable-background:new    ;" width="19" height="18" xlink:href="CD6B6E29.png"  transform="matrix(0.4547 0 0 -0.48 234 303.32)">
		</image>
	</g>
</g>
<g>
	<defs>
		<path id="SVGID_100_" d="M238.4,360.1c-2,0-3.6,1.6-3.6,3.6s1.6,3.6,3.6,3.6s3.6-1.6,3.6-3.6c0-1.3-0.7-2.5-1.8-3.1
			C239.6,360.2,239,360.1,238.4,360.1"/>
	</defs>
	<clipPath id="SVGID_101_">
		<use xlink:href="#SVGID_100_"  style="overflow:visible;"/>
	</clipPath>
	<g class="st57">
		<g transform="matrix(0.48, 0, 0, -0.48, 234, 368.12)">
			
				<image style="overflow:visible;enable-background:new    ;" width="19" height="19" id="image-5" xlink:href="CD6B6E2B.png"  transform="matrix(0.4547 0 0 -0.4547 234 368.12)">
			</image>
		</g>
	</g>
</g>
<g>
	<defs>
		<path id="SVGID_102_" d="M238.4,343.9c-2,0-3.6,1.6-3.6,3.6s1.6,3.6,3.6,3.6c2,0,3.6-1.6,3.6-3.6c0-0.4-0.1-0.8-0.2-1.2
			C241.3,344.9,239.9,343.9,238.4,343.9"/>
	</defs>
	<clipPath id="SVGID_103_">
		<use xlink:href="#SVGID_102_"  style="overflow:visible;"/>
	</clipPath>
	<g class="st58">
		<g transform="matrix(0.48, 0, 0, -0.48, 234, 351.8)">
			
				<image style="overflow:visible;enable-background:new    ;" width="19" height="19" id="image-5_2_" xlink:href="CD6B6E04.png"  transform="matrix(0.4547 0 0 -0.4547 234 351.8)">
			</image>
		</g>
	</g>
</g>
<g>
	<defs>
		<path id="SVGID_104_" d="M217.6,343.9c-2,0-3.6,1.6-3.6,3.6c0,2,1.6,3.6,3.6,3.6c2,0,3.6-1.6,3.6-3.6l0,0
			C221.2,345.6,219.6,343.9,217.6,343.9"/>
	</defs>
	<clipPath id="SVGID_105_">
		<use xlink:href="#SVGID_104_"  style="overflow:visible;"/>
	</clipPath>
	<g class="st59">
		<g transform="matrix(0.48, 0, 0, -0.48, 213.36, 351.8)">
			
				<image style="overflow:visible;enable-background:new    ;" width="20" height="19" id="image-6" xlink:href="CD6B6E03.png"  transform="matrix(0.432 0 0 -0.4547 213.36 351.8)">
			</image>
		</g>
	</g>
</g>
<g>
	<defs>
		<path id="SVGID_106_" d="M217.6,360.1c-2,0-3.6,1.6-3.6,3.6c0,2,1.6,3.6,3.6,3.6s3.6-1.6,3.6-3.6c0-1.3-0.7-2.6-1.9-3.2
			C218.8,360.2,218.2,360.1,217.6,360.1"/>
	</defs>
	<clipPath id="SVGID_107_">
		<use xlink:href="#SVGID_106_"  style="overflow:visible;"/>
	</clipPath>
	<g class="st60">
		<g transform="matrix(0.48, 0, 0, -0.48, 213.36, 368.12)">
			
				<image style="overflow:visible;enable-background:new    ;" width="20" height="19" id="image-6_2_" xlink:href="CD6B6E0C.png"  transform="matrix(0.432 0 0 -0.4547 213.36 368.12)">
			</image>
		</g>
	</g>
</g>
<g>
	<defs>
		<path id="SVGID_108_" d="M259.1,360.1c-2,0-3.6,1.6-3.6,3.6s1.6,3.6,3.6,3.6c2,0,3.6-1.6,3.7-3.6c0-1.8-1.3-3.4-3.1-3.6
			C259.5,360.1,259.3,360.1,259.1,360.1"/>
	</defs>
	<clipPath id="SVGID_109_">
		<use xlink:href="#SVGID_108_"  style="overflow:visible;"/>
	</clipPath>
	<g class="st61">
		<g transform="matrix(0.48, 0, 0, -0.48, 254.64, 368.12)">
			
				<image style="overflow:visible;enable-background:new    ;" width="20" height="19" id="image-6_3_" xlink:href="CD6B6E0F.png"  transform="matrix(0.432 0 0 -0.4547 254.64 368.12)">
			</image>
		</g>
	</g>
</g>
<g>
	<defs>
		<path id="SVGID_110_" d="M259.1,343.9c-2,0-3.6,1.6-3.6,3.6c0,2,1.6,3.6,3.6,3.6s3.6-1.6,3.6-3.6l0,0
			C262.7,345.6,261.1,343.9,259.1,343.9"/>
	</defs>
	<clipPath id="SVGID_111_">
		<use xlink:href="#SVGID_110_"  style="overflow:visible;"/>
	</clipPath>
	<g class="st62">
		<g transform="matrix(0.48, 0, 0, -0.48, 254.64, 351.8)">
			
				<image style="overflow:visible;enable-background:new    ;" width="20" height="19" id="image-6_4_" xlink:href="CD6B6E0D.png"  transform="matrix(0.432 0 0 -0.4547 254.64 351.8)">
			</image>
		</g>
	</g>
</g>
<g>
	<defs>
		<path id="SVGID_112_" d="M155.3,360.1c-2,0-3.6,1.6-3.6,3.6c0,2,1.6,3.6,3.6,3.6s3.6-1.6,3.6-3.6c0-1.4-0.8-2.7-2.2-3.3
			C156.3,360.2,155.8,360.1,155.3,360.1"/>
	</defs>
	<clipPath id="SVGID_113_">
		<use xlink:href="#SVGID_112_"  style="overflow:visible;"/>
	</clipPath>
	<g class="st63">
		<g transform="matrix(0.48, 0, 0, -0.48, 150.96, 368.12)">
			
				<image style="overflow:visible;enable-background:new    ;" width="20" height="19" id="image-6_5_" xlink:href="CD6B6E02.png"  transform="matrix(0.432 0 0 -0.4547 150.96 368.12)">
			</image>
		</g>
	</g>
</g>
<g>
	<defs>
		<path id="SVGID_114_" d="M155.3,343.9c-2,0-3.6,1.6-3.6,3.6c0,2,1.6,3.6,3.6,3.6c2,0,3.6-1.6,3.6-3.6l0,0
			C158.9,345.6,157.3,343.9,155.3,343.9"/>
	</defs>
	<clipPath id="SVGID_115_">
		<use xlink:href="#SVGID_114_"  style="overflow:visible;"/>
	</clipPath>
	<g class="st64">
		<g transform="matrix(0.48, 0, 0, -0.48, 150.96, 351.8)">
			
				<image style="overflow:visible;enable-background:new    ;" width="20" height="19" id="image-6_6_" xlink:href="CD6B6E05.png"  transform="matrix(0.432 0 0 -0.4547 150.96 351.8)">
			</image>
		</g>
	</g>
</g>
<g>
	<defs>
		<path id="SVGID_116_" d="M176,343.9c-2,0-3.6,1.6-3.6,3.6c0,2,1.6,3.6,3.6,3.6c2,0,3.6-1.6,3.6-3.6l0,0
			C179.6,345.6,178,343.9,176,343.9"/>
	</defs>
	<clipPath id="SVGID_117_">
		<use xlink:href="#SVGID_116_"  style="overflow:visible;"/>
	</clipPath>
	<g class="st65">
		<g transform="matrix(0.48, 0, 0, -0.48, 171.6, 351.8)">
			
				<image style="overflow:visible;enable-background:new    ;" width="20" height="19" id="image-6_7_" xlink:href="CD6B6E07.png"  transform="matrix(0.432 0 0 -0.4547 171.6 351.8)">
			</image>
		</g>
	</g>
</g>
<g>
	<defs>
		<path id="SVGID_118_" d="M196.8,360.1c-2,0-3.6,1.6-3.6,3.6c0,2,1.6,3.6,3.6,3.6c2,0,3.6-1.6,3.6-3.6c0-1.4-0.8-2.6-2-3.2
			C197.9,360.2,197.4,360.1,196.8,360.1"/>
	</defs>
	<clipPath id="SVGID_119_">
		<use xlink:href="#SVGID_118_"  style="overflow:visible;"/>
	</clipPath>
	<g class="st66">
		<g transform="matrix(0.48, 0, 0, -0.48, 192.24, 368.12)">
			
				<image style="overflow:visible;enable-background:new    ;" width="21" height="19" id="image-7" xlink:href="CD6B6E00.png"  transform="matrix(0.4343 0 0 -0.4547 192.24 368.12)">
			</image>
		</g>
	</g>
</g>
<g>
	<defs>
		<path id="SVGID_120_" d="M196.8,343.9c-2,0-3.6,1.6-3.6,3.6c0,2,1.6,3.6,3.6,3.6c2,0,3.6-1.6,3.6-3.6l0,0
			C200.4,345.6,198.8,343.9,196.8,343.9"/>
	</defs>
	<clipPath id="SVGID_121_">
		<use xlink:href="#SVGID_120_"  style="overflow:visible;"/>
	</clipPath>
	<g class="st67">
		<g transform="matrix(0.48, 0, 0, -0.48, 192.24, 351.8)">
			
				<image style="overflow:visible;enable-background:new    ;" width="21" height="19" id="image-7_2_" xlink:href="CD6B6E01.png"  transform="matrix(0.4343 0 0 -0.4547 192.24 351.8)">
			</image>
		</g>
	</g>
</g>
<g>
	<defs>
		<path id="SVGID_122_" d="M176,360.1c-2,0-3.6,1.6-3.6,3.6c0,2,1.6,3.6,3.6,3.6s3.6-1.6,3.6-3.6c0-0.7-0.2-1.4-0.6-2
			C178.3,360.7,177.2,360.1,176,360.1"/>
	</defs>
	<clipPath id="SVGID_123_">
		<use xlink:href="#SVGID_122_"  style="overflow:visible;"/>
	</clipPath>
	<g class="st68">
		<g transform="matrix(0.48, 0, 0, -0.48, 171.6, 368.12)">
			
				<image style="overflow:visible;enable-background:new    ;" width="20" height="19" id="image-6_8_" xlink:href="CD6B6E67.png"  transform="matrix(0.432 0 0 -0.4547 171.6 368.12)">
			</image>
		</g>
	</g>
</g>
<ellipse class="st69" cx="223.9" cy="377.6" rx="204.2" ry="8"/>
<rect x="148" y="280.8" class="st70" width="9.3" height="88.9"/>
<rect x="148" y="280.8" class="st71" width="9.3" height="12.5"/>
<path class="st70" d="M196.1,369.7h-84c-1.3,0-2.3,1.1-2.3,2.4l0,0v5.8h88.7V372C198.4,370.7,197.3,369.7,196.1,369.7z"/>
<path class="st70" d="M130.6,280.9H195c-23.4-8.4-14.4-87.7-10-117.7c0.8-5.5-3-10.5-8.4-11.4c-0.5-0.1-1.1-0.1-1.6-0.1h-42.9
	c-8.8,0-16.2,6.5-17.4,15.2c-3.8,27.3-9.7,83.9,2.1,105.8C119.5,277.7,124.8,280.9,130.6,280.9z"/>
<circle class="st72" cx="94.9" cy="60.2" r="45.1"/>
<circle class="st73" cx="94.9" cy="60.2" r="36.9"/>
<path class="st72" d="M84.5,72.7c-1.3,0-2.3-1-2.3-2.3c0-0.6,0.2-1.2,0.7-1.6l9.6-9.6V34c-0.2-1.3,0.7-2.4,1.9-2.6s2.4,0.7,2.6,1.9
	c0,0.2,0,0.5,0,0.7v26.2c0,0.6-0.2,1.2-0.7,1.6L86.1,72.1C85.7,72.5,85.1,72.7,84.5,72.7z"/>
<circle class="st74" cx="94.5" cy="59.5" r="5.3"/>
<path class="st75" d="M351.9,102.2h-77c-3.9,0-7.1,3.2-7.1,7.2V144c0,3.9,3.2,7.1,7.1,7.1h5.4v8.4c0,0.7,0.6,1.3,1.4,1.3
	c0.3,0,0.6-0.1,0.9-0.3l10.4-9.4h59c3.9,0,7.1-3.2,7.1-7.1v-34.7C359.1,105.4,355.9,102.2,351.9,102.2
	C351.9,102.2,351.9,102.2,351.9,102.2z"/>
<circle class="st76" cx="294.7" cy="127.2" r="3.1"/>
<circle class="st76" cx="314" cy="127.2" r="3.1"/>
<circle class="st76" cx="332.1" cy="127.2" r="3.1"/>
<path class="st77" d="M99.7,195.4c0-8.5-6-17-13.4-17s-13.4,8.5-13.4,17s6,15.4,13.4,15.4S99.7,203.9,99.7,195.4z"/>
<path class="st78" d="M86.3,178.4c-1.2,0-2.3,0.2-3.4,0.6c5.7,2.1,10,9.2,10,16.4s-4.2,13.1-10,14.9c1.1,0.3,2.3,0.5,3.4,0.5
	c7.4,0,13.4-6.9,13.4-15.4S93.7,178.4,86.3,178.4z"/>
<path class="st73" d="M71.1,205.4l2.4,21.7c0.3,2.7,2.6,4.8,5.3,4.8h13.8c2.8,0,5.1-2.1,5.4-4.8l2.4-21.7c0.1-1.1-0.7-2.1-1.8-2.2
	c-0.1,0-0.2,0-0.2,0H73c-1.1,0-2,0.9-2,2C71,205.3,71.1,205.4,71.1,205.4z"/>
<path class="st70" d="M73,206.5h25.4c0.7,0,1.4,0.4,1.8,1.1l0.2-2.1c0.1-1.1-0.7-2.1-1.8-2.2c-0.1,0-0.2,0-0.2,0H73
	c-1.1,0-2,0.9-2,2c0,0.1,0,0.2,0,0.2l0.2,2.1C71.6,206.9,72.3,206.5,73,206.5z"/>
<path class="st70" d="M98.4,203.2h-8.8c1.1,0,2,0.9,2,2c0,0.1,0,0.2,0,0.2l-2.4,21.7c-0.3,2.7-2.6,4.8-5.3,4.8h8.8
	c2.8,0,5.1-2.1,5.3-4.8l2.4-21.7c0.1-1.1-0.7-2.1-1.8-2.2C98.5,203.2,98.5,203.2,98.4,203.2z"/>
<polygon class="st79" points="209.4,356.5 208.5,362.8 213.3,368.9 225.4,363 226.7,357.2 211.6,355 "/>
<path class="st74" d="M219.2,376.7l1.3-1.5c0.2-0.2,0.6-0.3,0.8-0.1c0,0,0.1,0.1,0.1,0.1l1.3,1.5c0.5,0.6,1.2,0.9,2,0.9l28.2-0.5
	c0.6-0.6,0.6-1.5,0-2.1c-4.1-4.2-26.4-11.4-27.4-12s-7.9,4.7-16.9-0.2c-0.8,3.8-1.4,7.7-1.7,11.6c-0.1,1.8,1.3,3.3,3,3.4
	c0.1,0,0.1,0,0.2,0l7.1-0.1C217.9,377.7,218.7,377.3,219.2,376.7z"/>
<path class="st74" d="M157.7,250.4c0,0-11.7,12.9,9.7,27c15,9.9,26.9,6.9,36.3,12.8c2.2,1.3,3.7,3.5,4,6.1l0.5,60.4l1.1,0.6
	c5.7,2.8,12.3,2.9,18.1,0.2l8.5-69c0.3-4.8-2.3-8.8-5.2-12.5c-16.4-20.8-45.4-27.9-52.7-29.1C168.5,245.3,157.7,250.4,157.7,250.4z"
	/>
<polygon class="st79" points="162.8,356.5 161.8,362.8 166.5,369 178.7,363.2 180.1,357.5 165.1,355 "/>
<path class="st74" d="M172.3,376.9l1.3-1.5c0.2-0.2,0.6-0.3,0.8-0.1c0,0,0.1,0.1,0.1,0.1l1.2,1.5c0.5,0.6,1.2,0.9,2,1l28.2-0.1
	c0.6-0.6,0.6-1.5,0.1-2.1c-4.1-4.2-26.2-11.7-27.3-12.4s-8,4.6-16.9-0.4c-0.8,3.8-1.5,7.7-1.8,11.6c-0.1,1.8,1.2,3.3,3,3.4
	c0.1,0,0.1,0,0.2,0h7.1C171.1,377.8,171.8,377.5,172.3,376.9z"/>
<path class="st74" d="M122.2,239.1c0,0-14.2,15.8,6.3,33.6c14.4,12.5,27.3,7.2,36.3,14.8c2.2,1.6,3.5,4.3,3.4,7l-6.5,61.5l0.5,0.3
	c5.7,3.7,12.8,4.2,18.9,1.3l16-64.8c1-5-1.1-9.5-3.7-13.9c-14.2-24.2-36.6-38.7-44.1-41C139.6,234.9,122.2,239.1,122.2,239.1z"/>
<path class="st5" d="M200.3,288.4c-1.1-0.5-2.2-0.8-3.3-1.1c-0.7-3-2-5.8-3.6-8.4c-6.4-10.8-14.7-20.5-24.4-28.5
	c5.1-0.9,7.8-2,9.2-3.4c5.2,1,10.4,2.4,15.4,4.2C200.6,262.8,200.6,281.7,200.3,288.4z"/>
<path class="st73" d="M160.3,155.5c0,0-20.4-2.7-28.9,13.2s-21.2,78.4-10.1,80.3c4.9,0.8,18,4.1,32.5,3.1c20-1.5,24.3-3.3,25.7-7.1
	l12.7-58.2c0.3-8-3.3-15.7-9.6-20.5C175.9,161.4,168.3,157.7,160.3,155.5z"/>
<path class="st70" d="M192.2,181.6c0,0,0.3,35,11.3,37.2s40.4,1.5,40.4,1.5v11.1h-62.9L192.2,181.6z"/>
<path class="st80" d="M176.9,165.8l2.5-12.4l-16.1-12.2l-3.1,14.6C160.3,155.7,165.3,178,176.9,165.8z"/>
<path class="st74" d="M197.4,129.7c0,0-8.4,4.1-20.7-3.4c0,0-2.9,5.1-11.1,9.7c0,0-4.3-7.2-6.8-1.8c-0.7,1.4-1.1,2.9-1.1,4.4
	c-7.7-10-2.3-23.2,4.9-30.2c6.8-6.7,21.6-4.1,30.9-0.3c9.8,3.9,11.6-2.9,11.6-2.9C217.5,122.6,197.4,129.7,197.4,129.7z"/>
<path class="st79" d="M165.6,136c0,0-4.3-7.2-6.8-1.8c-3,6.5,0.4,10.6,4.4,10.6c0,0,3.2,17,18.8,15.8s17.9-26.3,15.3-30.9
	c0,0-8.4,4.1-20.7-3.4C176.7,126.3,173.9,131.5,165.6,136z"/>
<path class="st73" d="M301,175.8h-65.2c-3.2,0-6,2.3-6.6,5.4l-8.7,42.6h79l8.1-39.8c0.7-3.7-1.6-7.2-5.3-8
	C301.9,175.9,301.4,175.8,301,175.8z"/>
<path class="st81" d="M189.7,223.8h111.4c0.8,0,1.4,0.6,1.4,1.4v4.7c0,0.8-0.6,1.4-1.4,1.4H189.7c-0.8,0-1.4-0.6-1.4-1.4v-4.7
	C188.3,224.4,188.9,223.8,189.7,223.8z"/>
<path class="st70" d="M299.2,223.8h-79.6c1.8,0,3.2,1.4,3.2,3.2l0,0v1c0,1.8-1.4,3.2-3.2,3.2l0,0h79.6c1.8,0,3.2-1.4,3.2-3.2l0,0v-1
	C302.5,225.2,301,223.8,299.2,223.8C299.2,223.8,299.2,223.8,299.2,223.8z"/>
<path class="st73" d="M195,221.5c-12.7-1.5-48.3-5.1-54.4-5.7c-7.7-0.8,9-31.9,10.9-42.5s-6.2-11-6.2-11c-4.6-0.6-9.6,0-13.8,6.4
	c-8.7,13.2-18.4,51.7-13.3,61.2c0.6,1.1,1.7,1.8,3,1.8H195V221.5z"/>
<path class="st70" d="M195,221.5c0,0-45.9-3.2-55.7-4.5c-7.7-1,8.3-32.8,10.2-43.5s-6.4-10.2-6.4-10.2c-2.4-0.2-4.8,0-7.2,0.7
	c2.8-1.7,6.1-2.4,9.3-1.8c0,0,8.1,0.4,6.2,11s-16.2,41-11.4,42.2C146,217,182.3,220,195,221.5z"/>
<path class="st79" d="M195,231.8h17.1c0.9,0,1.6-0.7,1.6-1.6c0-0.3-0.1-0.6-0.3-0.9c-1.6-2.5-4.1-5.9-6-6.5c-1.1-0.4-9.4,0-12.5,0.3
	L195,231.8z"/>
<path class="st82" d="M197.4,129.7c-1.2,0.5-2.5,0.9-3.9,1c-0.2,1.2-0.6,3.4-0.8,5.5c-0.3,3,1.2,12.3,0.3,12.4c-1,0-1.9,0-2.9-0.1
	c0,0-1.4,13.5-14.9,11.3l-0.4-0.1c2.3,0.8,4.7,1.1,7.2,0.9C197.7,159.5,200,134.4,197.4,129.7z"/>
<path class="st77" d="M393.5,325.4c0,0,21.5-10.7,15.6-26.8s-9.5-16.8,1.7-26s27.3-32,6.9-33.7s-19.4,25.4-36.4,29.2
	S355,343.1,393.5,325.4z"/>
<path class="st78" d="M376.6,327c4.1,1.9,9.7,1.7,16.9-1.6c0,0,21.5-10.7,15.6-26.8s-9.5-16.8,1.7-26s27.3-32,6.9-33.7
	c-1.8-0.2-3.7-0.1-5.5,0.3c5.8,2.4,11.5,7.1,4.1,15.9c-12.4,14.7-18.9,19.9-17.5,29.3C400.3,293.6,399.5,314.6,376.6,327z"/>
<path class="st77" d="M357.1,324.9c0,0-18.9-0.7-17.9-14.3s1.6-14.1-10.3-18.4c-21-7.6-4.4-47.8,12.7-22.5
	c11.9,17.6,17,13.6,24.8,15S390.9,330.9,357.1,324.9z"/>
<path class="st83" d="M366.4,284.7c-7.7-1.4-12.9,2.6-24.8-15c-8.9-13.3-17.7-8.5-21.1,0.1c5-1.5,12.7-2.5,13.6,5.7
	c1.2,10.6,26.1,28.1,25.6,49.8l1,0.1c3.6-9.5,8.4-21.9,12.5-32.4C371,288.4,368.4,285.1,366.4,284.7z"/>
<path class="st76" d="M361.5,324.3c0,0-23.5-22.9-15.5-26.8s23.7,8.8,15-4.9s-19-35-6.9-31.6s13,7,11.5-8.9
	c-1.9-20.6,9.5-31.2,20.4-24.5s-9.3,52.1-1.8,47.2s13.7-9,15.2-3.1s-21.5,29.2-13,25.3c10.6-4.9,12.1,3.9,8.8,9.3
	S378,343.9,361.5,324.3z"/>
<path class="st84" d="M395.2,306.3c3.4-5.4,1.8-14.2-8.8-9.3c-8.5,4,14.4-19.3,12.9-25.3s-7.7-1.8-15.2,3.1s12.6-40.5,1.8-47.2
	c-5-3.1-10.2-2.4-14.1,1.2c5.6,1.4,10.1,5.9,7,18.1c-6.6,25.8-10.6,47.3,1.4,41c11.3-5.9-13.2,21.4-13.4,41.1
	C380.9,337,392.3,311.1,395.2,306.3z"/>
<path class="st73" d="M345.2,327l4.5,41.1c0.6,5.1,4.9,9,10.1,9H386c5.2,0,9.5-3.9,10.1-9l4.6-41.1c0.2-2.1-1.3-3.9-3.3-4.2
	c-0.1,0-0.3,0-0.4,0H349c-2.1,0-3.8,1.7-3.8,3.7C345.2,326.7,345.2,326.9,345.2,327z"/>
<path class="st70" d="M396.9,322.8h-16.6c2.1,0,3.8,1.7,3.7,3.8c0,0.1,0,0.2,0,0.4l-4.5,41.1c-0.6,5.1-4.9,9-10.1,9H386
	c5.2,0,9.5-3.9,10.1-9l4.6-41.1c0.2-2.1-1.3-3.9-3.4-4.2C397.2,322.8,397,322.8,396.9,322.8z"/>
<path class="st72" d="M61.8,231.7h287.4c1.4,0,2.5,1.1,2.5,2.5v8.3c0,1.4-1.1,2.5-2.5,2.5H61.8c-1.4,0-2.5-1.1-2.5-2.5v-8.3
	C59.3,232.8,60.4,231.7,61.8,231.7z"/>
<path class="st85" d="M345.9,231.7H65c-3.2,0-5.7,2.6-5.7,5.7l0,0v1.9c0,0.6,0.1,1.2,0.3,1.7c0.7-2.4,2.9-4,5.4-4h281
	c2.5,0,4.7,1.6,5.4,4c0.2-0.6,0.3-1.1,0.3-1.7v-1.9C351.7,234.2,349.2,231.7,345.9,231.7C346,231.7,346,231.7,345.9,231.7z"/>
<polygon class="st76" points="153.8,377.3 144.4,377.3 79.1,245 88.4,245 "/>
<polygon class="st76" points="50.4,377.3 59.8,377.3 125.1,245 115.7,245 "/>
<polygon class="st76" points="356,377.3 346.6,377.3 281.3,245 290.7,245 "/>
<polygon class="st76" points="252.7,377.3 262,377.3 327.4,245 318,245 "/>
<polygon class="st86" points="91,250.3 88.4,245 79.1,245 81.7,250.3 "/>
<polygon class="st86" points="122.5,250.3 125.1,245 115.7,245 113.1,250.3 "/>
<polygon class="st86" points="293.3,250.3 290.7,245 281.3,245 283.9,250.3 "/>
<polygon class="st86" points="324.8,250.3 327.4,245 318,245 315.4,250.3 "/>
</svg>
