<svg xmlns="http://www.w3.org/2000/svg" viewBox="0 0 18.48 18.5"><defs><style>.cls-1{fill:#ff6d22;}</style></defs><title>fb-icon-footer</title><g id="Layer_2" data-name="Layer 2"><g id="Layer_1-2" data-name="Layer 1"><path class="cls-1" d="M0,0H18.48V18.49H13c-.14,0-.18,0-.18-.18q0-3.39,0-6.77c0-.14,0-.18.18-.18h2c.12,0,.19,0,.21-.17.08-.7.18-1.4.27-2.1,0-.17,0-.33.07-.5s0-.19-.16-.19H13c-.14,0-.19,0-.18-.18,0-.63,0-1.27,0-1.9a1,1,0,0,1,1-.94h1.62c.14,0,.2,0,.19-.19,0-.77,0-1.55,0-2.32,0-.12,0-.17-.17-.17-.88,0-1.76,0-2.64,0A3.11,3.11,0,0,0,10.19,4.5a3.32,3.32,0,0,0-.36,1.61c0,.7,0,1.41,0,2.11,0,.15,0,.2-.2.2h-2c-.14,0-.17,0-.17.17q0,1.31,0,2.61c0,.14,0,.18.18.18h2c.14,0,.18,0,.18.18q0,3.39,0,6.79c0,.14,0,.17-.17.17H0Z"/></g></g></svg>