<svg xmlns="http://www.w3.org/2000/svg" viewBox="0 0 17.82 17.82"><defs><style>.cls-1{fill:#ff6d22;}</style></defs><title>linkedin-icon-footer</title><g id="Layer_2" data-name="Layer 2"><g id="Layer_1-2" data-name="Layer 1"><path class="cls-1" d="M16.4,17.82h-15a4.19,4.19,0,0,1-1-.58A3.49,3.49,0,0,1,0,16.32Q0,8.91,0,1.5A4.16,4.16,0,0,1,.56.5,3.45,3.45,0,0,1,1.5,0H16.32l.29.11a1.51,1.51,0,0,1,1.11,1.11c0,.1.07.19.11.28V16.32a5.29,5.29,0,0,1-.59,1A2.92,2.92,0,0,1,16.4,17.82ZM9.87,7.48c0-.12,0-.17,0-.22,0-.63-.18-.78-.82-.79H7.48c-.52,0-.7.18-.7.68q0,4,0,8.07c0,.49.16.66.66.68s1.06,0,1.58,0,.81-.16.81-.82c0-1.4,0-2.8,0-4.19a3.09,3.09,0,0,1,.37-1.26A1.28,1.28,0,0,1,11.6,9a1.23,1.23,0,0,1,1.13,1,3.56,3.56,0,0,1,.14.89c0,1.46,0,2.93,0,4.39,0,.5.16.68.65.69s1.21,0,1.82,0,.67-.2.66-.69c0-1.81,0-3.61-.09-5.42a3.88,3.88,0,0,0-.82-2.38c-.93-1.12-2.18-1.14-3.47-1A2.62,2.62,0,0,0,9.87,7.48Zm-4.3,3.73c0-1.34,0-2.69,0-4,0-.47-.2-.68-.67-.69s-1.16,0-1.74,0a.59.59,0,0,0-.65.68q0,4,0,8.07c0,.48.19.67.67.69s1.11,0,1.66,0,.72-.19.72-.75Q5.57,13.19,5.57,11.21ZM6,3.88A1.93,1.93,0,1,0,4.05,5.81,1.92,1.92,0,0,0,6,3.88Z"/></g></g></svg>