<svg xmlns="http://www.w3.org/2000/svg" viewBox="0 0 140.97 31.77"><defs><style>.cls-1{fill:#005baa;}.cls-2{fill:#fff;}</style></defs><title>logo</title><g id="Layer_2" data-name="Layer 2"><g id="Layer_1-2" data-name="Layer 1"><rect class="cls-1" width="31" height="31"/><path class="cls-2" d="M8.12,24.85l-2.9,6.59H0l12.76-29H18l12.76,29H25.52l-2.9-6.59Zm12.51-4.52L15.37,8.41,10.11,20.34Z"/><path class="cls-2" d="M57.57,5q3,2.53,3,7.79T57.51,20.5Q54.42,22.95,48,22.95H42.91v8.49H38v-29H48Q54.55,2.48,57.57,5ZM54.11,17a6.39,6.39,0,0,0,1.47-4.56q0-3-1.86-4.25T47.88,6.91h-5v11.6h5.68Q52.64,18.51,54.11,17Z"/><path class="cls-2" d="M66.36,31.44v-29h4.89V26.8H84.46v4.64Z"/><path class="cls-2" d="M95.6,24.81a7.41,7.41,0,0,0,10.77,0,9.35,9.35,0,0,0,2-6.3v-16h4.89V18.72q0,6.26-3.44,9.63a13.22,13.22,0,0,1-17.65,0Q88.73,25,88.73,18.72V2.48h4.89v16A9.35,9.35,0,0,0,95.6,24.81Z"/><path class="cls-2" d="M129.68,6.29a6.42,6.42,0,0,0-3.5.87,2.91,2.91,0,0,0-1.37,2.63,3.06,3.06,0,0,0,1.37,2.69,20.63,20.63,0,0,0,5.82,2,16,16,0,0,1,6.71,3A7.16,7.16,0,0,1,141,23.26a7.6,7.6,0,0,1-2.86,6.15,11.39,11.39,0,0,1-7.5,2.36,17.61,17.61,0,0,1-12.06-4.68l3.07-3.69a13.8,13.8,0,0,0,9.11,3.81,6.22,6.22,0,0,0,3.75-1,3.18,3.18,0,0,0,1.39-2.69,3,3,0,0,0-1.31-2.61,13.73,13.73,0,0,0-4.5-1.7,40.33,40.33,0,0,1-4.85-1.41,10.94,10.94,0,0,1-2.94-1.68q-2.57-1.95-2.57-6A7.26,7.26,0,0,1,122.64,4a11.76,11.76,0,0,1,7.23-2.18,17.33,17.33,0,0,1,5.51.91,14.43,14.43,0,0,1,4.72,2.57l-2.61,3.69A9.88,9.88,0,0,0,134,7,13.41,13.41,0,0,0,129.68,6.29Z"/></g></g></svg>