<svg xmlns="http://www.w3.org/2000/svg" viewBox="0 0 39.7 25.88"><defs><style>.cls-1{fill:#ff6d22;}</style></defs><title>mess-flz</title><g id="Layer_2" data-name="Layer 2"><g id="Layer_1-2" data-name="Layer 1"><path class="cls-1" d="M23.08,1.61s13.35,0,6.68,5.84-10,7.51-10,7.51,13.35,9.18,10,10-28.38.83-28.38.83L.7,1.61Z"/><path d="M0,1V24.9a1,1,0,0,0,1,1H38.71a1,1,0,0,0,1-1V1a1,1,0,0,0-1-1H1A1,1,0,0,0,0,1Zm33.3,2.4L21,13.51a1,1,0,0,1-1.22,0L6.35,3.41a1,1,0,0,1,.6-1.78H32.67A1,1,0,0,1,33.3,3.39ZM4,4.28,14.66,12.2a1,1,0,0,1,0,1.57L4.06,22.07a1,1,0,0,1-1.6-.78V5.08A1,1,0,0,1,4,4.28Zm2.58,18,9.93-7.8a1,1,0,0,1,1.16,0c.79.53,1.49,1,2.33,1.44a1,1,0,0,0,1,0c.68-.4,1.41-.9,2.1-1.39a1,1,0,0,1,1.19,0l9.48,7.77a1,1,0,0,1-.63,1.75H7.23A1,1,0,0,1,6.62,22.32ZM25.82,11.8,35.93,4a1,1,0,0,1,1.6.78V20.19a1,1,0,0,1-1.58.79L25.83,13.37A1,1,0,0,1,25.82,11.8Z"/></g></g></svg>