<svg xmlns="http://www.w3.org/2000/svg" viewBox="0 0 22.05 30.43"><defs><style>.cls-1{fill:#ff6d22;}.cls-2{fill:#010101;}</style></defs><title>notif-flz</title><g id="Layer_2" data-name="Layer 2"><g id="Layer_1-2" data-name="Layer 1"><path class="cls-1" d="M11.05,5.85l-4,1-2,2-1,7-3,6v2h11s4,0,2-3C12.39,18.35,14.05,6.85,11.05,5.85Z"/><path class="cls-2" d="M11,30.43A4.33,4.33,0,0,1,7.6,28.88c-.38-.44-.89-.91-.33-1.56a1.62,1.62,0,0,1,2,0,2.83,2.83,0,0,0,1.28.78,2.15,2.15,0,0,0,1.92-.49c.16-.13.28-.33.46-.42a1.53,1.53,0,0,1,1.84.1c.55.55.07,1.06-.29,1.49A4.34,4.34,0,0,1,11,30.43Z"/><path d="M20.61,20a4.57,4.57,0,0,1-2-3A20.46,20.46,0,0,1,18,11.78a9.44,9.44,0,0,0-.93-4.36,1.13,1.13,0,1,0-2,1,7.64,7.64,0,0,1,.65,3.24c0,.84,0,1.69.11,2.52.29,3,.55,6,3.53,7.75a.72.72,0,0,1,.31.79.61.61,0,0,1-.62.54c-.27,0-.53.1-.8.13a75,75,0,0,1-10.54.28,31.91,31.91,0,0,1-4.67-.36c-.32-.06-.66-.1-.75-.52a.8.8,0,0,1,.39-.92c1.74-1,2.28-2.7,2.7-4.47A31.9,31.9,0,0,0,6,11.09C6.06,8.35,7.33,7,10.05,6.8c.39,0,.78,0,1.17,0A3.39,3.39,0,1,0,7.75,4.31c.06.26.4.55-.17.76C5,6,4,8.1,3.77,10.66c-.18,1.73,0,3.49-.34,5.21s-.65,3.28-2.27,4.39A2.93,2.93,0,0,0,1,24.84a4.27,4.27,0,0,0,2.5.89c2.49.27,5,.17,7.6.24a64,64,0,0,0,8.24-.37A3,3,0,0,0,22,23.19,2.83,2.83,0,0,0,20.61,20ZM11,2.27a1.11,1.11,0,0,1,1.11,1.25,1,1,0,0,1-1.17.93,1,1,0,0,1-1-1.11A1,1,0,0,1,11,2.27Z"/></g></g></svg>