<svg xmlns="http://www.w3.org/2000/svg" viewBox="0 0 22.16 22.16"><defs><style>.cls-1{fill:#fff;}</style></defs><title>tentang</title><g id="Layer_2" data-name="Layer 2"><g id="Layer_1-2" data-name="Layer 1"><path class="cls-1" d="M11.08,0A11.08,11.08,0,1,0,22.16,11.08,11.08,11.08,0,0,0,11.08,0Zm.21,20.86a9.78,9.78,0,1,1,9.78-9.78A9.78,9.78,0,0,1,11.3,20.86Z"/><path class="cls-1" d="M10.17,6.38a1.27,1.27,0,0,1,0-1.82,1.29,1.29,0,0,1,2.2.91,1.29,1.29,0,0,1-2.2.91ZM12.08,18H10V8.31h2Z"/></g></g></svg>