<svg xmlns="http://www.w3.org/2000/svg" viewBox="0 0 35 35"><defs><style>.cls-1{fill:#ff6d22;}.cls-2{fill:#2f374a;}</style></defs><title>user-flz</title><g id="Layer_2" data-name="Layer 2"><g id="Layer_1-2" data-name="Layer 1"><path class="cls-1" d="M24.93,22.32s-9.84-.07-15,0A7.46,7.46,0,0,0,5.4,26.54a15,15,0,0,0,24.27-.08A6.47,6.47,0,0,0,24.93,22.32Z"/><path class="cls-1" d="M17.67,20.82a6,6,0,1,0-5.94-6A6,6,0,0,0,17.67,20.82Z"/><path class="cls-2" d="M17.5,35A17.54,17.54,0,1,0,5.09,29.82,17.45,17.45,0,0,0,17.5,35Zm0-32.67A15.18,15.18,0,0,1,32.67,17.5a15,15,0,0,1-3,9A15.14,15.14,0,1,1,17.5,2.33Z"/></g></g></svg>