<svg xmlns="http://www.w3.org/2000/svg" viewBox="0 0 177.45 136.23"><defs><style>.cls-1{fill:#ebb886;}.cls-2{fill:#e0b080;}.cls-3{fill:#ffcf9f;}.cls-4{fill:#ededed;}.cls-5{fill:#575756;}.cls-6{fill:#005b6b;}.cls-7{fill:#fff;}.cls-8{fill:#9d9d9c;}</style></defs><title>card-1</title><g id="Layer_2" data-name="Layer 2"><g id="Layer_1-2" data-name="Layer 1"><path class="cls-1" d="M111.32,75.16l-10.14-7.53-6-4.47-3-2.22L87.8,64.45l-1.61,1.28,1-7.68,2.09-7.35.07-.26-8.51-2.27a10.21,10.21,0,0,0-5-.09l-13.11,3L40.91,35.54,21.81,65.18l27.63,15,5.72,8.42a19.62,19.62,0,0,0,6,5.72l18,12.72c17.69-4.24,33.48-17.46,34.05-30.63A16.24,16.24,0,0,0,111.32,75.16Z"/><path class="cls-2" d="M125.17,85.9a6,6,0,0,0-.6-.57L122,83.11l-7.09-5.33-1.76-1.34c-.77,3.25-3,5.63-7.44,6.69C105.27,87,102.16,89.46,97,91c-.86,3.76-3.83,6.26-8.57,7.71-1.44,4.61-5.8,8-9.32,8.39L87.42,113c7.81,5.52,12.08-2.2,9.7-4.71l.88.64c7.53,5.7,12.74-2.49,8.69-7.44,5.88,5.72,13.68-1.83,9.37-8,.26.22.51.42.75.59a2.41,2.41,0,0,0,.29.22C123.5,98.53,129.35,90.41,125.17,85.9Z"/><path class="cls-3" d="M65,87a5.33,5.33,0,0,0,2.21-7.21l-.46-.87a5.33,5.33,0,0,0-7.21-2.21L50.05,81.8A5,5,0,0,0,48,88.54l.95,1.78a4.65,4.65,0,0,0,6.29,1.93Z"/><path class="cls-3" d="M74.71,95A5.33,5.33,0,0,0,77,87.78l-.46-.87a5.33,5.33,0,0,0-7.14-2.25l-12.12,6.2a5,5,0,0,0-2.13,6.77l.94,1.78a4.65,4.65,0,0,0,6.23,2Z"/><path class="cls-3" d="M82.37,104.07a5.42,5.42,0,0,0,2.24-7.33l-.47-.88a5.42,5.42,0,0,0-7.33-2.24l-9.69,5.15a5.06,5.06,0,0,0-2.1,6.85l1,1.81a4.73,4.73,0,0,0,6.39,2Z"/><path class="cls-3" d="M90.28,110.56a4.33,4.33,0,0,0,1.58-5.91l-.39-.73a4.33,4.33,0,0,0-5.78-2l-7.44,4a4,4,0,0,0-1.47,5.52l.8,1.5a3.78,3.78,0,0,0,5,1.75Z"/><path class="cls-3" d="M133,37.19,114.67,49.73S100.6,47.31,99,47.79L89.29,50.7l-6.34,1.89a4.37,4.37,0,0,0-2.86,2.69L74.26,71.45a4,4,0,0,0,2.33,5.06l1.19.46a8.32,8.32,0,0,0,10.78-4.91l2.2-6a3.52,3.52,0,0,1,2.14-2.13l2.05-.7.26-.07S125,85.7,125.17,85.9L131.6,79,150,67.64Z"/><polygon class="cls-4" points="41.46 83.13 28.93 75.2 49.65 39.26 62.78 48.95 41.46 83.13"/><path class="cls-5" d="M0,2.07V62.37C13.53,70.91,26.77,79,26.77,79L49.65,39.25S22.75,19,0,2.07Z"/><polygon class="cls-4" points="136 81.07 148.53 73.13 127.8 37.19 114.67 46.89 136 81.07"/><path class="cls-6" d="M177.45,0V60.31c-13.53,8.53-26.77,16.63-26.77,16.63L127.8,37.19S154.7,16.94,177.45,0Z"/><circle class="cls-7" cx="21.93" cy="66.5" r="2.9"/><circle class="cls-7" cx="13.5" cy="60.71" r="2.9"/><circle class="cls-7" cx="153.71" cy="66.5" r="2.9"/><circle class="cls-7" cx="162.14" cy="60.71" r="2.9"/><path class="cls-8" d="M87.74,38.77a1.58,1.58,0,0,1-1.58-1.58V25.79a1.58,1.58,0,0,1,3.16,0v11.4A1.58,1.58,0,0,1,87.74,38.77Z"/><path class="cls-8" d="M87.74,136.23a1.58,1.58,0,0,1-1.58-1.58v-11.4a1.58,1.58,0,0,1,3.16,0v11.4A1.58,1.58,0,0,1,87.74,136.23Z"/><path class="cls-8" d="M126.23,120.29a1.58,1.58,0,0,1-1.12-.46L117,111.76a1.58,1.58,0,0,1,2.24-2.24l8.06,8.06a1.58,1.58,0,0,1-1.12,2.7Z"/><path class="cls-8" d="M49.25,120.29a1.58,1.58,0,0,1-1.12-2.7l8.06-8.06a1.58,1.58,0,0,1,2.24,2.24l-8.06,8.06A1.58,1.58,0,0,1,49.25,120.29Z"/><path class="cls-8" d="M108.1,132.28a1.58,1.58,0,0,1-1.47-1l-4.27-10.59a1.58,1.58,0,1,1,2.93-1.18l4.27,10.59a1.58,1.58,0,0,1-1.46,2.17Z"/><path class="cls-8" d="M71.65,41.91a1.58,1.58,0,0,1-1.47-1L65.91,30.33a1.58,1.58,0,0,1,2.93-1.18l4.27,10.59a1.58,1.58,0,0,1-1.46,2.17Z"/><path class="cls-8" d="M37.26,102.16a1.58,1.58,0,0,1-.59-3l10.59-4.27a1.58,1.58,0,1,1,1.18,2.93L37.85,102A1.58,1.58,0,0,1,37.26,102.16Z"/><path class="cls-8" d="M137.83,103.09a1.58,1.58,0,0,1-.62-.13l-10.48-4.46A1.58,1.58,0,1,1,128,95.6l10.48,4.46a1.58,1.58,0,0,1-.62,3Z"/><path class="cls-8" d="M66.45,131.89a1.58,1.58,0,0,1-1.45-2.2l4.46-10.48a1.58,1.58,0,1,1,2.91,1.24L67.9,130.93A1.58,1.58,0,0,1,66.45,131.89Z"/><path class="cls-8" d="M104.57,42.19a1.58,1.58,0,0,1-1.45-2.2l4.46-10.48a1.58,1.58,0,0,1,2.91,1.24L106,41.23A1.58,1.58,0,0,1,104.57,42.19Z"/></g></g></svg>