<svg xmlns="http://www.w3.org/2000/svg" viewBox="0 0 162.6 142.75"><defs><style>.cls-1{fill:#3c3c3b;}.cls-2{fill:#c6c6c6;}.cls-3{fill:#fb0;}.cls-4{fill:#9d9d9c;}.cls-5{fill:#fff;}.cls-6{fill:#f2c799;}.cls-7{fill:#ffd2a1;}.cls-8{fill:#ededed;}.cls-9{fill:#575756;}</style></defs><title>card-2</title><g id="Layer_2" data-name="Layer 2"><g id="Layer_1-2" data-name="Layer 1"><ellipse class="cls-1" cx="57.38" cy="88.03" rx="4.09" ry="1.61"/><rect class="cls-2" x="47.51" y="70.44" width="19.73" height="15.21"/><path class="cls-3" d="M78.12,43.48C78.12,30.7,67.5,20.5,55,22,45.9,23,38.38,30.46,36.91,39.86a22.23,22.23,0,0,0,5.86,19,16.29,16.29,0,0,1,4.74,11.29v.29H67.24v-.19A16.22,16.22,0,0,1,71.9,58.93,22,22,0,0,0,78.12,43.48Z"/><polygon class="cls-4" points="61.47 88.09 53.29 88.09 47.51 85.65 67.24 85.65 61.47 88.09"/><path class="cls-5" d="M50.42,41.46c1.1,0,1.62.93,2.08,1.74s.8,1.35,1.41,1.35.93-.51,1.4-1.35,1-1.75,2.08-1.75,1.62.93,2.08,1.75.8,1.35,1.4,1.35.93-.51,1.4-1.35,1-1.75,2.08-1.75,1.62.93,2.07,1.74.8,1.35,1.4,1.35a.39.39,0,0,1,0,.77c-1.1,0-1.62-.93-2.07-1.74s-.8-1.35-1.4-1.35-.93.51-1.4,1.35-1,1.74-2.08,1.74-1.62-.93-2.08-1.74-.8-1.35-1.4-1.35-.93.51-1.4,1.35-1,1.74-2.08,1.74-1.62-.93-2.08-1.74-.8-1.35-1.41-1.35-.93.51-1.41,1.35-1,1.74-2.08,1.74a.39.39,0,0,1,0-.77c.6,0,.93-.51,1.41-1.35S49.32,41.46,50.42,41.46Z"/><path class="cls-5" d="M58.1,57.21H56.65a2.18,2.18,0,0,0-2.38,1.91V70.44h6.21V59.13A2.18,2.18,0,0,0,58.1,57.21Z"/><path class="cls-5" d="M55.45,59.12a.51.51,0,0,1-.43-.23L46.12,45.22a.51.51,0,1,1,.85-.56l8.91,13.67a.51.51,0,0,1-.43.79Z"/><path class="cls-5" d="M59.3,59.12a.51.51,0,0,1-.43-.79l8.91-13.67a.51.51,0,1,1,.85.56L59.73,58.89A.51.51,0,0,1,59.3,59.12Z"/><path class="cls-6" d="M58.93,117.27l-5.51-.69-8-2.22L32.66,102.42a5.9,5.9,0,0,0-6.44-1.07l-4.15-3.87a5.9,5.9,0,0,0-8.34.28l-.08.09a5.87,5.87,0,0,0-1.2,1.94,6.4,6.4,0,0,0-5.34,2.76l-.07.11a6.41,6.41,0,0,0,1.62,8.92l20.65,14.29.2.11a6.47,6.47,0,0,0,.6.33c.18.09.37.18.55.25s.37.12.56.18a6.38,6.38,0,0,0,.69.16l.21,0L57,130.19a6.41,6.41,0,0,0,7.18-5.53l0-.13A6.32,6.32,0,0,0,58.93,117.27Z"/><path class="cls-7" d="M111.49,98.67l-11-2.43a33.27,33.27,0,0,0-12,.42L78.2,98.92a11.85,11.85,0,0,1-3.87.2L50.58,96.43a6.7,6.7,0,0,0-7.43,5.87l0,.13A6.69,6.69,0,0,0,49,109.87l16,1.88-15.5,5.52-17.72,1-22-10.93a6.69,6.69,0,0,0-9,3l-.06.12a6.7,6.7,0,0,0,3,9s26.5,12.38,26.58,12.38,12.89,2.57,19.1,3.08c1.17.1,2.8,0,4.46-.08,6.89-.15,26.14-1.08,41.58-6.43l16.72-3.67Z"/><path class="cls-8" d="M129.91,96.18l.2,43.07H111.34l.12-43.07Z"/><rect class="cls-9" x="122.35" y="94.5" width="40.25" height="48.25"/><circle class="cls-8" cx="144.69" cy="104.2" r="3.77" transform="translate(-25.57 51.25) rotate(-18.48)"/><circle class="cls-8" cx="132.59" cy="104.2" r="3.77" transform="translate(-26.2 47.41) rotate(-18.48)"/><path class="cls-3" d="M79.3,8.14a1.79,1.79,0,1,0-3.1-1.79l-4.86,8.42A1.77,1.77,0,0,0,72,17.2l0,0a1.77,1.77,0,0,0,2.41-.65Z"/><path class="cls-3" d="M93.56,23.71a1.79,1.79,0,0,0-1.79-3.1l-8.42,4.86a1.77,1.77,0,0,0-.65,2.41l0,0a1.77,1.77,0,0,0,2.42.66Z"/><path class="cls-3" d="M98.12,40.75H88.35a1.76,1.76,0,0,0-1.76,1.77v0a1.76,1.76,0,0,0,1.76,1.77h9.77a1.79,1.79,0,0,0,0-3.58Z"/><path class="cls-3" d="M91.77,64.46a1.79,1.79,0,0,0,1.79-3.1L85.14,56.5a1.77,1.77,0,0,0-2.42.66l0,0a1.77,1.77,0,0,0,.65,2.41Z"/><path class="cls-3" d="M21.2,61.36A1.79,1.79,0,1,0,23,64.46l8.42-4.86a1.77,1.77,0,0,0,.65-2.41l0,0a1.77,1.77,0,0,0-2.42-.66Z"/><path class="cls-3" d="M28.17,42.51a1.76,1.76,0,0,0-1.76-1.77H16.63a1.79,1.79,0,0,0,0,3.58H26.4a1.76,1.76,0,0,0,1.76-1.77Z"/><path class="cls-3" d="M23,20.61a1.79,1.79,0,1,0-1.79,3.1l8.42,4.86A1.77,1.77,0,0,0,32,27.91l0,0a1.77,1.77,0,0,0-.65-2.41Z"/><path class="cls-3" d="M38.55,6.35a1.79,1.79,0,1,0-3.1,1.79l4.86,8.42a1.77,1.77,0,0,0,2.41.65l0,0a1.77,1.77,0,0,0,.66-2.42Z"/><path class="cls-3" d="M57.4,13.32a1.76,1.76,0,0,0,1.77-1.76V1.79a1.79,1.79,0,1,0-3.58,0v9.77a1.76,1.76,0,0,0,1.77,1.76Z"/></g></g></svg>