<svg xmlns="http://www.w3.org/2000/svg" viewBox="0 0 26.8 23.69"><defs><style>.cls-1{fill:#fff;}</style></defs><title>dashboard</title><g id="Layer_2" data-name="Layer 2"><g id="Layer_1-2" data-name="Layer 1"><path class="cls-1" d="M13.4,6.23,4.64,12.54v8.75a2.42,2.42,0,0,0,2.41,2.41h4V15.48h4.67v8.22h4a2.42,2.42,0,0,0,2.41-2.41V12.54Z"/><path class="cls-1" d="M.68,11.62a1.19,1.19,0,0,0,1.1.47L13.4,3.72h0L25,12.09a1.18,1.18,0,0,0,1.1-.47l.46-.63a1.21,1.21,0,0,0-.27-1.68L23.08,7a2.65,2.65,0,0,1-1-1.91V1.26A1.21,1.21,0,0,0,20.9.05H19.77a1.21,1.21,0,0,0-1.2,1.2V2.53c0,.66-.44.89-1,.5L14.41.73l-1-.72h0l-1,.72L.5,9.31A1.21,1.21,0,0,0,.22,11Z"/></g></g></svg>