<svg xmlns="http://www.w3.org/2000/svg" xmlns:xlink="http://www.w3.org/1999/xlink" viewBox="0 0 313.09 275.39"><defs><style>.cls-1{fill:#42084e;}.cls-2{opacity:0.6;fill:url(#linear-gradient);}.cls-3{fill:#f5b1ff;}.cls-4{fill:#d396ff;}.cls-5{fill:#7b0f8f;}.cls-6{fill:#de50fc;}.cls-7{fill:#fad6e4;}.cls-8{fill:#fef4f3;}.cls-9{fill:#e9ccff;}.cls-10{fill:#b262ec;}.cls-11{fill:#8350fc;}.cls-12{fill:#f5e8ff;}.cls-13{fill:#24223c;}.cls-14{fill:#f4d37e;}.cls-15{fill:#2d2d2d;}.cls-16{fill:#e3d639;}.cls-17{fill:#fcbd53;}.cls-18{fill:#f3b246;}.cls-19{fill:#ad2fc4;}</style><linearGradient id="linear-gradient" x1="145.56" y1="-8.69" x2="145.56" y2="329.18" gradientUnits="userSpaceOnUse"><stop offset="0.02" stop-color="#f48167"/><stop offset="1" stop-color="#fff"/></linearGradient></defs><title>data not found</title><g id="Layer_2" data-name="Layer 2"><g id="Layer_1-2" data-name="Layer 1"><path class="cls-1" d="M187.54,275.39c1.75-31.25-10.74-82.74-10.74-82.74l-64,3.89s-3.39,10.9-7,38.8c-1.26,9.81-.18,24.57,1.66,40Zm-40.34-3.13s.17,1.14.46,3.13h-.72C147.1,273.4,147.2,272.26,147.2,272.26Z"/><path class="cls-2" d="M283,116.46c-13.54-16.26-39.4-18.61-55.65-32.39-17.6-14.92-22.17-36-37.29-53.23-6.3-7.19-13.49-17.37-22.06-22.07C160.26,4.53,151.92.84,142.65.12c-11.62-.9-24.24,3.19-33.86,11C99.32,18.77,92.5,29.86,81.52,35c-13.79,6.48-28.6,1.84-42.07.9C23.7,34.81,7.37,43.54,2,58.25-.39,64.85-.39,72.05.71,79s3.5,14.16,8.16,19.8c4.91,6,11.4,10.51,15.72,17,5.12,7.7,4.7,18.09,3,27.81S23.11,163.14,24,172.65a35,35,0,0,0,24.59,30.17C66,208.25,86.42,201.4,105,194.34c16.62-6.33,35.82-13.74,53.16-12.55,18.3,1.25,33.38,12.85,50.77,16.7,22.25,4.93,49.26-2.12,66.34-19.79S296.75,133,283,116.46Z"/><path class="cls-3" d="M224.54,44l-.21-.32,2.09-1.43.22.32C226,43,225.25,43.52,224.54,44Z"/><path class="cls-3" d="M200.74,50.13l1-6,.41-.88A141.13,141.13,0,0,1,210,27.78l.41-.66-.05.78c-.12,1.62-.16,3.06-.12,4.28.19-1.61.49-3.92.93-6.16l0-.07A42.73,42.73,0,0,1,222,14.8l.46-.33-.16.54a63.72,63.72,0,0,0-2,8.69A58.91,58.91,0,0,1,224,13.45l0,0,0,0,1.16-.74a17.87,17.87,0,0,1,4.49-2.18l.39-.16-.14.4a58.24,58.24,0,0,0-2,7.06,75.82,75.82,0,0,1,3.2-7.79l0-.07.07,0,2.57-1c2.94-1.14,7-2.71,9.12-3.29l.15,0,.07.14c.08.17,2,4.28-.88,13.81l0,.07-.07,0c-.64.37-1.31.81-2,1.27-.93.61-1.92,1.25-3,1.87,1.14-.46,2.57-1.06,4.35-1.85l.41-.18-.15.42c-.29.84-.56,1.71-.85,2.62-1,3.25-2.06,6.62-4.23,9.4l0,.06h-.07a19.05,19.05,0,0,1-2.27.27c-1.05.08-2.37.19-4.29.49h0c1.74,0,3.75.19,4.88.94l.19.12-.15.17a54.94,54.94,0,0,1-8.26,7.31l-.07,0-4.92,1.15,3.36-.05-.57.37a36.58,36.58,0,0,1-16,6.06Zm1.35-5.81-.89,5.42,7.23,0a35.79,35.79,0,0,0,15.27-5.63l-5.6.08,8.38-2a54.68,54.68,0,0,0,8-7.06c-2.24-1.23-7.58-.57-7.63-.57l-.06-.38a54.2,54.2,0,0,1,7.46-1.07,19.47,19.47,0,0,0,2.16-.25c2.1-2.72,3.13-6,4.13-9.22.24-.77.47-1.5.71-2.22-6.3,2.79-8,3.11-8.1,3.13l-.1-.37A30.51,30.51,0,0,0,240,20.55c.69-.45,1.34-.88,2-1.24C244.48,11,243.18,6.8,242.87,6c-2.18.6-6.07,2.12-8.92,3.23l-2.5,1A85.57,85.57,0,0,0,227.59,20L227,21.65l.17-1.77A44,44,0,0,1,229.47,11a16.26,16.26,0,0,0-4,2l-1.12.72c-2.25,4.22-4.25,12.16-4.27,12.24l-.43,1.71,0-1.76a48.78,48.78,0,0,1,2.06-10.41,42.41,42.41,0,0,0-10.16,10.69c-.77,4-1.13,8.18-1.14,8.22l-.15,1.73L210,34.37a30.76,30.76,0,0,1-.09-5.72,149.12,149.12,0,0,0-7.48,14.81Z"/><path class="cls-3" d="M201.06,50.11l-.19-.34c17.72-9.73,36.68-37.7,36.86-38l.32.22C237.87,12.29,218.86,40.33,201.06,50.11Z"/><path class="cls-4" d="M90.3,75.57a.17.17,0,0,1,0-.07.17.17,0,0,1,.16-.18l.84-.07a.17.17,0,1,1,0,.34l-.85.07A.17.17,0,0,1,90.3,75.57Z"/><path class="cls-4" d="M49.89,58.61l-.51-1.05a.17.17,0,0,1,.08-.23.17.17,0,0,1,.23.08q.36.76.74,1.52h0a.17.17,0,0,1-.3.15Zm1,2a.17.17,0,0,1,.3-.15q.4.75.81,1.49a.17.17,0,0,1-.07.23.17.17,0,0,1-.23-.07q-.41-.74-.81-1.49ZM48.68,56h0c-.23-.53-.45-1.06-.66-1.57a.17.17,0,1,1,.31-.13c.2.51.42,1,.65,1.56a.17.17,0,0,1-.31.14Zm3.86,7.54a.17.17,0,0,1,.3-.16l.85,1.46a.17.17,0,0,1-.06.23A.17.17,0,0,1,53.4,65l-.85-1.47ZM47.43,52.86v0c-.19-.54-.38-1.09-.54-1.61a.17.17,0,1,1,.32-.1c.16.52.34,1.06.54,1.6a.17.17,0,0,1-.31.13Zm-1-3.23v0c-.15-.56-.28-1.12-.39-1.66a.17.17,0,0,1,.33-.07c.11.54.24,1.09.39,1.64a.17.17,0,0,1-.32.12Zm-.68-3.32,0-.05c-.08-.57-.15-1.14-.2-1.69a.17.17,0,1,1,.34,0c0,.55.11,1.11.19,1.67a.17.17,0,0,1-.32.1Zm-.28-3.37a.17.17,0,0,1,0-.07c0-.57,0-1.15,0-1.71a.17.17,0,1,1,.34,0c0,.55,0,1.12,0,1.68a.17.17,0,0,1-.32.08Zm.21-3.38a.17.17,0,0,1,0-.1c.08-.56.18-1.13.31-1.68a.17.17,0,1,1,.33.08c-.12.54-.23,1.1-.3,1.65a.17.17,0,0,1-.32.05Zm.75-3.3a.17.17,0,0,1,0-.13c.12-.38.25-.76.4-1.14l.19-.47a.17.17,0,1,1,.31.13l-.18.46c-.14.37-.27.74-.39,1.12a.17.17,0,0,1-.31,0Zm1.28-3.13a.17.17,0,0,1,0-.15c.26-.52.55-1,.85-1.49a.17.17,0,0,1,.29.18c-.29.46-.57,1-.83,1.46a.17.17,0,0,1-.23.07A.17.17,0,0,1,47.71,33.13Zm1.82-2.85a.17.17,0,0,1,0-.18,14.2,14.2,0,0,1,1.14-1.28.17.17,0,1,1,.24.24,13.89,13.89,0,0,0-1.12,1.25.17.17,0,0,1-.24,0Zm2.41-2.37A.17.17,0,0,1,52,27.7a12.47,12.47,0,0,1,1.44-.93.17.17,0,0,1,.23.07.17.17,0,0,1-.07.23,12.13,12.13,0,0,0-1.4.91.17.17,0,0,1-.24,0Zm3-1.64h0A.17.17,0,0,1,55,26a14.06,14.06,0,0,1,1.63-.53.17.17,0,0,1,.21.12.17.17,0,0,1-.12.21,13.8,13.8,0,0,0-1.59.52A.17.17,0,0,1,54.89,26.27Zm3.27-.85a.17.17,0,0,1,0-.05.17.17,0,0,1,.14-.19A16.37,16.37,0,0,1,60,25a.17.17,0,1,1,0,.34,16.14,16.14,0,0,0-1.67.14A.17.17,0,0,1,58.17,25.41Zm3.38-.12a.17.17,0,0,1,.16-.24c.56,0,1.14.1,1.7.19a.17.17,0,0,1-.05.33c-.55-.09-1.11-.15-1.67-.19A.17.17,0,0,1,61.55,25.29Zm3.34.54a.17.17,0,0,1,.19-.24c.55.14,1.1.31,1.63.5a.17.17,0,0,1-.11.32c-.52-.19-1.06-.35-1.6-.49A.17.17,0,0,1,64.89,25.83ZM68.08,27a.17.17,0,0,1,.22-.23c.51.24,1,.5,1.52.78a.17.17,0,0,1-.17.3c-.49-.28-1-.53-1.5-.76A.17.17,0,0,1,68.08,27ZM92.82,75.26v0a.17.17,0,0,1,.13-.2c.54-.11,1.09-.24,1.63-.4a.17.17,0,1,1,.09.33c-.55.16-1.11.3-1.66.41A.17.17,0,0,1,92.82,75.26ZM71,28.63a.17.17,0,0,1,.25-.22c.47.31.94.64,1.39,1a.17.17,0,0,1-.2.27c-.45-.34-.91-.67-1.37-1A.17.17,0,0,1,71,28.63Zm2.7,2a.17.17,0,0,1,.26-.2c.42.36.85.75,1.26,1.14a.17.17,0,0,1-.23.25c-.41-.39-.83-.77-1.25-1.13ZM96.07,74.31h0a.17.17,0,0,1,.1-.22c.52-.2,1-.43,1.54-.67a.17.17,0,0,1,.23.08h0a.17.17,0,0,1-.08.23c-.51.25-1,.48-1.57.68A.17.17,0,0,1,96.07,74.31ZM76.19,33a.17.17,0,0,1,.27-.19c.38.4.77.82,1.15,1.25a.17.17,0,1,1-.25.22c-.38-.43-.76-.85-1.14-1.24Zm2.24,2.54a.17.17,0,0,1,.28-.18c.35.43.7.88,1.05,1.34a.17.17,0,0,1,0,.24.17.17,0,0,1-.24,0c-.35-.46-.7-.9-1-1.33Zm2.06,2.69a.17.17,0,0,1,.29-.18c.33.45.67.9,1,1.35a.17.17,0,0,1-.27.21c-.35-.45-.69-.9-1-1.36Zm2.09,2.67a.17.17,0,0,1,.28-.19c.4.46.77.86,1.15,1.23a.17.17,0,0,1-.24.24c-.38-.37-.76-.78-1.17-1.25ZM99.12,72.83a.17.17,0,0,1,.07-.22c.48-.28,1-.59,1.41-.91a.17.17,0,1,1,.2.28c-.46.33-.95.64-1.43.93a.17.17,0,0,1-.23-.06ZM85,43.24a.17.17,0,0,1,.25-.21,9.49,9.49,0,0,0,1.41.88.17.17,0,0,1-.15.3,9.83,9.83,0,0,1-1.46-.91Zm3,1.5a.17.17,0,0,1,.19-.24l.33.08a7.77,7.77,0,0,0,1.31.16.17.17,0,0,1,0,.34,8.25,8.25,0,0,1-1.37-.16l-.34-.08A.17.17,0,0,1,88,44.74Zm13.84,26.14a.17.17,0,0,1,0-.21c.43-.36.85-.74,1.25-1.13a.17.17,0,1,1,.24.24c-.41.4-.83.78-1.27,1.14a.17.17,0,0,1-.24,0Zm-10.48-26a.17.17,0,0,1,0-.06.17.17,0,0,1,.15-.19c.49-.06,1-.14,1.66-.27a.17.17,0,0,1,.07.33c-.65.13-1.19.22-1.69.27A.17.17,0,0,1,91.41,44.9Zm12.9,23.61a.17.17,0,0,1,0-.19c.37-.42.72-.86,1.05-1.31a.17.17,0,1,1,.27.2c-.34.45-.7.9-1.07,1.33a.17.17,0,0,1-.24,0ZM94.74,44.28v0a.17.17,0,0,1,.13-.2c.53-.11,1.1-.23,1.67-.33a.17.17,0,0,1,.06.33c-.56.09-1.13.21-1.66.32A.17.17,0,0,1,94.74,44.28Zm11.58,21.51a.17.17,0,0,1,0-.16c.29-.48.57-1,.82-1.47a.17.17,0,0,1,.3.15c-.25.5-.54,1-.83,1.49a.17.17,0,0,1-.3,0Zm-8.23-22a.17.17,0,0,1,.14-.24,10.15,10.15,0,0,1,1.15,0l.57.05a.17.17,0,1,1,0,.34l-.55-.05a9.85,9.85,0,0,0-1.11,0A.17.17,0,0,1,98.08,43.76Zm9.76,19a.17.17,0,0,1,0-.14c.21-.52.39-1.06.55-1.59a.17.17,0,1,1,.32.1c-.16.54-.35,1.08-.56,1.61a.17.17,0,0,1-.22.09A.17.17,0,0,1,107.84,62.76Zm1-3.25a.17.17,0,0,1,0-.11c.11-.55.19-1.11.25-1.66a.17.17,0,1,1,.34,0c-.06.56-.14,1.13-.25,1.69a.17.17,0,0,1-.32,0Zm-7.38-15.34a.17.17,0,0,1,.2-.24,10,10,0,0,1,1.59.67.17.17,0,0,1-.16.3,9.62,9.62,0,0,0-1.53-.65A.17.17,0,0,1,101.42,44.18Zm7.72,12a.17.17,0,0,1,0-.08A16,16,0,0,0,109,54.4a.17.17,0,0,1,.34,0,16.41,16.41,0,0,1,.08,1.71.17.17,0,0,1-.32.07Zm-4.73-10.41a.17.17,0,0,1,.25-.21A11.43,11.43,0,0,1,106,46.67a.17.17,0,0,1-.24.24,11.12,11.12,0,0,0-1.25-1.1Zm4.38,7v0a13.43,13.43,0,0,0-.46-1.61.17.17,0,0,1,.1-.22.17.17,0,0,1,.22.1,13.64,13.64,0,0,1,.47,1.65.17.17,0,0,1-.32.11Zm-2-4.63a.17.17,0,0,1,.29-.17,11.47,11.47,0,0,1,.86,1.4l0,.07h0a.17.17,0,0,1-.3.15l0-.06a11.14,11.14,0,0,0-.84-1.36Z"/><path class="cls-4" d="M54.29,66.5a.17.17,0,0,1,.3-.16l.44.72a.17.17,0,0,1-.06.23.17.17,0,0,1-.23-.06l-.44-.72Z"/><polygon class="cls-5" points="64.54 79.59 57.91 68.77 54.05 71.33 64.54 79.59"/><polygon class="cls-6" points="64.54 79.59 57.57 71.07 54.05 71.33 64.54 79.59"/><polygon class="cls-4" points="64.54 79.59 59.2 64.99 57.91 68.77 64.54 79.59"/><polygon class="cls-4" points="64.54 79.59 57.57 71.07 56.36 75.7 64.54 79.59"/><path class="cls-7" d="M231.38,125q.77-1,1.48-2Z"/><path class="cls-7" d="M227.24,126.61l5.64-3.65a55.87,55.87,0,0,0,5.3-9.5c-2.45-.63-7.53,2-7.53,2,5-3.07,6.83-3.43,8.48-4.43,1.44-4.21.9-8.84.94-12.81-5.22,5-6.75,5.86-6.75,5.86,3.3-2.67,5-5.55,6.73-7.56-.26-9.88-3.41-13-3.41-13-2.44,1.69-7.43,6.18-9.4,7.83a85.62,85.62,0,0,0-.53,10.47,45.4,45.4,0,0,1-.68-9.42,20.5,20.5,0,0,0-4.26,4.57c-.79,4.74-.15,12.9-.15,12.9-.94-3.11-1.25-8.11-1.35-10.89a43.46,43.46,0,0,0-6.37,13.87c.53,4,1.51,8.09,1.51,8.09a33.18,33.18,0,0,1-2-6,150.69,150.69,0,0,0-2.56,18l.9,5.59,6.83-2.51a36.64,36.64,0,0,0,12.78-10.88Z"/><path class="cls-8" d="M219.39,126.83c-1,1.79-2,3.56-3,5.27a31.8,31.8,0,0,1-3.67,4.83l-.06-.07a31.68,31.68,0,0,0,3.5-4.91c1-1.73,2-3.52,2.87-5.33,1.8-3.62,3.44-7.31,5.06-11s3.16-7.45,4.95-11.1c.89-1.82,1.8-3.63,2.78-5.42s2-3.53,3.12-5.23l.08,0c-1.8,3.63-3.49,7.3-5.15,11s-3.4,7.34-5.11,11S221.28,123.24,219.39,126.83Z"/><path class="cls-9" d="M234.95,150.11q.93-.67,1.81-1.36Z"/><path class="cls-9" d="M230.68,150.24l6.1-1.51a43.74,43.74,0,0,0,6.91-6.93c-2.22-1.35-7.58-.63-7.58-.63,5.4-1.17,7.2-.93,9-1.31,2.19-3.36,2.58-7.74,3.38-11.33-6,2.85-7.59,3.16-7.59,3.16,3.67-1.37,5.86-3.43,7.9-4.71,1.66-9-.74-12.91-.74-12.91-2.66.75-8.3,3.23-10.5,4.1a72.51,72.51,0,0,0-2.54,9.33,40.15,40.15,0,0,1,1.18-8.77,16.64,16.64,0,0,0-5,2.78c-1.67,4-2.64,11.66-2.64,11.66a45.68,45.68,0,0,1,.82-10.31,34.08,34.08,0,0,0-8.78,10.54c-.27,3.84-.13,7.83-.13,7.83a32.61,32.61,0,0,1-.78-6.1,123.72,123.72,0,0,0-5.93,15.51l-.22,5.37,7-.09a30.81,30.81,0,0,0,14.33-5.79Z"/><path class="cls-8" d="M223.13,147.93c-1.26,1.32-2.56,2.6-3.93,3.81a25.27,25.27,0,0,1-4.44,3.21l0-.08a25,25,0,0,0,4.3-3.34c1.32-1.24,2.57-2.57,3.78-3.92,2.42-2.7,4.71-5.54,7-8.38s4.47-5.75,6.88-8.49c1.2-1.37,2.43-2.72,3.71-4s2.6-2.57,4-3.75l.07.07c-2.42,2.72-4.75,5.51-7.05,8.32s-4.68,5.57-7,8.36S225.64,145.28,223.13,147.93Z"/><path class="cls-4" d="M230.44,164.38c6.29,1.89,8.81,3.11,11,3.2a42.56,42.56,0,0,0,9.18-11.07c-8.11,1.53-12.85-.8-12.85-.8,5.17,1.29,10.92,0,13.81-.9a62.21,62.21,0,0,0,6.56-19.85c-3.42.08-6.58.3-9.51.65a93.85,93.85,0,0,0-6.54,10.1,50.87,50.87,0,0,1,4.72-9.85,59.71,59.71,0,0,0-11.34,2.72C232,142.78,228,151.35,228,151.35c.84-3.72,3.4-8.92,4.89-11.75a45.87,45.87,0,0,0-14.36,9.64c-1.78,4.39-3.13,9.07-3.13,9.07a39.25,39.25,0,0,1,1.4-7.33c-4.46,4.67-8.44,10.18-12.89,16.28l-2.3,6.18,8.31,2c12.8,1.82,22.26-1.07,29.24-6C237,167.18,230.44,164.38,230.44,164.38Z"/><path class="cls-10" d="M203.38,172.43a33.57,33.57,0,0,0,6.34-2.6c2-1.05,4-2.22,5.94-3.43,3.89-2.42,7.65-5,11.41-7.66s7.46-5.36,11.34-7.82c1.94-1.23,3.9-2.44,5.9-3.57s4-2.21,6.13-3.16l.05.1c-3.89,2.44-7.69,5-11.48,7.56s-7.63,5.08-11.45,7.62-7.66,5.07-11.63,7.4c-2,1.16-4,2.26-6.08,3.25a33.78,33.78,0,0,1-6.46,2.41Z"/><path class="cls-7" d="M84.81,113.33q-.45-1.19-.94-2.32Z"/><path class="cls-7" d="M83.85,117.82V111a51.9,51.9,0,0,0-5.36-9.45c-2,1.87-2.58,7.69-2.58,7.69.17-6,.88-7.8.94-9.76-2.9-3.38-7.3-5.2-10.79-7.21,1.41,7.13,1.31,8.93,1.31,8.93-.47-4.27-2-7.22-2.82-9.76C55.67,86.73,51.09,88,51.09,88c.09,3,1.2,9.69,1.54,12.27a82.68,82.68,0,0,0,8.95,5.68,44.81,44.81,0,0,1-8.72-4.08,19.39,19.39,0,0,0,1.6,6.06c3.74,3.06,11.32,6.55,11.32,6.55-3.29-.71-7.88-2.93-10.39-4.22A40.41,40.41,0,0,0,64,122.82c3.88,1.54,8,2.68,8,2.68a34.58,34.58,0,0,1-6.47-1.17A143.29,143.29,0,0,0,80,135.56l5.46,2,1.69-7.33a35.26,35.26,0,0,0-2.3-16.8Z"/><path class="cls-3" d="M79.55,124.92c1,1.74,2,3.51,2.92,5.33a29.75,29.75,0,0,1,2.17,5.67l-.09,0a29.57,29.57,0,0,0-2.34-5.56c-.94-1.78-2-3.51-3.07-5.21-2.16-3.41-4.5-6.7-6.84-10s-4.78-6.53-7-9.93c-1.1-1.7-2.18-3.42-3.2-5.17s-2-3.54-2.83-5.38l.09,0c2.18,3.41,4.45,6.74,6.76,10.05s4.53,6.68,6.81,10S77.46,121.45,79.55,124.92Z"/><path class="cls-4" d="M76,139.48c.07-7.23.58-10.28,0-12.67a46.88,46.88,0,0,0-14.53-6.31c4.11,8.11,3.09,13.84,3.09,13.84-.22-5.87-3.38-11.54-5.19-14.33a68.52,68.52,0,0,0-23-.85c1.13,3.6,2.33,6.87,3.61,9.86a103.37,103.37,0,0,0,12.69,3.82,56,56,0,0,1-11.87-2A65.78,65.78,0,0,0,47.18,142c5.53,2.42,15.84,4.07,15.84,4.07-4.2.25-10.48-.86-13.94-1.57a50.52,50.52,0,0,0,14.6,12.24c5.19.54,10.56.52,10.56.52a43.24,43.24,0,0,1-8.18.77c6.31,3.29,13.36,5.8,21.17,8.65l7.24.54-.43-9.4c-2-14.09-8-23.22-15.33-29.08C77,131.67,76,139.48,76,139.48Z"/><path class="cls-10" d="M92.86,165.64a37,37,0,0,0-4.69-5.91c-1.73-1.83-3.57-3.56-5.45-5.24-3.75-3.37-7.67-6.55-11.61-9.72s-8-6.25-11.75-9.6c-1.9-1.67-3.78-3.38-5.59-5.15s-3.58-3.6-5.23-5.52l.09-.09c3.78,3.37,7.63,6.61,11.52,9.82s7.71,6.52,11.58,9.78,7.71,6.55,11.4,10c1.83,1.75,3.62,3.54,5.31,5.44a37.21,37.21,0,0,1,4.53,6.1Z"/><path class="cls-4" d="M143,39.4c0-5.52.45-7.85,0-9.67a35.78,35.78,0,0,0-11.09-4.82c3.13,6.19,2.36,10.56,2.36,10.56-.17-4.48-2.58-8.81-4-10.94a52.31,52.31,0,0,0-17.57-.65c.86,2.75,1.78,5.24,2.75,7.52a78.91,78.91,0,0,0,9.69,2.92,42.78,42.78,0,0,1-9.06-1.51A50.21,50.21,0,0,0,121,41.34c4.22,1.85,12.09,3.1,12.09,3.1a48.19,48.19,0,0,1-10.64-1.2,38.56,38.56,0,0,0,11.15,9.34c4,.41,8.06.4,8.06.4a33,33,0,0,1-6.25.59,136.77,136.77,0,0,0,16.16,6.6l5.53.41-.33-7.18c-1.53-10.76-6.08-17.72-11.7-22.2C143.72,33.45,143,39.4,143,39.4Z"/><path class="cls-10" d="M155.84,59.37a28.23,28.23,0,0,0-3.58-4.51c-1.32-1.4-2.73-2.71-4.16-4-2.86-2.57-5.86-5-8.86-7.42s-6.07-4.77-9-7.33c-1.45-1.28-2.88-2.58-4.27-3.93s-2.73-2.75-4-4.21l.07-.07c2.88,2.57,5.83,5,8.8,7.5s5.89,5,8.84,7.46,5.89,5,8.7,7.66c1.4,1.33,2.77,2.71,4.05,4.15a28.4,28.4,0,0,1,3.45,4.65Z"/><path class="cls-11" d="M158.35,64.33l.07-8.36c.81-11,3.7-19.41,8.57-25.06l.2-.24.12.29a27.41,27.41,0,0,1,1.28,5.37c0-.55-.05-1.05-.08-1.52a30,30,0,0,1,0-5.44v-.07l0,0A22.93,22.93,0,0,1,177.14,24l.37-.12-.12.37A33.16,33.16,0,0,0,175.82,32a36.91,36.91,0,0,1,2.44-8.21l0-.09.09,0a28.64,28.64,0,0,1,13.79-.27l.17,0,0,.18c-.59,3-1.24,5.9-1.95,8.5l0,.08-.07,0a41.46,41.46,0,0,1-6.12,2.62,28.94,28.94,0,0,0,5.52-1.38l.35-.12-.1.36a63.47,63.47,0,0,1-3.57,9.59l0,.05,0,0a31.28,31.28,0,0,1-8,2.91A31.61,31.61,0,0,0,185,45.14l.43-.12-.21.39a33.55,33.55,0,0,1-8.49,10.38l0,0h-.06a43.68,43.68,0,0,1-4.82.26,22.94,22.94,0,0,0,3.42.43l.53,0-.43.32a80.8,80.8,0,0,1-11.78,6.75l-.75.36Zm8.72-32.93C162.38,37,159.6,45.26,158.8,56l-.06,7.93,4.05-.3.64-.32a84.22,84.22,0,0,0,11.3-6.41,17.16,17.16,0,0,1-4.41-.81l-1.17-.42,1.24,0a46.34,46.34,0,0,0,6.19-.23,33,33,0,0,0,8.13-9.84c-2.09.54-5.53,1.26-7.9,1l-1.19-.15,1.18-.23c.06,0,6-1.22,9.23-3.15a62.57,62.57,0,0,0,3.41-9.12,22.16,22.16,0,0,1-6.74,1.36l-1.2,0,1.15-.35a45.56,45.56,0,0,0,7.37-3c.68-2.51,1.31-5.27,1.89-8.21a28.39,28.39,0,0,0-13.32.28,33,33,0,0,0-2.74,12.17l-.38,0a29.12,29.12,0,0,1,1.44-11.67,22.53,22.53,0,0,0-8,5,30.64,30.64,0,0,0,0,5.3c.08,1.47.17,3.29.24,5.6l-.39,0C168.74,40.35,168.07,34.11,167.07,31.4Z"/><path class="cls-11" d="M161.44,60.57l-.17-.14,0-.13a32.32,32.32,0,0,1,2.58-5.23c.87-1.45,1.84-2.92,3.06-4.62,2.08-2.88,4.21-5.54,6.58-8.48l2.32-2.88c1.42-1.77,2.9-3.61,4.37-5.37,2-2.38,4.31-5.23,6.65-8.28l.31.23c-2.34,3.06-4.68,5.91-6.66,8.3-1.47,1.76-2.94,3.59-4.36,5.36l-2.33,2.88c-2.37,2.93-4.5,5.6-6.57,8.47-1.21,1.7-2.18,3.16-3,4.6a31.93,31.93,0,0,0-2.55,5.17l-.1,0Z"/><path class="cls-11" d="M92.91,74.93l-6.64-.11c-8.67-.72-15.31-3.06-19.75-7l-.23-.21.29-.12a18.73,18.73,0,0,1,3.57-.86l-.51,0a23.62,23.62,0,0,1-4.3,0h-.07l0,0a18.14,18.14,0,0,1-4.07-6.83L61,59.41l.37.12a26.52,26.52,0,0,0,5.11,1.19A29.79,29.79,0,0,1,61,58.91l-.08,0,0-.09a22.65,22.65,0,0,1-.11-10.91l0-.17.18,0c2.4.49,4.65,1,6.7,1.6l.08,0,0,.07a31.61,31.61,0,0,1,1.89,4.47,24.42,24.42,0,0,0-1-4l-.12-.35.36.11a50.1,50.1,0,0,1,7.55,2.89l.05,0,0,0a23.66,23.66,0,0,1,2.15,5.94,26.41,26.41,0,0,0-.83-4.92l-.11-.43.39.22a26.52,26.52,0,0,1,8.15,6.78l0,0v.06a33.44,33.44,0,0,1,.17,3.41,19.41,19.41,0,0,0,.28-2.3l0-.53.31.43a63.79,63.79,0,0,1,5.25,9.35l.28.61ZM67,67.78c4.37,3.71,10.85,5.95,19.27,6.65l6.21.11-.21-3.15-.25-.5A67.33,67.33,0,0,0,87.13,62a13.39,13.39,0,0,1-.67,3.37L86,66.56l.06-1.24A36.66,36.66,0,0,0,86,60.45,26,26,0,0,0,78.35,54,19.43,19.43,0,0,1,79,60.19l-.16,1.19-.22-1.18a29,29,0,0,0-2.41-7.29,49.21,49.21,0,0,0-7.08-2.73,17.52,17.52,0,0,1,1,5.27l0,1.2-.34-1.15a35.92,35.92,0,0,0-2.3-5.81c-2-.55-4.12-1.07-6.41-1.53A22.4,22.4,0,0,0,61.2,58.6a26,26,0,0,0,9.55,2.24l0,.38A23,23,0,0,1,61.64,60a17.74,17.74,0,0,0,3.82,6.27,24.41,24.41,0,0,0,4.16,0c1.16,0,2.6-.11,4.43-.15l0,.39A43.51,43.51,0,0,0,67,67.78Z"/><path class="cls-11" d="M91.64,74.27l-.13,0a25.51,25.51,0,0,1-4.12-2.08c-1.14-.69-2.29-1.47-3.63-2.45-2.27-1.67-4.35-3.37-6.65-5.26l-2.26-1.86c-1.39-1.14-2.83-2.31-4.21-3.49-1.87-1.58-4.1-3.44-6.49-5.31l.24-.31c2.4,1.87,4.63,3.74,6.5,5.32,1.38,1.17,2.81,2.35,4.2,3.48l2.26,1.86C79.66,66,81.74,67.72,84,69.38c1.33,1,2.48,1.74,3.6,2.43a25.15,25.15,0,0,0,4.05,2.05l0,.11.16.14Z"/><path class="cls-12" d="M264.27,96.93a.17.17,0,0,1-.11-.3l1.27-1.12a.17.17,0,0,1,.23.25l-1.27,1.12A.17.17,0,0,1,264.27,96.93Zm2.53-2.26a.17.17,0,0,1-.11-.29l1.23-1.16a.17.17,0,0,1,.23.25l-1.24,1.16A.17.17,0,0,1,266.8,94.67Zm2.45-2.34a.17.17,0,0,1-.12-.29l1.2-1.2a.17.17,0,0,1,.24.24l-1.2,1.2A.17.17,0,0,1,269.25,92.34Zm2.37-2.42a.17.17,0,0,1-.12-.29l1.16-1.24a.17.17,0,0,1,.25.23l-1.16,1.24A.17.17,0,0,1,271.62,89.92Zm2.29-2.49a.17.17,0,0,1-.13-.28l1.11-1.27a.17.17,0,0,1,.26.22L274,87.37A.17.17,0,0,1,273.92,87.42Zm2.21-2.57a.17.17,0,0,1-.13-.28l0,0-1.17,0a.17.17,0,0,1-.16-.17.17.17,0,0,1,.17-.16l1.43,0,.77-.95a.17.17,0,0,1,.26.21l-.65.8a.17.17,0,0,1-.13.28h-.1l-.2.24A.17.17,0,0,1,276.12,84.85Zm2.12-.3a.17.17,0,0,1,0-.34l1.69,0a.16.16,0,0,1,.17.17.17.17,0,0,1-.17.17l-1.7,0Zm3.39-.09a.17.17,0,0,1,0-.34l1.69-.09a.16.16,0,0,1,.18.16.17.17,0,0,1-.16.18l-1.7.09Zm-8.47,0h0l-1.69-.1a.17.17,0,0,1-.16-.18.17.17,0,0,1,.18-.16l1.69.1a.17.17,0,0,1,0,.34ZM285,84.26a.17.17,0,0,1,0-.34l1.68-.15a.17.17,0,0,1,.19.15.17.17,0,0,1-.15.19l-1.69.15Zm-15.23,0h0l-1.69-.16a.17.17,0,1,1,0-.34l1.68.16a.17.17,0,0,1,0,.34Zm18.6-.3a.17.17,0,0,1,0-.34l1.68-.21a.17.17,0,1,1,0,.34l-1.68.21Zm-22,0h0c-.61-.08-1.16-.17-1.68-.27a.17.17,0,0,1,.06-.33c.51.1,1.06.19,1.66.27a.17.17,0,0,1,0,.34Zm25.33-.41a.17.17,0,0,1,0-.34l1.67-.27a.17.17,0,0,1,.06.33l-1.68.28Zm-28.65-.25h0a12.82,12.82,0,0,1-1.62-.57.17.17,0,1,1,.14-.31,12.59,12.59,0,0,0,1.57.56.17.17,0,0,1,0,.33Zm32-.33a.17.17,0,0,1,0-.34l1.66-.34a.17.17,0,0,1,.2.13.17.17,0,0,1-.13.2l-1.66.34Zm-16.84-.68a.17.17,0,0,1-.13-.27l1-1.35a.17.17,0,0,1,.27.2l-1,1.35A.17.17,0,0,1,278.24,82.21Zm20.15,0a.17.17,0,0,1,0-.33l.4-.09a.17.17,0,0,1,.08.33l-.4.09ZM260,81.83a.17.17,0,0,1-.1,0,5.67,5.67,0,0,1-1.25-1.2.17.17,0,1,1,.27-.2,5.31,5.31,0,0,0,1.18,1.13.17.17,0,0,1-.1.31Zm20.25-2.35a.17.17,0,0,1-.14-.27c.35-.5.65-1,.92-1.41a.17.17,0,0,1,.29.17c-.27.45-.57.92-.93,1.43A.17.17,0,0,1,280.26,79.49Zm-22.2-.34a.17.17,0,0,1-.16-.13,5,5,0,0,1-.17-1.31c0-.14,0-.29,0-.43a.18.18,0,0,1,.18-.16.17.17,0,0,1,.16.18c0,.13,0,.27,0,.4a4.71,4.71,0,0,0,.16,1.22.17.17,0,0,1-.12.21ZM282,76.56h-.07a.17.17,0,0,1-.09-.22,7.67,7.67,0,0,0,.49-1.58.17.17,0,1,1,.33.06,8,8,0,0,1-.51,1.65A.17.17,0,0,1,282,76.56Zm-23.66-.73h-.06a.17.17,0,0,1-.1-.22,7.44,7.44,0,0,1,.81-1.53.17.17,0,0,1,.28.19,7.1,7.1,0,0,0-.77,1.46A.17.17,0,0,1,258.29,75.82Zm24.2-2.57a.17.17,0,0,1-.17-.14,4,4,0,0,0-.53-1.44l0-.07a.17.17,0,0,1,.29-.18l0,.07a4.37,4.37,0,0,1,.57,1.56.17.17,0,0,1-.14.19ZM260.17,73a.17.17,0,0,1-.12-.29,11.34,11.34,0,0,1,1.31-1.12.17.17,0,0,1,.2.27A11,11,0,0,0,260.29,73,.17.17,0,0,1,260.17,73Zm2.71-2a.17.17,0,0,1-.08-.32l.18-.1c.43-.23.89-.44,1.37-.64a.17.17,0,0,1,.13.31c-.47.19-.92.4-1.34.63L263,71Zm17.89-.59a.17.17,0,0,1-.1,0,6.65,6.65,0,0,0-1.42-.84.17.17,0,1,1,.14-.31,7,7,0,0,1,1.49.88.17.17,0,0,1-.1.3ZM266,69.72a.17.17,0,0,1,0-.33c.53-.16,1.08-.31,1.65-.44a.17.17,0,0,1,.08.33c-.56.13-1.11.27-1.62.43ZM277.72,69h0a13.81,13.81,0,0,0-1.64-.31.17.17,0,1,1,0-.34,14.14,14.14,0,0,1,1.69.32.17.17,0,0,1,0,.33ZM269.31,69a.17.17,0,0,1,0-.34c.54-.09,1.11-.17,1.69-.23a.17.17,0,0,1,0,.34c-.58.06-1.14.14-1.67.23Zm3.37-.37a.17.17,0,0,1,0-.34c.58,0,1.15,0,1.71,0a.17.17,0,0,1,0,.34h0c-.55,0-1.11,0-1.68,0Z"/><polygon class="cls-5" points="313.09 76.88 300.48 78.27 301.15 82.86 313.09 76.88"/><polygon class="cls-6" points="313.09 76.88 302.41 79.55 301.15 82.86 313.09 76.88"/><polygon class="cls-4" points="313.09 76.88 297.61 75.5 300.48 78.27 313.09 76.88"/><polygon class="cls-4" points="313.09 76.88 302.41 79.55 306.09 82.62 313.09 76.88"/><path class="cls-11" d="M198.41,34.48c-2.55,0-3.55,1.05-3.55,3.31,0,.21-.4.21-.4,0,0-2.26-.81-3.31-3.55-3.31-.21,0-.21-.4,0-.4,2.83,0,3.55-1.31,3.55-3.31,0-.21.4-.21.4,0,0,2.38,1,3.31,3.55,3.31C198.62,34.08,198.62,34.48,198.41,34.48Z"/><path class="cls-11" d="M106.87,17.07c-5.39,0-7.51,2.22-7.51,7,0,.44-.84.44-.84,0,0-4.79-1.7-7-7.51-7-.43,0-.43-.84,0-.84,6,0,7.51-2.77,7.51-7,0-.44.84-.44.84,0,0,5,2,7,7.51,7C107.3,16.23,107.3,17.07,106.87,17.07Z"/><path class="cls-7" d="M110.23,187.76c-3,0-4.13,1.22-4.13,3.85,0,.24-.46.24-.46,0,0-2.63-.94-3.85-4.13-3.85-.24,0-.24-.46,0-.46,3.29,0,4.13-1.52,4.13-3.85,0-.24.46-.24.46,0,0,2.77,1.12,3.85,4.13,3.85C110.47,187.3,110.47,187.76,110.23,187.76Z"/><path class="cls-7" d="M274.51,121.63c-3,0-4.13,1.22-4.13,3.85,0,.24-.46.24-.46,0,0-2.63-.94-3.85-4.13-3.85-.24,0-.24-.46,0-.46,3.29,0,4.13-1.52,4.13-3.85,0-.24.46-.24.46,0,0,2.77,1.12,3.85,4.13,3.85C274.74,121.17,274.74,121.63,274.51,121.63Z"/><path class="cls-7" d="M275.61,46.88c-4.53,0-6.32,1.87-6.32,5.9,0,.37-.7.37-.7,0,0-4-1.43-5.9-6.32-5.9-.37,0-.37-.71,0-.71,5,0,6.32-2.33,6.32-5.89,0-.37.7-.37.7,0,0,4.24,1.72,5.89,6.32,5.89C276,46.17,276,46.88,275.61,46.88Z"/><path class="cls-13" d="M137.49,20.1c8.58-8.58,24.12-11.4,36.36,17.33,7.45,17.48,15.53,10.63,21.09,20.49,3.9,6.9.47,15.9,2.86,23.3,3.57,11,18.05,10.18,18.05,30.45,0,24.88-116.26,36.36-142.58,8.55C62.65,109,76.14,100.58,81,92.94c4.09-6.4-3.33-12.43-3.33-22.68s17.8-19.6,20-25.32c3.1-7.91,0-24.1,17.9-29.23C126.4,12.63,137.49,20.1,137.49,20.1Z"/><path class="cls-14" d="M137.35,37.43c10.27,0,24.1,9.68,23.25,28.39-.73,16-7.36,20.67-11.63,22.65l2.15,10.74,15.88,8,4.77,10.26L144.9,140.11l-27.48-19.33,2.93-14.14,9.76-9.11.3-8.76S119.23,80.9,119.23,67C119.23,51,126.78,37.43,137.35,37.43Z"/><path class="cls-15" d="M133.87,79.41a.75.75,0,0,1-.49-1.32c4.86-4.26,10.32-4.24,14.59,0a.75.75,0,1,1-1.06,1.06c-5.27-5.27-10.52-1.73-12.54,0A.75.75,0,0,1,133.87,79.41Z"/><ellipse class="cls-15" cx="147.53" cy="59.39" rx="1.97" ry="3.59"/><ellipse class="cls-15" cx="132.08" cy="59.39" rx="1.97" ry="3.59"/><path class="cls-13" d="M137.35,37.43s2.43,12.86,25.87,13.2l1.66-15.71L138.3,27.76l-29.92,8.38,2.44,13.33S134.58,57.23,137.35,37.43Z"/><path class="cls-16" d="M216.26,144.23s7.57-.28,9.25-3.56c0,0,3.92,2.55-1.21,5.59S216.26,144.23,216.26,144.23Z"/><path class="cls-14" d="M207.59,154.21s2.34-8.93,7.88-9.88c9-1.56,14.52,3.66,17.57,3.66,10.15,0,12.54-2.44,13.94-4.8,0,0,4.14,2-.6,5.68C243.7,151,240,152.46,229,152.73c-3.8.09-10.7,5-12.92,8Z"/><polygon class="cls-17" points="203.65 155.6 205.64 150.8 222.73 161.89 215.07 168.84 203.65 155.6"/><path class="cls-16" d="M68,141.87s-7.57-.28-9.25-3.56c0,0-3.92,2.55,1.21,5.59S68,141.87,68,141.87Z"/><path class="cls-14" d="M79,152.16s-2.34-8.93-7.88-9.88c-9-1.56-16.28,2-19.28,2.59-7,1.31-11.08-2.41-12.48-4.77,0,0-5.39,2.61,1.78,7.79,3.31,2.39,5.44,2.53,16.39,2.8,3.8.09,10.7,5,12.92,8Z"/><polygon class="cls-17" points="84.14 150.61 80.71 147.89 66.28 159.36 72.43 164.09 84.14 150.61"/><path class="cls-17" d="M142.23,125.48s13.91-11.57,13-17.09a20.39,20.39,0,0,0-4.1-9.18l22.89,12s10.41,62.16,1.22,81.45l-4.9,8.57s-22.86,12.55-52.92,0l-7.09-13.47-4.9-63.38s2.41-12.3,3.75-13.22,20.93-13.62,20.93-13.62-2.32,7.24-.18,13.67S142.23,125.48,142.23,125.48Z"/><path class="cls-18" d="M122.28,151.77s10.6,8.59,17.07,6.48a18.11,18.11,0,0,1-15.66.33C115.25,154.74,122.28,151.77,122.28,151.77Z"/><path class="cls-18" d="M127.24,160.78l2.2,12.88,1.73,20.84,1.29,11.2s-8.46-.78-10-2.49S127.24,160.78,127.24,160.78Z"/><path class="cls-18" d="M159.5,159.82l-.35,10v13.9l5.78,19.72s3.22-.35,4.62-2.17S159.5,159.82,159.5,159.82Z"/><path class="cls-18" d="M165.49,151.77s-10.6,8.59-17.07,6.48a18.11,18.11,0,0,0,15.66.33C172.52,154.74,165.49,151.77,165.49,151.77Z"/><path class="cls-6" d="M203.65,227.06c-1.38,0-18.08,6.47-24.62,5.78,0,0-16.29-45.52-17.32-54.13s-8.43-73.89-10.58-79.49c0,0,35.16,12.32,38.83,18.17s6.55,43.06,6.55,43.06l6.89-8.28,16.19,17.24s-26.87,18.26-31.35,17.22a21.33,21.33,0,0,1-6.51-2.39Z"/><path class="cls-6" d="M130.11,97.53s-1.47,127.82-10.18,137.93L90.29,226l9.06-11.16,6.08-25.8a9.09,9.09,0,0,1-6.78,1c-3.49-1-28.24-25.8-28.24-25.8L83.66,149l8,6s3.08-26.19,6.2-36.85C106.76,110.49,117.42,104.17,130.11,97.53Z"/><path class="cls-19" d="M172.76,133.49s4.78,49.25,9,50.74c.89,2,2.06,4,2.06,4l-5.9-4.05-4.44-17.71Z"/><path class="cls-19" d="M108.72,133.49s3,49.25-1.23,50.74c-.89,2-2.06,4-2.06,4l5.9-4.05.57-14.14Z"/></g></g></svg>