<svg xmlns="http://www.w3.org/2000/svg" viewBox="0 0 750 500"><defs><style>.cls-1{fill:#ebebeb;}.cls-2{fill:#e0e0e0;}.cls-3{fill:#f5f5f5;}.cls-4{fill:#fff;}.cls-5{fill:#263238;}.cls-6{fill:#455a64;}.cls-7{fill:#e8505b;}.cls-8{opacity:0.8;}.cls-9{opacity:0.4;}.cls-10{opacity:0.5;}.cls-11{fill:#fafafa;}.cls-12{opacity:0.3;}.cls-13{fill:#b78876;}.cls-14{fill:#aa6550;}</style></defs><title>forgot-password</title><g id="Background_Complete" data-name="Background Complete"><path class="cls-1" d="M66.86,216.43s-8.35-.6-7.58,18.14S62,263.28,62,263.28s-.25,4.15-3.46,3.34-9.27-4.86-12.26-1.84-2,7.94,2.11,13.6S61,296.79,61.79,297.94s1.06,3.26-1.22,3.05-17.68-5.42-19.71,2,12,21.35,13.52,22.9,1.59,2.53,1,3.46-5.62-1.3-10.06-2.61-9.82-2-10.63,2.36S40,346.41,63.2,359.94l11.15,5.57,10.55-6.73c21.7-15.78,26.57-29.21,25.32-33.5s-6.53-3-10.81-1.28-9,4.47-9.75,3.6-.72-1.85.63-3.54,13.93-16.92,11.16-24.13-17.57-.48-19.82,0-2.16-1.71-1.52-2.92,7.89-14.75,11.41-20.8,4.14-10.94.74-13.75-8.89,1.92-12,3.05-3.78-3-3.78-3,.9-10.12-.21-28.84-9.56-17.21-9.56-17.21"/><path class="cls-2" d="M67.52,233.21s0,.13,0,.39l.09,1.15.3,4.42c.26,3.84.58,9.41,1,16.28.76,13.75,1.66,32.76,2.57,53.75s1.76,40,2.45,53.76l.83,16.29.22,4.43,0,1.15c0,.26,0,.39,0,.39s0-.13,0-.39l-.09-1.15-.3-4.42c-.26-3.84-.58-9.41-1-16.28-.76-13.75-1.66-32.76-2.57-53.76s-1.76-40-2.45-53.75l-.83-16.29-.22-4.43,0-1.15C67.51,233.34,67.52,233.21,67.52,233.21Z"/><path class="cls-2" d="M54.48,270.78a3.66,3.66,0,0,1,.69.58c.43.39,1,1,1.77,1.7,1.47,1.46,3.45,3.52,5.59,5.84l5.45,6,1.66,1.8a3.67,3.67,0,0,1,.58.69,3.68,3.68,0,0,1-.7-.57c-.43-.39-1-1-1.76-1.71-1.46-1.47-3.41-3.56-5.55-5.88l-5.49-5.92-1.67-1.79A3.68,3.68,0,0,1,54.48,270.78Z"/><ellipse class="cls-2" cx="80.58" cy="277.6" rx="13.18" ry="0.21" transform="translate(-173.64 140.03) rotate(-45.39)"/><path class="cls-2" d="M71.28,319.29a3.83,3.83,0,0,1,.78-.49l2.18-1.22c1.84-1,4.38-2.47,7.12-4.16s5.18-3.28,6.93-4.46l2.08-1.39a3.83,3.83,0,0,1,.79-.47,3.83,3.83,0,0,1-.7.6c-.46.37-1.15.88-2,1.5-1.71,1.24-4.13,2.89-6.88,4.57s-5.32,3.09-7.2,4.06c-.94.48-1.71.86-2.25,1.11A3.82,3.82,0,0,1,71.28,319.29Z"/><path class="cls-2" d="M52.81,308a3.28,3.28,0,0,1,.77.36c.48.26,1.17.64,2,1.12,1.7,1,4,2.32,6.59,3.84s4.87,2.92,6.52,4c.83.52,1.5.94,2,1.24a3.28,3.28,0,0,1,.69.5,3.27,3.27,0,0,1-.77-.36c-.48-.26-1.17-.64-2-1.12-1.7-1-4-2.32-6.59-3.84s-4.86-2.92-6.52-4c-.83-.52-1.5-.94-2-1.24A3.28,3.28,0,0,1,52.81,308Z"/><path class="cls-2" d="M49.15,336.5a5.32,5.32,0,0,1,1,.47l2.59,1.43c2.18,1.22,5.18,2.94,8.48,4.86s6.27,3.68,8.42,5l2.53,1.55a5.34,5.34,0,0,1,.9.62,5.33,5.33,0,0,1-1-.47l-2.59-1.43c-2.18-1.22-5.18-2.94-8.48-4.86s-6.27-3.68-8.42-5L50,337.12A5.36,5.36,0,0,1,49.15,336.5Z"/><path class="cls-2" d="M72.56,349.91a6.14,6.14,0,0,1,1-.65l2.71-1.65c2.29-1.39,5.44-3.33,8.86-5.56s6.47-4.32,8.67-5.85l2.61-1.81a6.07,6.07,0,0,1,1-.62,6.15,6.15,0,0,1-.89.76c-.59.47-1.45,1.13-2.53,1.92-2.15,1.6-5.18,3.73-8.61,6s-6.61,4.13-8.94,5.46c-1.17.66-2.12,1.19-2.78,1.53A6.1,6.1,0,0,1,72.56,349.91Z"/><polygon class="cls-2" points="89.32 369.15 58.48 369.15 68.54 445.35 79.25 445.35 89.32 369.15"/><path class="cls-3" d="M60.08,378.52s0,.11.16.27a2,2,0,0,0,.74.53,3.73,3.73,0,0,0,3.26-.4c1.25-.69,2.33-2,4-2.63a8.75,8.75,0,0,1,5.67.11A24.28,24.28,0,0,1,79.2,379a36.63,36.63,0,0,0,4.29,2.3,11.86,11.86,0,0,0,3.17.92,5.8,5.8,0,0,0,.89.06c.21,0,.31,0,.31,0a16.08,16.08,0,0,1-4.23-1.28,42.18,42.18,0,0,1-4.2-2.38,23.43,23.43,0,0,0-5.37-2.64,9.05,9.05,0,0,0-6-.07,7.88,7.88,0,0,0-2.25,1.39,17.64,17.64,0,0,1-1.77,1.37,3.62,3.62,0,0,1-3,.52A3.08,3.08,0,0,1,60.08,378.52Z"/><path class="cls-3" d="M61.2,392.55s.24-.31.73-.82a6.86,6.86,0,0,1,2.46-1.56,11,11,0,0,1,4.29-.65,45.09,45.09,0,0,1,5.37.73,18.46,18.46,0,0,0,5.5.23,15.13,15.13,0,0,0,4.32-1.23,13.73,13.73,0,0,0,2.6-1.55,3.69,3.69,0,0,0,.82-.74,27.54,27.54,0,0,1-3.57,2,15.78,15.78,0,0,1-4.24,1.1,18.93,18.93,0,0,1-5.36-.26,40.42,40.42,0,0,0-5.43-.7,10.86,10.86,0,0,0-4.44.78,6.48,6.48,0,0,0-2.47,1.76,4.39,4.39,0,0,0-.47.68C61.23,392.45,61.19,392.54,61.2,392.55Z"/><path class="cls-3" d="M85.83,400.06a2.61,2.61,0,0,0-.85-.44,9.1,9.1,0,0,0-2.56-.55,16.32,16.32,0,0,0-3.86.22c-1.44.23-3,.63-4.6,1a19.41,19.41,0,0,1-4.59.52,10,10,0,0,1-3.65-.79A8.42,8.42,0,0,1,63,397.94a2.38,2.38,0,0,0,.52.81,6.52,6.52,0,0,0,2.09,1.58,9.83,9.83,0,0,0,3.78.93,18.54,18.54,0,0,0,4.72-.49c1.64-.35,3.17-.76,4.57-1a17.67,17.67,0,0,1,3.77-.32A14.16,14.16,0,0,1,85.83,400.06Z"/><path class="cls-3" d="M63.93,410.63a5,5,0,0,1,3-.3,14.5,14.5,0,0,1,3.13,1.17,11.89,11.89,0,0,0,4.07,1.12,12.2,12.2,0,0,0,7.38-1.71,10.5,10.5,0,0,0,1.84-1.41c.38-.4.57-.63.54-.65a26.94,26.94,0,0,1-2.56,1.76,12.64,12.64,0,0,1-7.15,1.52C71.25,411.95,69,410.21,67,410a4.59,4.59,0,0,0-2.33.2A1.52,1.52,0,0,0,63.93,410.63Z"/><path class="cls-3" d="M65.65,425.26a5.91,5.91,0,0,0,2.57-.51c1.55-.52,3.47-1.71,5.71-2.6a9.29,9.29,0,0,1,3.28-.69,6,6,0,0,1,2.64.6,5.83,5.83,0,0,1,1.91,1.64,1.4,1.4,0,0,0-.29-.65A4.23,4.23,0,0,0,80,421.75a6,6,0,0,0-2.8-.75,9.19,9.19,0,0,0-3.46.68c-2.32.93-4.18,2.15-5.66,2.74S65.64,425.18,65.65,425.26Z"/><path class="cls-3" d="M67.16,432.06a7.19,7.19,0,0,0,2,.63,35.88,35.88,0,0,0,9.83,1,7.2,7.2,0,0,0,2-.24c0-.15-3.13,0-6.94-.4S67.2,431.91,67.16,432.06Z"/><path class="cls-3" d="M692.18,54.18,635.41,33.8,579.18,53.91C572,57.3,565.71,59.33,565.71,66V99.31a125.82,125.82,0,0,0,18.52,66.26A115.28,115.28,0,0,0,636,211.25c23-7.47,40.14-27.37,50.62-44.39a125.82,125.82,0,0,0,18.52-66.26V70.67C705.11,61.13,700.05,56.48,692.18,54.18Z"/><path class="cls-1" d="M636,191.93c-19.78-8.81-32.63-23-40.93-36.44a99.55,99.55,0,0,1-14.65-52.42V79.72c0-5.29,3.19-10.24,9.53-13.2l45.51-17V33.8L579.18,53.91c-5.9,2.58-13.47,5.42-13.47,12.11V99.31a125.82,125.82,0,0,0,18.52,66.26A115.28,115.28,0,0,0,636,211.25Z"/><path class="cls-2" d="M636,211.25a68.48,68.48,0,0,0,11.15-4.78,100.1,100.1,0,0,0,23.6-18.57c6.86-7.14,12-14.85,16.42-22.06a121.12,121.12,0,0,0,18-66.89l0-27.49c0-13.69-7.05-14.7-13-17.27L635.41,33.8V49.5l46,17.29c6.34,3,9.53,7.91,9.53,13.2v23.35a99.55,99.55,0,0,1-14.65,52.42c-8.3,13.47-20.59,27.35-40.37,36.17Z"/><path class="cls-2" d="M650.47,101.57l.06-4.49a14.74,14.74,0,0,0-29.48,0l-.06,4.58a8.24,8.24,0,0,0-7,8.15v26.5a8.25,8.25,0,0,0,8.25,8.25h27.51a8.25,8.25,0,0,0,8.25-8.25v-26.5A8.25,8.25,0,0,0,650.47,101.57Zm-10.75,28.12h-7.2l1.12-5.2a4.38,4.38,0,1,1,4.75-.08C638.91,126.42,639.72,129.69,639.72,129.69Zm7.57-28.15H624.17l.06-4.46a11.56,11.56,0,0,1,23.13,0Z"/><path class="cls-4" d="M589.58,101.25c-.13,0-.52-1.73-.85-4.61a79,79,0,0,1-.46-11.3c.06-2.21.21-4.31.41-6.22a13.32,13.32,0,0,1,1.27-5,5.76,5.76,0,0,1,2.49-2.5c.77-.36,1.25-.34,1.26-.29a6.43,6.43,0,0,0-3.12,3.1,13.83,13.83,0,0,0-1,4.79c-.15,1.89-.27,4-.33,6.17-.13,4.38,0,8.34.17,11.21S589.73,101.23,589.58,101.25Z"/><ellipse class="cls-4" cx="590.35" cy="112.67" rx="0.5" ry="3.07" transform="matrix(1, -0.02, 0.02, 1, -2.1, 11.61)"/></g><g id="Floor"><path class="cls-5" d="M717.62,445.41c0,.14-152.64.26-340.89.26s-340.93-.12-340.93-.26,152.61-.26,340.93-.26S717.62,445.27,717.62,445.41Z"/></g><g id="Device"><path class="cls-6" d="M596,62.06H162A13.54,13.54,0,0,0,148.48,75.6V382.09A13.54,13.54,0,0,0,162,395.64H328.57s10.59,32.76-22.25,49.71H462S425,432.64,434.5,395.64H596a13.55,13.55,0,0,0,13.54-13.54V75.6A13.55,13.55,0,0,0,596,62.06Z"/><path class="cls-5" d="M384.79,363.4c5.9,8.44-3.34,17.67-11.77,11.77a3,3,0,0,1-.73-.73c-5.89-8.43,3.34-17.66,11.77-11.77A3,3,0,0,1,384.79,363.4Z"/><path class="cls-4" d="M165.65,67.67H592.33a9.7,9.7,0,0,1,9.7,9.7v262.2a0,0,0,0,1,0,0H156a0,0,0,0,1,0,0V77.37A9.7,9.7,0,0,1,165.65,67.67Z"/><path class="cls-1" d="M165.11,67.67H594.51A7.52,7.52,0,0,1,602,75.19V90.26a0,0,0,0,1,0,0H156a0,0,0,0,1,0,0V76.82A9.15,9.15,0,0,1,165.11,67.67Z"/><circle class="cls-2" cx="170.16" cy="79.44" r="3.13"/><circle class="cls-2" cx="179.5" cy="79.44" r="3.13"/><circle class="cls-2" cx="188.38" cy="79.44" r="3.13"/><path class="cls-5" d="M518.38,395.68c0,.14-61.75.26-137.9.26s-137.91-.12-137.91-.26,61.74-.26,137.91-.26S518.38,395.54,518.38,395.68Z"/><path class="cls-7" d="M447.89,128.52l-68-25.05-67.35,24.72c-8.6,4.17-16.14,6.66-16.14,14.88V184a157.6,157.6,0,0,0,22.19,81.41c12.56,20.91,32,42.45,62,56.14,27.53-9.17,48.08-33.63,60.65-54.54a157.6,157.6,0,0,0,22.19-81.41V148.78C463.37,137.06,457.32,131.34,447.89,128.52Z"/><g class="cls-8"><path class="cls-4" d="M447.89,128.52l-68-25.05-67.35,24.72c-8.6,4.17-16.14,6.66-16.14,14.88V184a157.6,157.6,0,0,0,22.19,81.41c12.56,20.91,32,42.45,62,56.14,27.53-9.17,48.08-33.63,60.65-54.54a157.6,157.6,0,0,0,22.19-81.41V148.78C463.37,137.06,457.32,131.34,447.89,128.52Z"/></g><path class="cls-7" d="M421.41,232.08h-12.5v-68a29,29,0,1,0-58.07,0v68h-12.5v-68a41.53,41.53,0,1,1,83.07,0Z"/><g class="cls-9"><path d="M421.41,232.08h-12.5v-68a29,29,0,1,0-58.07,0v68h-12.5v-68a41.53,41.53,0,1,1,83.07,0Z"/></g><rect class="cls-7" x="323.9" y="201.82" width="111.95" height="71.82" rx="5.81" ry="5.81"/><g class="cls-10"><path d="M389.23,228.38a9.36,9.36,0,1,0-11.91,9v14h5.11v-14A9.33,9.33,0,0,0,389.23,228.38Z"/></g><ellipse class="cls-11" cx="329.87" cy="240.08" rx="0.46" ry="26.75"/><path class="cls-11" d="M372.55,240.37s-.44-.15-1.1-.62a11.44,11.44,0,0,1-2.41-2.46,13.11,13.11,0,0,1,4.66-19.68A11.44,11.44,0,0,1,377,216.5a2.88,2.88,0,0,1,1.26-.06,29.19,29.19,0,0,0-4.2,1.76,13,13,0,0,0-4.43,18.73A29.16,29.16,0,0,0,372.55,240.37Z"/><path class="cls-7" d="M464,305.66s.27-.37.81-1.09l.46-.6c.15-.23.29-.5.46-.79a12.28,12.28,0,0,0,1-2.06c.16-.41.35-.83.51-1.29l.41-1.48a10.44,10.44,0,0,0,.34-1.65,17.55,17.55,0,0,0,.25-1.82,34.39,34.39,0,0,0-.4-8.77c-1-6.56-3.8-14.29-8.06-22.69a177.15,177.15,0,0,0-17.3-26.9,275.34,275.34,0,0,0-25.8-29,315.53,315.53,0,0,0-33.87-28.91c-6.32-4.65-13-9.15-20-13.4a193.24,193.24,0,0,0-22.24-11.66,103.9,103.9,0,0,0-24.74-7.76,43.75,43.75,0,0,0-13.19-.32,24.73,24.73,0,0,0-6.37,1.85A15.89,15.89,0,0,0,287.6,157a24.73,24.73,0,0,0-1.11,6.54,43.64,43.64,0,0,0,1.82,13.08,103.84,103.84,0,0,0,10.52,23.71,193.27,193.27,0,0,0,14.12,20.77c5,6.5,10.26,12.62,15.59,18.37a315.53,315.53,0,0,0,32.58,30.36,275.35,275.35,0,0,0,31.73,22.33,177.15,177.15,0,0,0,28.7,14.13c8.83,3.28,16.82,5.16,23.45,5.42a34.4,34.4,0,0,0,8.76-.6,17.61,17.61,0,0,0,1.78-.46,10.42,10.42,0,0,0,1.6-.53l1.43-.57c.44-.21.83-.45,1.22-.66a12.28,12.28,0,0,0,1.92-1.25c.26-.2.52-.37.73-.55l.54-.52c.65-.62,1-.93,1-.93s-.32.33-1,1l-.54.53c-.21.18-.46.36-.73.56a12.16,12.16,0,0,1-1.92,1.28c-.38.21-.78.45-1.22.67l-1.43.59a10.47,10.47,0,0,1-1.61.54,17.64,17.64,0,0,1-1.79.47,34.35,34.35,0,0,1-8.8.65c-6.66-.23-14.69-2.09-23.55-5.35a176.56,176.56,0,0,1-28.78-14.08,274.49,274.49,0,0,1-31.81-22.31,314.87,314.87,0,0,1-32.66-30.37c-5.35-5.76-10.6-11.88-15.63-18.39a193.46,193.46,0,0,1-14.16-20.82,104.25,104.25,0,0,1-10.58-23.83A44.13,44.13,0,0,1,286,163.54a25.24,25.24,0,0,1,1.14-6.69,16.4,16.4,0,0,1,8.91-10,25.24,25.24,0,0,1,6.52-1.89,44.24,44.24,0,0,1,13.35.33,104.3,104.3,0,0,1,24.87,7.8A193.44,193.44,0,0,1,363,164.82c7,4.26,13.72,8.78,20,13.44a314.87,314.87,0,0,1,33.89,29,274.5,274.5,0,0,1,25.79,29.06,176.57,176.57,0,0,1,17.27,27c4.24,8.43,7,16.19,8,22.79a34.34,34.34,0,0,1,.36,8.82,17.56,17.56,0,0,1-.27,1.83,10.51,10.51,0,0,1-.36,1.66l-.42,1.49c-.17.46-.36.88-.53,1.29a12.15,12.15,0,0,1-1.06,2.06c-.17.28-.31.56-.47.79l-.47.59C464.25,305.31,464,305.66,464,305.66Z"/><path class="cls-7" d="M496,228.39s0-.46-.12-1.35l-.06-.75c0-.27-.12-.57-.18-.89a12.28,12.28,0,0,0-.6-2.22c-.15-.41-.29-.85-.47-1.3l-.68-1.38A10.45,10.45,0,0,0,493,219a17.56,17.56,0,0,0-1-1.53,34.39,34.39,0,0,0-6.14-6.28c-5.12-4.22-12.34-8.14-21.11-11.57a177.16,177.16,0,0,0-30.82-8.56,275.32,275.32,0,0,0-38.54-4.45,315.51,315.51,0,0,0-44.52,1c-7.81.74-15.79,1.82-23.86,3.33a193.26,193.26,0,0,0-24.36,6.1A103.89,103.89,0,0,0,279,207.73,43.75,43.75,0,0,0,269,216.27a24.73,24.73,0,0,0-3.53,5.62,15.89,15.89,0,0,0,0,13,24.73,24.73,0,0,0,3.53,5.62A43.64,43.64,0,0,0,279,249a103.84,103.84,0,0,0,23.63,10.69,193.26,193.26,0,0,0,24.36,6.1c8.07,1.51,16.05,2.59,23.86,3.33a315.52,315.52,0,0,0,44.52,1,275.33,275.33,0,0,0,38.54-4.45,177.15,177.15,0,0,0,30.82-8.56c8.77-3.43,16-7.35,21.11-11.57a34.4,34.4,0,0,0,6.14-6.28,17.6,17.6,0,0,0,1-1.53,10.45,10.45,0,0,0,.84-1.46l.68-1.38c.18-.45.32-.89.47-1.3a12.27,12.27,0,0,0,.6-2.22c.07-.32.14-.62.18-.89l.06-.75c.07-.89.12-1.35.12-1.35s0,.46-.07,1.35l0,.75c0,.28-.11.57-.17.9a12.14,12.14,0,0,1-.58,2.24c-.15.41-.28.86-.46,1.31l-.67,1.39a10.48,10.48,0,0,1-.84,1.48,17.63,17.63,0,0,1-1,1.54A34.35,34.35,0,0,1,486,245.7c-5.13,4.26-12.35,8.22-21.13,11.68A176.55,176.55,0,0,1,434,266a274.48,274.48,0,0,1-38.59,4.52,314.87,314.87,0,0,1-44.59-.92c-7.83-.74-15.82-1.81-23.91-3.32a193.47,193.47,0,0,1-24.43-6.11,104.25,104.25,0,0,1-23.75-10.74,44.13,44.13,0,0,1-10.18-8.65,25.24,25.24,0,0,1-3.6-5.75,16.4,16.4,0,0,1,0-13.37,25.24,25.24,0,0,1,3.61-5.75,44.24,44.24,0,0,1,10.18-8.64,104.3,104.3,0,0,1,23.75-10.73,193.46,193.46,0,0,1,24.42-6.11c8.09-1.51,16.08-2.58,23.91-3.32a314.89,314.89,0,0,1,44.58-.92A274.5,274.5,0,0,1,434,190.74a176.57,176.57,0,0,1,30.86,8.65c8.78,3.47,16,7.42,21.13,11.68a34.34,34.34,0,0,1,6.14,6.34,17.55,17.55,0,0,1,1,1.54,10.5,10.5,0,0,1,.84,1.48l.67,1.39c.18.45.32.9.46,1.31a12.16,12.16,0,0,1,.58,2.24c.06.33.14.62.17.9l0,.75C496,227.93,496,228.39,496,228.39Z"/><path class="cls-7" d="M453.56,132.2s-.39-.24-1.14-.73l-.63-.41c-.24-.14-.52-.26-.82-.4a12.27,12.27,0,0,0-2.12-.88c-.42-.13-.85-.29-1.32-.42L446,129a10.45,10.45,0,0,0-1.67-.23,17.5,17.5,0,0,0-1.83-.13,34.39,34.39,0,0,0-8.72,1c-6.48,1.46-14,4.77-22.08,9.6a177.16,177.16,0,0,0-25.65,19.11,275.35,275.35,0,0,0-27.13,27.73,315.52,315.52,0,0,0-26.51,35.78c-4.2,6.63-8.24,13.59-12,20.9a193.27,193.27,0,0,0-10.1,23,103.89,103.89,0,0,0-6,25.22,43.75,43.75,0,0,0,.58,13.19,24.73,24.73,0,0,0,2.28,6.23,15.89,15.89,0,0,0,10.24,8A24.73,24.73,0,0,0,324,319a43.64,43.64,0,0,0,12.92-2.71,103.85,103.85,0,0,0,22.93-12.13,193.27,193.27,0,0,0,19.75-15.51c6.14-5.45,11.88-11.1,17.25-16.82a315.54,315.54,0,0,0,28-34.59A275.35,275.35,0,0,0,445,204.08a177.15,177.15,0,0,0,12.12-29.6c2.66-9,4-17.14,3.79-23.77a34.4,34.4,0,0,0-1.2-8.7,17.62,17.62,0,0,0-.58-1.74,10.44,10.44,0,0,0-.64-1.56l-.67-1.38c-.24-.42-.51-.8-.74-1.17a12.28,12.28,0,0,0-1.38-1.83c-.22-.25-.4-.49-.6-.69l-.56-.51c-.66-.6-1-.92-1-.92s.35.29,1,.88l.57.5c.2.2.39.44.61.69a12.16,12.16,0,0,1,1.41,1.83c.24.37.51.75.75,1.17l.69,1.39a10.49,10.49,0,0,1,.65,1.57,17.66,17.66,0,0,1,.59,1.75,34.36,34.36,0,0,1,1.26,8.73c.23,6.66-1.08,14.8-3.71,23.86a176.55,176.55,0,0,1-12.07,29.69,274.51,274.51,0,0,1-20.07,33.27,314.88,314.88,0,0,1-28,34.67c-5.38,5.73-11.12,11.39-17.27,16.86a193.45,193.45,0,0,1-19.79,15.56,104.26,104.26,0,0,1-23,12.19A44.13,44.13,0,0,1,324,319.56a25.24,25.24,0,0,1-6.75-.68,16.4,16.4,0,0,1-10.56-8.2,25.24,25.24,0,0,1-2.33-6.37,44.24,44.24,0,0,1-.59-13.34,104.3,104.3,0,0,1,6.07-25.34,193.43,193.43,0,0,1,10.14-23c3.76-7.32,7.81-14.29,12-20.93a314.88,314.88,0,0,1,26.58-35.8,274.5,274.5,0,0,1,27.22-27.73A176.57,176.57,0,0,1,411.57,139c8.12-4.82,15.67-8.11,22.18-9.55a34.35,34.35,0,0,1,8.77-1,17.58,17.58,0,0,1,1.84.14,10.49,10.49,0,0,1,1.68.24l1.51.32c.47.14.91.3,1.32.44a12.16,12.16,0,0,1,2.12.91c.3.15.58.28.82.42l.62.43C453.19,131.93,453.56,132.2,453.56,132.2Z"/><circle class="cls-7" cx="259.47" cy="279.35" r="4.31" transform="translate(-121.53 265.29) rotate(-45)"/><circle class="cls-7" cx="501.47" cy="142.7" r="4.31"/><circle class="cls-7" cx="288.65" cy="290.48" r="1.1"/><circle class="cls-7" cx="312.03" cy="169.66" r="1.1"/><circle class="cls-7" cx="483.03" cy="228.39" r="1.1"/><circle class="cls-7" cx="498.26" cy="177.3" r="1.1"/></g><g id="Plant"><path class="cls-7" d="M675.52,340.9a37.29,37.29,0,0,1,16-5.49c2.61-.27,5.46-.19,7.55,1.39a1.55,1.55,0,0,1,.78,1.38,1.68,1.68,0,0,1-.74.94c-6.49,5-16.31,5.58-23.54,1.78"/><path class="cls-7" d="M675.93,340.45a77.82,77.82,0,0,0,10.31-9.07,26.07,26.07,0,0,0,6.46-11.95,4.82,4.82,0,0,0-.51-4c-8.22,6.42-14.67,14.71-16.26,25"/><path class="cls-7" d="M675.61,340.84a37.27,37.27,0,0,0-.19-13.53,18.3,18.3,0,0,0-7.21-11.17c-1.42,3.32-.81,7.14.19,10.61a51.56,51.56,0,0,0,7.15,15"/><path class="cls-7" d="M667.55,355.27c4.89.59,9.15,3.17,12.8,6.48a24.21,24.21,0,0,1,7.32,12.57c-4.8-.3-8.86-3.68-11.81-7.47s-5-8-8.24-11.5"/><path class="cls-7" d="M665.8,357.58a31.56,31.56,0,0,0-3.64-29.86c-2.79,9.91-1.76,21.1,3.64,29.86"/><path class="cls-7" d="M655.16,370.25A22.82,22.82,0,0,1,677,382.81c.27.54.51,1.23.15,1.71a1.62,1.62,0,0,1-1.45.43c-4.3-.28-8.11-2.87-11.26-5.81s-5.89-6.35-9.36-8.9"/><path class="cls-7" d="M655.5,369.56a40.64,40.64,0,0,0,.41-22.7c-.8-2.92-2.14-6-4.84-7.37a1,1,0,0,0-.74-.13,1,1,0,0,0-.47.54,13.68,13.68,0,0,0-1.14,6.51,40.85,40.85,0,0,0,1,6.59c.85,4,1.3,8.36,3.51,11.84a24,24,0,0,1,1.41,2.6c.42.88.42,1.19.81,1.9"/><path class="cls-7" d="M627.33,373.76c2.09-7.94-.13-17.56-5.13-24.07-.37-.48-.86-1-1.46-.94-.92.09-1.16,1.31-1.12,2.24a43.49,43.49,0,0,0,7.71,22.77"/><path class="cls-7" d="M624.79,375.49c-9.64,2.51-20.71.07-28.73-5.84a23.26,23.26,0,0,1,15.55-1.91c5.2,1.19,9.94,3.52,13.18,7.75"/><path class="cls-7" d="M622.65,370.21c-5.4-8.81-15.76-14.55-26.07-15.08,1.19,4.2,4.64,7.46,8.53,9.43s8.23,2.83,12.52,3.66c1.67.32,3.95.68,5,2"/><path class="cls-7" d="M626.8,344.56c-1.46-5-2.93-10.07-3.33-15.27s.34-10.64,3-15.1c5,9.76,5.56,21.17.44,30.9"/><path class="cls-7" d="M609.81,336c-5.9-10.72-17.94-19.29-30.12-20.49,4.7,11.7,17.51,20.74,30.12,20.49"/><path class="cls-7" d="M613.52,338.08c-8.8,1.34-16.3,7-24.52,10.37a11,11,0,0,1-5.54,1.06,4.34,4.34,0,0,1-2.72-7.68,11.86,11.86,0,0,1,4-2.44c9-3.73,18.56-3.82,28-1.56"/><path class="cls-7" d="M618.62,344.25c-2,.57-2.67,1.6-4.25,2.95a45.86,45.86,0,0,1-18.59,9.55c-.71.18-1.64.25-2-.4s.08-1.24.48-1.74A25.6,25.6,0,0,1,605.49,347c4.29-1.6,8-3.52,13.13-3.11"/><path class="cls-7" d="M624.36,307a35.19,35.19,0,0,1-27,9.18,1.85,1.85,0,0,1-1.23-.44c-.68-.74.14-1.88.93-2.5,7.93-6.18,17.54-8.75,27.28-6.24"/><path class="cls-7" d="M617.55,304.48a37.6,37.6,0,0,0-33.66-5.55c4.24,4.18,10.12,6.43,16,7a50.76,50.76,0,0,0,17.62-1.49"/><path class="cls-7" d="M620.26,287.35c.78-7.92.27-14.17.82-22.12,0-.64.18-1.4.77-1.63.83-.32,1.52.7,1.79,1.54a25.36,25.36,0,0,1-3.38,22"/><path class="cls-7" d="M620.83,288.23c-5.37-3.32-9.39-7.65-13.11-12.75-2.59-3.54-4.77-7.79-4.19-12.14A12.55,12.55,0,0,1,613,268a26.39,26.39,0,0,1,4.82,9.7c1.05,3.48,1.79,7.06,3,10.49"/><path class="cls-7" d="M607.94,284.65a105.74,105.74,0,0,1-32.27-19c3.86-1.55,8.27-.62,12.12.93,8.81,3.55,16,9.55,20.32,18"/><path class="cls-7" d="M617.2,292.56c-6,.65-12,1.08-17.92.09s-11.3-3.27-16.73-5.56a2,2,0,0,1-1.14-.86,1.31,1.31,0,0,1,.41-1.43,3.46,3.46,0,0,1,1.43-.67c5.9-1.65,12.27-.88,18.08,1.08a83.88,83.88,0,0,1,15.87,7.35"/><path class="cls-7" d="M651.22,307.24c4.06-8.2,3.8-17.78.29-26.24-2.47,3.77-2.77,8.56-2.32,13s1.82,9.09,1.9,13.6"/><path class="cls-7" d="M667.46,299.06a36.59,36.59,0,0,1,27.19,11.58c-5.07.8-10.28-.51-14.89-2.76s-8.7-5.41-12.76-8.54"/><path class="cls-7" d="M678.38,295.4c5-.4,9.74-1,14.51.45s9.12,4.78,11.06,9.38a26.23,26.23,0,0,1-13.61-2.57,78.29,78.29,0,0,1-12-7.26"/><path class="cls-7" d="M662.21,295.57c4.47-2.93,9.05-5.91,14.25-7.12s11.23-.32,14.85,3.6c-4.21,2.47-9.32,2.76-14.2,2.76s-10.86-.06-15.47,1.57"/><path class="cls-7" d="M662.19,295.81c7.64-7.5,10.53-21,7.46-31.22a47.57,47.57,0,0,0-7.46,31.22"/><path class="cls-7" d="M641.19,274.56c-1.44-3.35-2.45-6.86-3.74-10.27a29.51,29.51,0,0,0-5.34-9.47,14.06,14.06,0,0,0-9.46-4.9A38.08,38.08,0,0,0,641,274.62"/><path class="cls-7" d="M645,279c2.38-3.28,5.14-7.73,8.37-10.18s7.44-3.93,11.38-3A26.51,26.51,0,0,1,645,279"/><path class="cls-7" d="M644.23,274.84a56.64,56.64,0,0,0,3.77-12.2c.63-4.22.25-8.72-1.91-12.4-4.19,7.92-5.54,16.43-2.07,24.69"/><path class="cls-7" d="M641.15,250.24c-2.37-7.85-9.57-13.64-17.33-16.29a6.47,6.47,0,0,0-3-.46,2.64,2.64,0,0,0-2.24,1.87c-.28,1.34.82,2.53,1.86,3.42a59,59,0,0,0,20.75,11.46"/><path class="cls-7" d="M641.07,243.81c-.3-5.06-.62-10.2-2.26-15s-4.82-9.3-9.44-11.4c-.79,5.11,1.47,10.2,4.19,14.6s6,8.56,7.64,13.46"/><path class="cls-7" d="M641.19,247.3c2-5.72,2.16-13,5.59-18,2.4-3.49,6.23-5.86,8.3-9.55a14.53,14.53,0,0,1-.48,10.84,31.39,31.39,0,0,1-6.34,9.08c-2.54,2.71-4.71,4.75-7.07,7.61"/><path class="cls-7" d="M641.15,415.86c.15,0,.28-38.18.3-85.27s-.1-85.28-.26-85.28-.28,38.18-.3,85.28S641,415.86,641.15,415.86Z"/><path class="cls-7" d="M607.78,301.48a8.15,8.15,0,0,0,1.44.54l4,1.33c3.33,1.13,7.91,2.78,12.87,4.81s9.56,3.82,12.2,6.11a9,9,0,0,1,2.45,3.24c.38.9.45,1.44.5,1.44a1.11,1.11,0,0,0,0-.4,6.08,6.08,0,0,0-.28-1.11A8.62,8.62,0,0,0,638.5,314a21.44,21.44,0,0,0-5.29-3.29c-2.12-1-4.46-2-7-3-5-2-9.59-3.63-13-4.67-1.68-.53-3.06-.91-4-1.17A8.18,8.18,0,0,0,607.78,301.48Z"/><path class="cls-7" d="M596.85,274.62a2.37,2.37,0,0,0,.4.43l1.23,1.15,4.57,4.16,15.22,13.56c5.94,5.29,11.08,10.34,14.64,14.15,1.78,1.9,3.19,3.47,4.14,4.57l1.11,1.26a.3.3,0,1,0,.09-.07c-.23-.31-.57-.76-1-1.33-.91-1.14-2.27-2.76-4-4.7a192.88,192.88,0,0,0-14.56-14.3c-6-5.28-11.39-10-15.33-13.44l-4.69-4L597.32,275A2.37,2.37,0,0,0,596.85,274.62Z"/><path class="cls-7" d="M624.69,299.29c.16-.07-1.09-2.94-2.32-6.56s-1.84-6.68-2-6.66a22.37,22.37,0,0,0,1.47,6.83,44.56,44.56,0,0,0,1.85,4.59A7.15,7.15,0,0,0,624.69,299.29Z"/><path class="cls-7" d="M641.12,322.4a6.84,6.84,0,0,0,.92-1.06l2.35-3c2-2.55,4.69-6.06,7.75-9.91s5.86-7.3,7.9-9.8l2.4-3a6.84,6.84,0,0,0,.83-1.13,6.85,6.85,0,0,0-1,1c-.61.66-1.48,1.64-2.53,2.86-2.11,2.44-5,5.85-8,9.71s-5.74,7.41-7.63,10c-.95,1.3-1.7,2.37-2.21,3.12A6.85,6.85,0,0,0,641.12,322.4Z"/><path class="cls-7" d="M648.43,313a13.45,13.45,0,0,0,3.07-5.74,16.38,16.38,0,0,0,.69-5.79l-.24,0c.11.44.19.68.23.67s0-.25,0-.71l-.24,0a26.37,26.37,0,0,1-1,5.63A42.84,42.84,0,0,1,648.43,313Z"/><path class="cls-7" d="M657.88,301.12a9.88,9.88,0,0,1,2.14-1.24,14.31,14.31,0,0,1,5.94-.47,36.7,36.7,0,0,1,6,1,18.1,18.1,0,0,0,2.46.59,8.58,8.58,0,0,0-2.36-1,27.34,27.34,0,0,0-6-1.14,13,13,0,0,0-6.13.66A3.79,3.79,0,0,0,657.88,301.12Z"/><path class="cls-7" d="M660.12,298.25c0,.09,1.25-.5,3.28-1.19a33,33,0,0,1,16.52-1.26c2.11.38,3.39.77,3.42.68a3.12,3.12,0,0,0-.87-.37,20.43,20.43,0,0,0-2.48-.7,29.16,29.16,0,0,0-16.73,1.28,20.44,20.44,0,0,0-2.34,1.06A3.12,3.12,0,0,0,660.12,298.25Z"/><ellipse class="cls-7" cx="643.31" cy="277.7" rx="8.64" ry="0.28" transform="translate(216 833) rotate(-75.77)"/><path class="cls-7" d="M641,286.07a40,40,0,0,1,2.65-5,21.88,21.88,0,0,1,3.9-4,3.63,3.63,0,0,0-1.51.78,12.13,12.13,0,0,0-2.85,2.93A11,11,0,0,0,641,286.07Z"/><path class="cls-7" d="M641.15,395.51c.06,0,.17-.92.6-2.54a36.18,36.18,0,0,1,2.55-6.61c2.64-5.39,7.44-12.23,13.54-19.07,3-3.45,6-6.71,8.44-9.83a69,69,0,0,0,6-8.71,41.81,41.81,0,0,0,3-6.46c.28-.8.49-1.42.6-1.85a3.12,3.12,0,0,0,.16-.66s-.33.87-1,2.43a47.28,47.28,0,0,1-3.18,6.34,73,73,0,0,1-6.1,8.59c-2.5,3.09-5.44,6.33-8.46,9.79-6.12,6.86-10.9,13.79-13.47,19.27a33,33,0,0,0-2.41,6.73,18.6,18.6,0,0,0-.34,1.92A3.11,3.11,0,0,0,641.15,395.51Z"/><path class="cls-7" d="M611,361.45a13.88,13.88,0,0,0,1.58.89,34.56,34.56,0,0,1,4.1,2.71,47.06,47.06,0,0,1,5.38,4.91c1.89,2,3.84,4.31,5.82,6.8,4,5,7.69,9.39,9.91,12.91,1.13,1.75,2,3.22,2.49,4.25a13.59,13.59,0,0,0,.87,1.59,1.53,1.53,0,0,0-.15-.45c-.12-.28-.28-.71-.53-1.24a40.23,40.23,0,0,0-2.35-4.36c-2.16-3.6-5.84-8.07-9.81-13-2-2.49-4-4.81-5.89-6.8a43.73,43.73,0,0,0-5.52-4.87,28.78,28.78,0,0,0-4.23-2.59c-.52-.26-1-.42-1.23-.55A1.52,1.52,0,0,0,611,361.45Z"/><path class="cls-7" d="M610.41,372.5a23,23,0,0,0,3.34.49,44.07,44.07,0,0,1,7.92,1.56,23.82,23.82,0,0,1,7.09,3.72c1.63,1.26,2.41,2.31,2.48,2.25a2.55,2.55,0,0,0-.49-.77A12.57,12.57,0,0,0,629,378a21.48,21.48,0,0,0-7.17-3.95,35.78,35.78,0,0,0-8.05-1.42A18.42,18.42,0,0,0,610.41,372.5Z"/><path class="cls-7" d="M630.27,379.3c.17-.1-1.33-2.4-2.5-5.49s-1.35-5.86-1.55-5.83a5.3,5.3,0,0,0,.06,1.79,19.22,19.22,0,0,0,1,4.22,20.44,20.44,0,0,0,1.94,3.87A5.4,5.4,0,0,0,630.27,379.3Z"/><path class="cls-7" d="M601.23,331.79a2.52,2.52,0,0,0,.53.28l1.57.71c.69.29,1.52.67,2.46,1.16s2,1,3.19,1.68l1.82,1c.63.36,1.26.79,1.92,1.21,1.34.81,2.69,1.82,4.13,2.84a70.79,70.79,0,0,1,15.89,16.44c1,1.47,1.93,2.85,2.7,4.22.39.68.8,1.32,1.14,2l1,1.86c.65,1.17,1.11,2.29,1.57,3.25s.81,1.8,1.08,2.5l.66,1.59a2.52,2.52,0,0,0,.27.54,2.47,2.47,0,0,0-.16-.58l-.56-1.63c-.24-.71-.56-1.57-1-2.55s-.87-2.11-1.5-3.3l-.95-1.88c-.33-.65-.74-1.3-1.12-2-.76-1.39-1.71-2.79-2.68-4.28a68.18,68.18,0,0,0-16-16.56c-1.46-1-2.82-2-4.18-2.82-.67-.41-1.31-.84-2-1.19l-1.85-1c-1.17-.67-2.28-1.15-3.25-1.61s-1.81-.82-2.51-1.08l-1.61-.62A2.47,2.47,0,0,0,601.23,331.79Z"/><path class="cls-7" d="M625.1,347.78a3.84,3.84,0,0,0-1.31-2,8.28,8.28,0,0,0-5.29-2,14.45,14.45,0,0,0-5.56,1.09,7.93,7.93,0,0,0-2.1,1,12.9,12.9,0,0,0,2.23-.65,16.81,16.81,0,0,1,5.42-.9,8.61,8.61,0,0,1,5.05,1.77A15.55,15.55,0,0,1,625.1,347.78Z"/><path class="cls-7" d="M628.66,351.46a14.11,14.11,0,0,1-1.16-10,3.24,3.24,0,0,0-.62,1.42,10.1,10.1,0,0,0,.85,7.32C628.2,351.06,628.61,351.49,628.66,351.46Z"/><path class="cls-5" d="M667.52,401c-.82,14.59-5.22,29.43-12,44.44H626.13c-6.45-14.86-10.54-29.67-11.27-44.44Z"/><ellipse class="cls-11" cx="641.25" cy="424.59" rx="21.63" ry="0.28"/><ellipse class="cls-11" cx="640.56" cy="429.88" rx="20.28" ry="0.28"/><ellipse class="cls-11" cx="655.07" cy="417.33" rx="0.28" ry="6.77"/><ellipse class="cls-11" cx="639.31" cy="417.57" rx="0.28" ry="7.02"/><ellipse class="cls-11" cx="624.51" cy="417.59" rx="0.28" ry="7.16"/><ellipse class="cls-11" cx="641.16" cy="410.56" rx="25.37" ry="0.28"/></g><g id="Character"><path class="cls-7" d="M108.63,412.8l-4.75,24.31-9.3,18.15a2.54,2.54,0,0,0,1.26,3.49h0a2.52,2.52,0,0,0,2.32-.16c4.47-2.73,20.86-12.86,21.11-14.66.29-2.08,6.71-25.31,6.71-25.31Z"/><path class="cls-5" d="M95.83,458.75l23.78-16.46-.22,1a3.82,3.82,0,0,1-1.42,2.23C116,447,110.62,451,98.22,458.61a2.54,2.54,0,0,1-2.39.15Z"/><path class="cls-1" d="M116.34,435.14a1.54,1.54,0,0,0-.84,1.87,1.48,1.48,0,0,0,1.85.85,1.62,1.62,0,0,0,.88-2,1.53,1.53,0,0,0-2-.67"/><path class="cls-5" d="M103.68,449.39a5.48,5.48,0,0,0-4.38-3.49c0-.06.34-.19.92-.14a4,4,0,0,1,3.39,2.7C103.79,449,103.75,449.39,103.68,449.39Z"/><path class="cls-5" d="M101.25,452.25c-.14.08-.74-.88-1.92-1.51a20.7,20.7,0,0,0-2.3-.82,2.81,2.81,0,0,1,2.56.35C100.93,451,101.39,452.22,101.25,452.25Z"/><path class="cls-5" d="M107.8,445.94a25.37,25.37,0,0,0-2.8-2.53,25.38,25.38,0,0,0-3.41-1.62,6.94,6.94,0,0,1,6.2,4.15Z"/><path class="cls-5" d="M109.86,438.67c-.1.13-1.31-.72-3-1.16s-3.2-.33-3.22-.49a6.3,6.3,0,0,1,6.25,1.66Z"/><path class="cls-5" d="M111.44,431.57a12.41,12.41,0,0,0-3.13-1.3,12.4,12.4,0,0,0-3.39.1c0-.06.3-.31.93-.51a5.53,5.53,0,0,1,4.89.9C111.26,431.18,111.48,431.53,111.44,431.57Z"/><path class="cls-5" d="M108.65,428.93a2.14,2.14,0,0,1,.17-.92,6.51,6.51,0,0,1,1.25-2.24,2.89,2.89,0,0,1,1.5-1.08,1,1,0,0,1,1.07.47,1.66,1.66,0,0,1,.14,1.18A3.59,3.59,0,0,1,109,428.9a4.16,4.16,0,0,1-3.53-3,1.44,1.44,0,0,1,.19-1.19,1,1,0,0,1,1.14-.29,3.55,3.55,0,0,1,1.41,1.18,7.27,7.27,0,0,1,1.24,2.24,2.21,2.21,0,0,1,.19.92,11.55,11.55,0,0,0-1.72-2.91,3.31,3.31,0,0,0-1.26-1,.53.53,0,0,0-.62.16,1,1,0,0,0-.08.79,3.71,3.71,0,0,0,3.09,2.57,3.11,3.11,0,0,0,3.24-2.13,1.2,1.2,0,0,0-.07-.83.55.55,0,0,0-.59-.27,2.61,2.61,0,0,0-1.29.89A9.62,9.62,0,0,0,108.65,428.93Z"/><path class="cls-7" d="M189.66,414.69l4,24.44,8.78,18.41a2.54,2.54,0,0,1-1.36,3.45h0a2.52,2.52,0,0,1-2.31-.23c-4.39-2.86-20.48-13.46-20.68-15.26-.23-2.09-6-25.5-6-25.5Z"/><path class="cls-5" d="M201.13,461l-23.3-17.13.2,1a3.82,3.82,0,0,0,1.35,2.27c1.89,1.52,7.2,5.62,19.37,13.62a2.54,2.54,0,0,0,2.39.21Z"/><path class="cls-1" d="M181.31,436.8a1.54,1.54,0,0,1,.79,1.89,1.48,1.48,0,0,1-1.87.8,1.62,1.62,0,0,1-.82-2,1.53,1.53,0,0,1,2-.61"/><path class="cls-5" d="M193.55,451.41A5.48,5.48,0,0,1,198,448c0-.06-.33-.19-.92-.17a4,4,0,0,0-3.46,2.6C193.46,451,193.49,451.4,193.55,451.41Z"/><path class="cls-5" d="M195.9,454.34c.14.08.77-.86,2-1.45a20.69,20.69,0,0,1,2.32-.76,2.81,2.81,0,0,0-2.57.27C196.26,453.09,195.76,454.3,195.9,454.34Z"/><path class="cls-5" d="M189.53,447.84a25.38,25.38,0,0,1,2.87-2.45,25.37,25.37,0,0,1,3.45-1.53,6.94,6.94,0,0,0-6.32,4Z"/><path class="cls-5" d="M187.68,440.52c.09.13,1.33-.68,3.07-1.08s3.2-.24,3.23-.4a6.3,6.3,0,0,0-6.3,1.47Z"/><path class="cls-5" d="M186.31,433.37a8.06,8.06,0,0,1,6.55-1c0-.06-.29-.31-.92-.53a5.53,5.53,0,0,0-4.92.76C186.5,433,186.26,433.33,186.31,433.37Z"/><path class="cls-5" d="M189.18,430.82a2.14,2.14,0,0,0-.14-.93,6.51,6.51,0,0,0-1.19-2.27,2.89,2.89,0,0,0-1.47-1.12,1,1,0,0,0-1.09.44,1.66,1.66,0,0,0-.18,1.17,3.59,3.59,0,0,0,3.71,2.68,4.16,4.16,0,0,0,3.61-2.9,1.44,1.44,0,0,0-.16-1.19,1,1,0,0,0-1.13-.33,3.55,3.55,0,0,0-1.45,1.14,7.27,7.27,0,0,0-1.3,2.21,2.21,2.21,0,0,0-.21.91,11.55,11.55,0,0,1,1.8-2.86,3.31,3.31,0,0,1,1.28-1,.53.53,0,0,1,.62.17,1,1,0,0,1,.06.79,3.71,3.71,0,0,1-3.16,2.48A3.12,3.12,0,0,1,185.6,428a1.2,1.2,0,0,1,.09-.82.55.55,0,0,1,.6-.25,2.61,2.61,0,0,1,1.26.93A9.62,9.62,0,0,1,189.18,430.82Z"/><path class="cls-5" d="M111,253.63c-2.26-3.44-11.63,183.38-11,184.45l24.68.35,13.43-99.82,7.31-76.33L157.15,334l14.45,105.1,27,.39L181.9,249,147,229Z"/><path class="cls-7" d="M134.52,128.12s-7.57,1.31-10.45,3.84-5.81,8.32-5.81,8.32L103.87,150l12.66,50.44-10.61,69.71,2.12,6,79.31-1.33,1.51-5.47L180.67,206l3.6-42.52,3.31-17.07-14.36-6.44s6.58-2,6.88-3.18-14.82-8.9-14.82-8.9S141.41,123.81,134.52,128.12Z"/><g class="cls-12"><path d="M110.45,237.45c8.95,11.6,21.17,20.14,33.2,28.5,2.54,1.76,5.17,3.57,8.2,4.17a11.49,11.49,0,0,0,11.54-4.84c1.74-2.65,2.33-6,4.4-8.4,1.4-1.63,3.35-2.68,4.85-4.22a20.85,20.85,0,0,0,3.11-4.59l4.92-8.88c-6,0-11.5,2.92-16.89,5.5s-11.39,4.91-17.22,3.57c-8.07-1.85-13.21-10.05-21-13a17.52,17.52,0,0,0-15,1.43"/></g><path class="cls-7" d="M103.87,150s-3,3.77-3.61,11.69-5.76,49.48-4,55.45,23.93,30.9,31.32,30.29l2.76-1,2.64,2,11.82-8.86-26.06-32.79,1.4-47.2S112.11,148.17,103.87,150Z"/><path class="cls-5" d="M124.07,132s-.24.16-.65.54a11.44,11.44,0,0,0-1.59,1.87c-.63.88-1.28,2-2.07,3.41l-2.89,4.58-.17-.21a7.32,7.32,0,0,1,4.87,0,17.27,17.27,0,0,1,4.9,2.69,46.46,46.46,0,0,1,8.84,9.51,196.74,196.74,0,0,1,16.25,27.42l0,.06v.07l-.37,12.83-1.63,57.15-.54,17.32-.17,4.71-.06,1.22a2.47,2.47,0,0,1,0,.42,2.48,2.48,0,0,1,0-.42v-1.23l.08-4.71.37-17.32c.35-14.63.8-34.83,1.48-57.15l.38-12.84,0,.12A200.26,200.26,0,0,0,135,154.6a46.46,46.46,0,0,0-8.71-9.48,17,17,0,0,0-4.78-2.67,7,7,0,0,0-4.68,0l-.4.15.23-.36,2.94-4.54c.8-1.34,1.48-2.51,2.13-3.38a10.55,10.55,0,0,1,1.66-1.85A3.46,3.46,0,0,1,124.07,132Z"/><path class="cls-5" d="M177.37,138c0,.08-1.52.54-3.92,1.5a37.23,37.23,0,0,0-8.78,4.88,57.69,57.69,0,0,0-7.31,6.94l-2.08,2.27a4.76,4.76,0,0,1-.81.79,4.72,4.72,0,0,1,.65-.92c.45-.57,1.11-1.39,2-2.38a48.66,48.66,0,0,1,7.27-7.11,33.5,33.5,0,0,1,9-4.81c1.23-.44,2.24-.74,2.94-.93A4.46,4.46,0,0,1,177.37,138Z"/><path class="cls-5" d="M151.52,182a8.08,8.08,0,0,1,.1-1.48c.11-.95.31-2.32.63-4,.62-3.36,1.74-8,3.2-13a116.88,116.88,0,0,1,4.45-12.59c.68-1.57,1.3-2.81,1.76-3.65a8.09,8.09,0,0,1,.79-1.26,8.16,8.16,0,0,1-.61,1.35c-.4.86-1,2.12-1.6,3.7-1.28,3.16-2.79,7.62-4.29,12.6s-2.63,9.56-3.34,12.89c-.36,1.66-.62,3-.79,4A8.14,8.14,0,0,1,151.52,182Z"/><ellipse class="cls-5" cx="158.27" cy="145.17" rx="9.87" ry="0.26" transform="translate(-41.22 224.71) rotate(-64.27)"/><path class="cls-4" d="M156.45,172.77l.23-.5a1.68,1.68,0,0,0,.94.31c.39,0,.55-.12.56-.3,0-.54-1.66-.19-1.65-1.26,0-.49.41-.89,1.22-.87a1.92,1.92,0,0,1,1,.27l-.21.5a1.62,1.62,0,0,0-.79-.24c-.39,0-.55.14-.55.32,0,.53,1.66.19,1.65,1.24,0,.48-.41.88-1.23.87A2,2,0,0,1,156.45,172.77Z"/><path class="cls-4" d="M161.51,172.6v.53l-2.22,0,0-2.87,2.17,0v.53l-1.51,0v.62l1.33,0v.52l-1.33,0v.66Z"/><path class="cls-4" d="M161.86,171.7a1.58,1.58,0,0,1,2.75-.93l-.43.39a.92.92,0,0,0-.72-.35.92.92,0,0,0,0,1.83.91.91,0,0,0,.73-.33l.42.4a1.57,1.57,0,0,1-2.72-1Z"/><path class="cls-4" d="M167.16,172.35c0-.14-.08-.28-.12-.42s-.07-.19-.1-.28v.27c0,.54-.24.77-.65.76s-.64-.23-.63-.78l0-1.58H165l0,1.6a1.19,1.19,0,0,0,1.28,1.33,1.23,1.23,0,0,0,1.06-.45A3,3,0,0,1,167.16,172.35Z"/><path class="cls-4" d="M167.31,171v1l0,.1a2.32,2.32,0,0,1,.08.23l.08.36a2.71,2.71,0,0,1,.06.94,1.3,1.3,0,0,0,.39-1l0-1.6Z"/><path class="cls-4" d="M170.4,174l-.54-.81h-.61v.8h-.66l0-2.87,1.24,0c.77,0,1.24.41,1.23,1.06a.93.93,0,0,1-.6.9l.63.93Zm-.59-2.33h-.54v1h.54c.41,0,.61-.18.62-.49S170.22,171.62,169.81,171.62Z"/><path class="cls-4" d="M171.63,171.1h.66l0,2.87h-.66Z"/><path class="cls-4" d="M173.56,171.67h-.92v-.54l2.5,0v.54h-.92l0,2.32h-.66Z"/><path class="cls-4" d="M176.8,173v1h-.66v-1l-1.08-1.86h.7l.75,1.28.78-1.26h.65Z"/><path class="cls-5" d="M169.64,180.5a2.68,2.68,0,0,1-.4-.75c-.23-.5-.51-1.23-.83-2.15a38.2,38.2,0,0,1-1.91-15c.08-1,.17-1.75.27-2.29a2.68,2.68,0,0,1,.19-.83,30.92,30.92,0,0,1-.09,3.14,47.29,47.29,0,0,0,1.89,14.89A30.92,30.92,0,0,1,169.64,180.5Z"/><g class="cls-12"><path d="M153.47,172.54c-.43,3.56-1.57,5.32-1.62,8.9,0,.77-1.23,12.89-.51,13.17s4.05-8.5,4.75-12.9c.55-3.45,1.52-8,2.1-11.43,1.68-10,5.41-15.46,10.64-24.21,1-1.66,4.68-6.16,4.68-6.16-.36-.23-1.82.47-2.85.93-2.95,1.33-8.23,5.54-8.23,5.54a100,100,0,0,0-4.24,9.11,128.76,128.76,0,0,0-4.8,17.63"/></g><g class="cls-12"><path d="M120.45,142s-3.22,1.76-3.2,3.18a4.14,4.14,0,0,0,2.35,3.31,28.77,28.77,0,0,0,4,1.48,23.37,23.37,0,0,1,8.09,5.77,68.13,68.13,0,0,1,10.08,12.92c2.35,3.9,4.5,8.25,8.43,10.55-2.66-4.76-5.42-9.36-8.08-14.12a91,91,0,0,0-9.18-13.46c-3.46-4.2-9.1-9.29-12.46-9.63"/></g><path class="cls-5" d="M109,212.27s0-.09,0-.26a4.21,4.21,0,0,1,0-.77,6.08,6.08,0,0,1,1-2.73,6,6,0,0,1,3.6-2.61,6.42,6.42,0,0,1,5.54,1.23l-.39.19a50.32,50.32,0,0,1,.59-10.06c.51-3.29,1.11-6.39,1.45-9.24a75.46,75.46,0,0,0,.59-7.59c.06-2.17.06-3.93,0-5.14v-1.4a1.76,1.76,0,0,1,0-.49,1.75,1.75,0,0,1,.07.49l.11,1.4c.09,1.21.15,3,.14,5.16a67.71,67.71,0,0,1-.48,7.64c-.32,2.87-.91,6-1.41,9.26a52.42,52.42,0,0,0-.64,10l0,.53-.41-.34a6,6,0,0,0-5.14-1.21,5.77,5.77,0,0,0-3.45,2.38,6.33,6.33,0,0,0-1,2.59C109,211.91,109,212.27,109,212.27Z"/><path class="cls-5" d="M111.49,236.64a1.82,1.82,0,0,1,.32.28l.88.85c.78.73,1.92,1.81,3.46,3.06a51.28,51.28,0,0,0,5.82,4.11,24.17,24.17,0,0,0,3.88,1.95,5,5,0,0,0,2.23.33,3.28,3.28,0,0,0,2.06-.91l.16-.16.17.13,2.65,2h-.29l11.81-8.88,0,.37-.21-.26c-3.56-4.44-6.74-8.82-9.7-12.75s-5.61-7.48-7.92-10.39-4.26-5.2-5.66-6.73c-.69-.78-1.26-1.35-1.64-1.74a5.05,5.05,0,0,1-.56-.62,5,5,0,0,1,.63.55c.41.37,1,.92,1.72,1.68,1.45,1.49,3.46,3.75,5.8,6.64s5.06,6.4,8,10.33,6.17,8.29,9.72,12.71l.21.26.17.21-.22.16-11.83,8.85-.15.11-.15-.11-2.64-2.06.32,0a3.69,3.69,0,0,1-2.38,1.05,5.46,5.46,0,0,1-2.41-.38,24.15,24.15,0,0,1-3.93-2A48.67,48.67,0,0,1,116,241c-1.52-1.29-2.64-2.4-3.39-3.17l-.83-.91A1.8,1.8,0,0,1,111.49,236.64Z"/><path class="cls-5" d="M121,163.11c-.09,0-.47-1.16-1.44-2.9a21.15,21.15,0,0,0-1.94-2.89,21.15,21.15,0,0,0-6.51-5.42,21.16,21.16,0,0,0-3.19-1.39c-1.89-.63-3.12-.79-3.11-.89a2.85,2.85,0,0,1,.88,0,13.85,13.85,0,0,1,2.34.49,18.62,18.62,0,0,1,3.31,1.32A19.82,19.82,0,0,1,118,157a18.62,18.62,0,0,1,1.89,3,13.85,13.85,0,0,1,.91,2.22A2.85,2.85,0,0,1,121,163.11Z"/><g class="cls-12"><path d="M168.72,177.95c.33.71,1.51.27,1.64-.28a2.4,2.4,0,0,0-.41-1.62,29.94,29.94,0,0,1-3.28-11.57,28.62,28.62,0,0,0,2.05,13.48"/></g><g class="cls-12"><path d="M108.55,211.22a6.6,6.6,0,0,1,3-7.53,3.92,3.92,0,0,1,2.14-.55c1.62.12,2.78,1.56,3.73,2.88a6.74,6.74,0,0,0-8.55,5.16"/></g><path class="cls-5" d="M186.67,150.75a26.77,26.77,0,0,1-1.36,2.57A40,40,0,0,0,181,166.51a26.76,26.76,0,0,1-.41,2.87,11.57,11.57,0,0,1,0-2.92A32.45,32.45,0,0,1,185,153.13,11.57,11.57,0,0,1,186.67,150.75Z"/><g class="cls-12"><path d="M180.06,176.14c-.54.55-.68,5.21-.68,5.21,0,5.62.36,8.09.37,13.72a19.27,19.27,0,0,1-1.94,10.37,22,22,0,0,1-2.18,4.13,24.43,24.43,0,0,1-2.64,2.89,107.55,107.55,0,0,0-12.1,14.36L158.7,230l21.82-20.47,1.07-2.71.05-.32Z"/></g><path class="cls-7" d="M187.58,146.36s3.44,1.29,5.23,9c2.07,8.85,4.78,23.58,5.2,29.15.35,4.69,5,21.83,1.39,29.38s-20.79,30.85-27.58,31.6l-2.83-.72-3,.51-8.36-9.62.73-2.75a2.76,2.76,0,0,1,0-2.9c1-1.37,22.3-21.39,22.3-21.39s-.81-.1-1-1.48c-.3-2.38,1.77-2.29,1.77-2.29l-1.38-21Z"/><path class="cls-5" d="M188.87,211.08c-.09.13-1.66-1-3.89-1.7s-4.16-.72-4.16-.88a9.89,9.89,0,0,1,8.05,2.58Z"/><path class="cls-5" d="M193.18,207.94a15.51,15.51,0,0,0-11.68-3.13,4.53,4.53,0,0,1,1.8-.46,12.12,12.12,0,0,1,8.54,2.29A4.53,4.53,0,0,1,193.18,207.94Z"/><path class="cls-5" d="M180.82,208.49s-.35,0-.79-.31a1.7,1.7,0,0,1-.56-.8,2.14,2.14,0,0,1,0-1.19,2.8,2.8,0,0,1,.31-.73l0,.05a1.51,1.51,0,0,1,1.33-.89c.39,0,.61.09.6.14s-.22.07-.54.17a1.35,1.35,0,0,0-.91.74v0l0,0a2.93,2.93,0,0,0-.23.6,1.66,1.66,0,0,0,.32,1.59C180.58,208.26,180.86,208.42,180.82,208.49Z"/><path class="cls-5" d="M179.85,175.12a5.1,5.1,0,0,1,.19,1.16c.09.75.19,1.84.29,3.18.21,2.69.42,6.41.6,10.52l.45,10.53.13,3.19a5.1,5.1,0,0,1,0,1.18,5.11,5.11,0,0,1-.19-1.16c-.09-.75-.19-1.84-.29-3.18-.21-2.69-.42-6.41-.6-10.52L180,179.48l-.13-3.19A5.11,5.11,0,0,1,179.85,175.12Z"/><path class="cls-5" d="M181.17,208.35a4.33,4.33,0,0,1-.53.52l-1.58,1.43-5.85,5.3c-2.47,2.27-5.39,5-8.62,8.16-1.61,1.57-3.3,3.24-5,5a5.65,5.65,0,0,0-1.07,1.43,2.61,2.61,0,0,0-.18,1.71,9.7,9.7,0,0,1,.31,2,2,2,0,0,1-1.07,1.86l.1-.41,4.31,4.93,4.23,4.85L166,245l3-.51H169c1.31.16,2.39.76,3.52.57a6.54,6.54,0,0,0,3-1.39,47.39,47.39,0,0,0,4.77-4.45c2.86-3,5.21-5.87,7.14-8.26s3.43-4.35,4.47-5.69l1.2-1.53a3.76,3.76,0,0,1,.44-.51,3.77,3.77,0,0,1-.37.57l-1.13,1.58c-1,1.37-2.46,3.35-4.35,5.78s-4.22,5.32-7.08,8.36a46.86,46.86,0,0,1-4.81,4.53,7,7,0,0,1-3.27,1.5c-1.3.21-2.5-.44-3.63-.56H169l-3,.51-.14,0-.1-.11-4.24-4.84-4.31-4.93-.24-.28.34-.13a1.48,1.48,0,0,0,.75-1.4,9.66,9.66,0,0,0-.3-1.86,3.12,3.12,0,0,1,.23-2,6.1,6.1,0,0,1,1.17-1.56q2.63-2.64,5.07-5c3.25-3.12,6.2-5.84,8.7-8.08s4.54-4,6-5.19l1.64-1.36A4.32,4.32,0,0,1,181.17,208.35Z"/><ellipse class="cls-5" cx="150.22" cy="195.91" rx="0.26" ry="30.44" transform="translate(-47.82 343.3) rotate(-89.18)"/><path class="cls-5" d="M165,204.59a1.1,1.1,0,0,1,0,.39c0,.25-.07.62-.18,1.09a21.79,21.79,0,0,1-1.2,3.89,24,24,0,0,1-20.77,14.95,21.79,21.79,0,0,1-4.07-.1c-.48,0-.84-.13-1.09-.17a1.09,1.09,0,0,1-.37-.1,41.9,41.9,0,0,0,5.5,0,24.52,24.52,0,0,0,20.46-14.73A41.86,41.86,0,0,0,165,204.59Z"/><path class="cls-5" d="M135.84,246.38c-.09.11-.66-.21-1.17-.81s-.75-1.21-.63-1.28.54.38,1,.94S135.93,246.27,135.84,246.38Z"/><ellipse class="cls-5" cx="138.9" cy="242.39" rx="0.26" ry="1.26" transform="translate(-117.03 130.38) rotate(-36.55)"/><path class="cls-5" d="M161.77,235.39c.07.13-.51.55-1.22,1s-1.32.85-1.42.74.38-.67,1.13-1.17S161.71,235.26,161.77,235.39Z"/><path class="cls-5" d="M164.61,238.17c.12.07-.23.83-1,1.54s-1.49,1-1.56.93.52-.63,1.19-1.3S164.49,238.09,164.61,238.17Z"/><path class="cls-5" d="M167.33,241.5c.1.1-.34.73-1.08,1.32s-1.46.87-1.53.75.5-.6,1.2-1.16S167.22,241.4,167.33,241.5Z"/><path class="cls-5" d="M128.53,135.07c.15-.06,1.34,2.95,3.38,6.35s4.1,5.89,4,6a7.35,7.35,0,0,1-1.48-1.53,34.33,34.33,0,0,1-5.24-8.79A7.36,7.36,0,0,1,128.53,135.07Z"/><path class="cls-5" d="M188.87,269.41a5.14,5.14,0,0,1-.85,0l-2.42,0-8.91.08c-7.52.09-17.91.37-29.38.72s-21.87.57-29.4.57c-3.76,0-6.81,0-8.91-.08l-2.42-.07a5.13,5.13,0,0,1-.84-.06,5.16,5.16,0,0,1,.85,0l2.42,0,8.91-.08c7.52-.09,17.91-.37,29.39-.72s21.87-.57,29.4-.57c3.76,0,6.81,0,8.91.08l2.42.07A5.13,5.13,0,0,1,188.87,269.41Z"/><path class="cls-7" d="M168.15,136.71c-.12.1-1.34-1.3-3.26-2.47s-3.7-1.67-3.66-1.82a9.65,9.65,0,0,1,6.92,4.3Z"/><path class="cls-13" d="M161.67,247.21a2.22,2.22,0,0,0,2.1,1c.81,0,1.61-.29,2.42-.34a2.29,2.29,0,0,1,2.14.9,1.89,1.89,0,0,1-.07,1.85,3.72,3.72,0,0,1-1.4,1.3,7.6,7.6,0,0,1-8.64-.83"/><path class="cls-13" d="M143.34,259.64a48.24,48.24,0,0,0,7.73,6.27,3,3,0,0,0,2,.69c.72-.12,1.3-1.06.82-1.61a2.2,2.2,0,0,0,3.47-2.35.07.07,0,0,1,.09-.08,2.51,2.51,0,0,0,2.2-.15,1.88,1.88,0,0,0,.82-2.1c.74,1,2.52.61,3.09-.5a3.41,3.41,0,0,0-.58-3.5,17.13,17.13,0,0,0-2.77-2.5,5.51,5.51,0,0,1-2.08-3"/><path class="cls-14" d="M154.24,265.39a7.21,7.21,0,0,1-4.31-4.35c.13-.07.85,1.1,2,2.29S154.32,265.25,154.24,265.39Z"/><path class="cls-14" d="M158,263.07a8.31,8.31,0,0,1-4-4c.12-.09.93.9,2,2S158.06,262.94,158,263.07Z"/><path class="cls-14" d="M161.24,260.76a7.6,7.6,0,0,1-3.86-3.76c.12-.09.89.84,2,1.86S161.33,260.64,161.24,260.76Z"/><path class="cls-13" d="M136.78,237s-.3-1.28,3-.86a38,38,0,0,0,8.44.54c3.69-.19,9.67-1.24,9.67-1.24l9.63,8.47s-9.85,8.65-12.79,10.19-8.94,5.39-12.36,5.2c-2.6-.14-2.83-1.43-2.83-1.43s-2.53-1.74-2.16-2.59c0,0-3-.17-2.44-2.47,0,0-2.14-.4-2.49-1.62s1.27-2.66,1.89-3.28c1-1,9.76-7.42,9.8-7.6C144.13,240.35,136.64,239.6,136.78,237Z"/><ellipse class="cls-14" cx="138.9" cy="249.55" rx="5.17" ry="0.26" transform="matrix(0.79, -0.61, 0.61, 0.79, -123.46, 136.71)"/><path class="cls-14" d="M147.63,247.29a6,6,0,0,1-1.15,1.57,25.66,25.66,0,0,1-7.37,5.76,6,6,0,0,1-1.8.74c-.07-.14,2.58-1.45,5.43-3.69S147.51,247.18,147.63,247.29Z"/><path class="cls-14" d="M151.77,250.26a6.57,6.57,0,0,1-1.31,1.76,18.68,18.68,0,0,1-9,5.41,6.57,6.57,0,0,1-2.17.33,33.6,33.6,0,0,0,6.79-2.83A33.61,33.61,0,0,0,151.77,250.26Z"/><path class="cls-14" d="M163.53,247.5a4,4,0,0,1-.72.75c-.49.45-1.22,1.09-2.15,1.85a62.6,62.6,0,0,1-7.7,5.31c-1.58.93-3.12,1.74-4.55,2.43a16.79,16.79,0,0,1-4,1.48,6.35,6.35,0,0,1-2.87,0,2.4,2.4,0,0,1-1-.41,7.1,7.1,0,0,0,3.75.05,18,18,0,0,0,3.84-1.55c1.41-.71,2.93-1.53,4.5-2.45a82.81,82.81,0,0,0,7.74-5.16C162.34,248.38,163.47,247.44,163.53,247.5Z"/><path class="cls-13" d="M145.89,79.37a17.28,17.28,0,0,0-18.82,15.91c-.6,8-1.16,16.69-1.17,21.06,0,9.39,9.35,11,9.35,11s-.27,2.78-.58,6.22A12.36,12.36,0,0,0,146.23,147h0a12.36,12.36,0,0,0,13.08-11.61l2.24-37.78a17.28,17.28,0,0,0-15.66-18.23Z"/><path class="cls-14" d="M135.23,127.19a21.83,21.83,0,0,0,12.28-3.3s-3.14,6.78-12.5,5.8Z"/><path class="cls-13" d="M160.64,100.82c.16-.07,6.48-1.81,6.18,4.6s-6.67,4.79-6.68,4.61S160.64,100.82,160.64,100.82Z"/><path class="cls-14" d="M162.21,107.69s.11.08.29.18a1.12,1.12,0,0,0,.83.06,2.77,2.77,0,0,0,1.39-2.42,3.69,3.69,0,0,0-.24-1.61,1.29,1.29,0,0,0-.8-.9.57.57,0,0,0-.67.28c-.09.18-.06.31-.09.31s-.13-.11-.07-.38a.71.71,0,0,1,.27-.39.85.85,0,0,1,.63-.13,1.57,1.57,0,0,1,1.12,1,3.8,3.8,0,0,1,.3,1.81,2.9,2.9,0,0,1-1.76,2.69,1.2,1.2,0,0,1-1-.22C162.22,107.84,162.19,107.7,162.21,107.69Z"/><path class="cls-5" d="M130.71,100.4a1.34,1.34,0,0,0,1.27,1.37,1.28,1.28,0,0,0,1.4-1.19,1.34,1.34,0,0,0-1.27-1.37A1.28,1.28,0,0,0,130.71,100.4Z"/><path class="cls-5" d="M129.44,98.66c.16.18,1.19-.56,2.63-.54s2.49.76,2.65.59-.09-.39-.54-.74a3.68,3.68,0,0,0-2.12-.69,3.53,3.53,0,0,0-2.1.64C129.51,98.27,129.36,98.58,129.44,98.66Z"/><path class="cls-5" d="M145.16,100.79a1.34,1.34,0,0,0,1.27,1.37,1.28,1.28,0,0,0,1.4-1.19,1.34,1.34,0,0,0-1.27-1.37A1.28,1.28,0,0,0,145.16,100.79Z"/><path class="cls-5" d="M143.61,99.13c.16.18,1.19-.56,2.63-.53s2.49.76,2.65.59-.09-.39-.54-.74a3.67,3.67,0,0,0-2.12-.69,3.53,3.53,0,0,0-2.1.64C143.68,98.74,143.53,99.05,143.61,99.13Z"/><path class="cls-5" d="M138.22,109.75a9.55,9.55,0,0,0-2.34-.46c-.37,0-.72-.12-.77-.37a1.87,1.87,0,0,1,.26-1.09L136.5,105c1.57-4,2.71-7.24,2.55-7.3s-1.56,3.11-3.13,7.08l-1.08,2.81a2.13,2.13,0,0,0-.21,1.44.92.92,0,0,0,.6.55,2.5,2.5,0,0,0,.62.1A9.38,9.38,0,0,0,138.22,109.75Z"/><path class="cls-5" d="M141.94,93.91c.17.38,1.59.1,3.29.19s3.1.46,3.3.1c.09-.17-.17-.53-.75-.87a5.74,5.74,0,0,0-5-.22C142.16,93.4,141.87,93.73,141.94,93.91Z"/><path class="cls-5" d="M128.9,93.35c.25.33,1.25,0,2.44,0s2.2.25,2.44-.09c.1-.16,0-.5-.49-.81a3.54,3.54,0,0,0-3.93.06C128.93,92.85,128.79,93.19,128.9,93.35Z"/><path class="cls-5" d="M161.38,100.53a10.88,10.88,0,0,1-.2,3.08,3.36,3.36,0,0,1-1.67,2.32c-1.62.78-3.63-.48-4.33-2.14s-.47-3.54-.28-5.33a26,26,0,0,0,0-7.34,10.54,10.54,0,0,0-3.43-6.35,6.68,6.68,0,0,0-6.9-1.1c-1.37.65-2.41,1.83-3.69,2.64a5.64,5.64,0,0,1-3.89.92c-1.34-.23-3.16-1.17-2.94-2.52.53-3.13-1.64-.5-1.5-1,.24-.89,2-2.41,2.79-3A10,10,0,0,1,139.65,79a22.38,22.38,0,0,1,12.25,1.38,15.88,15.88,0,0,1,8.72,8.35c1.8,4.42,1.52,7.1.91,11.85"/><ellipse class="cls-5" cx="138.57" cy="114.16" rx="2.71" ry="0.52" transform="translate(-5.93 7.61) rotate(-3.08)"/><path class="cls-5" d="M161.36,101.1a6.5,6.5,0,0,1-2-.43c-1.19-.35-2.79-1-4.54-1.66l-4.46-1.8a9.49,9.49,0,0,1-1.84-.78,6.51,6.51,0,0,1,2,.43c1.19.36,2.79,1,4.54,1.66l4.46,1.8A9.5,9.5,0,0,1,161.36,101.1Z"/><path class="cls-5" d="M134.68,95.56a1.92,1.92,0,0,1,1.68,1.6,8,8,0,0,1-5.84,8.94,4.66,4.66,0,0,1-3.66-.34c-1.49-.94-2-2.9-2.08-4.66a6,6,0,0,1,.65-3.74,5.38,5.38,0,0,1,4.32-2c1.64-.09,4.94.2,4.94.2Z"/><path class="cls-5" d="M142.22,95.79a1.94,1.94,0,0,0-1.74,1.57,8.06,8.06,0,0,0,5.64,9.21,4.72,4.72,0,0,0,3.71-.24c1.54-.91,2.06-2.87,2.24-4.65a6,6,0,0,0-.54-3.8,5.44,5.44,0,0,0-4.31-2.14c-1.66-.14-5,.06-5,.06Z"/><ellipse class="cls-5" cx="138.24" cy="95.94" rx="0.26" ry="5.5" transform="translate(39.56 232.24) rotate(-88.86)"/><path class="cls-2" d="M161,138.61s0-.05,0-.16a2.1,2.1,0,0,1,0-.46,4.92,4.92,0,0,1,.62-1.66,11.13,11.13,0,0,0,1.13-2.5,12.56,12.56,0,0,0,.43-3.59c0-1.36-.17-2.82-.27-4.45a2.27,2.27,0,0,1,.31-1.29,1.23,1.23,0,0,1,1.31-.6,1.07,1.07,0,0,1,.64.49.82.82,0,0,1,0,.86,1.26,1.26,0,0,1-1.51.29,2.27,2.27,0,0,1-1.19-2.62,2.33,2.33,0,0,1,.89-1.3,1.7,1.7,0,0,1,.79-.31,1,1,0,0,1,.88.3.84.84,0,0,1-.62,1.46,2.06,2.06,0,0,1-2.08-2.28,2,2,0,0,1,1-1.42,1.92,1.92,0,0,1,1.45-.26,1.41,1.41,0,0,1,.68.39.87.87,0,0,1,.23.83.91.91,0,0,1-.61.6,1.67,1.67,0,0,1-.74.06,2.72,2.72,0,0,1-1.26-.56,2.22,2.22,0,0,1-.82-2.46,2,2,0,0,1,2.16-1.28,1.2,1.2,0,0,1,1,1,.85.85,0,0,1-.27.71,1.1,1.1,0,0,1-.65.28,1.72,1.72,0,0,1-1.17-.43,2.63,2.63,0,0,1-.74-.9,1.69,1.69,0,0,1,.46-2.14,1.21,1.21,0,0,1,1.87.73l0,.14-.12.07a1.76,1.76,0,0,1-2.43-.87,1.49,1.49,0,0,1,.11-1.29,1.85,1.85,0,0,1,.9-.8,1.47,1.47,0,0,1,1.13,0,.84.84,0,0,1,.56.92.58.58,0,0,1-.36.44.71.71,0,0,1-.52,0,1,1,0,0,1-.53-.7,7.92,7.92,0,0,1,0-2.38,2.94,2.94,0,0,1,.18-.81,11.87,11.87,0,0,0,.08,3.12.74.74,0,0,0,.41.53.34.34,0,0,0,.51-.22c.1-.52-.73-.83-1.28-.55a1.33,1.33,0,0,0-.79,1.64,1.38,1.38,0,0,0,1.87.66l-.1.2a.79.79,0,0,0-1.21-.43,1.24,1.24,0,0,0-.3,1.58,1.86,1.86,0,0,0,1.46,1.07c.28,0,.52-.25.48-.47a.74.74,0,0,0-.59-.54,1.46,1.46,0,0,0-1.57,1,1.71,1.71,0,0,0,.67,1.88,2.22,2.22,0,0,0,1,.45c.34.05.75-.07.78-.29s-.21-.51-.54-.58a1.41,1.41,0,0,0-1,.2,1.53,1.53,0,0,0-.73,1.05,1.47,1.47,0,0,0,.4,1.19,1.48,1.48,0,0,0,1.13.5c.43,0,.52-.31.28-.6s-.68-.17-1,.08a1.84,1.84,0,0,0-.7,1,1.8,1.8,0,0,0,.9,2c.33.15.8.11.94-.11s0-.57-.35-.65a.79.79,0,0,0-.82.41,1.84,1.84,0,0,0-.25,1c.08,1.57.23,3.08.21,4.45a12.53,12.53,0,0,1-.51,3.68,10.72,10.72,0,0,1-1.23,2.51,5.37,5.37,0,0,0-.69,1.58C161,138.4,161,138.61,161,138.61Z"/><path class="cls-2" d="M164.68,107.92a3.5,3.5,0,0,0-.43-1.38,1.6,1.6,0,0,0-1.16-.79,1.27,1.27,0,0,0-1.27.81,1.31,1.31,0,0,0,.47,1.42l0,0h0l.11.07c.17.11.4.12.57.22a1.18,1.18,0,0,1,.44,1.07,10.62,10.62,0,0,0-.1,1.21c0,.29.19.63.48.64s.43-.25.54-.48A5.16,5.16,0,0,0,164.68,107.92Z"/><path class="cls-4" d="M135.1,128.84s-2,2.95-2.18,4.86c-.11,1.27.74,6.2,1.32,9.39a13.3,13.3,0,0,0,2.1,5.11l1.3,1.91a45,45,0,0,1,4.68,8.82c2.54,6.41,6.8,17.21,6.95,17.73a41.31,41.31,0,0,0,1.89,3.77l2.25-27,6.8-13.48a9.11,9.11,0,0,0,1-3.77l.16-4.33a6.07,6.07,0,0,0-1.57-4.3h0l-.34,3.89-11.28,10.24-13.08-8.8Z"/><path class="cls-5" d="M147.58,141.82a6.86,6.86,0,0,0-2.36,2.22,25,25,0,0,0-2.74,7.46l-.22.88-.1.4-.32-.26a51.58,51.58,0,0,1-5.29-5.28,19.75,19.75,0,0,1-2-2.34,17.37,17.37,0,0,1,2.21,2.1,72.81,72.81,0,0,0,5.36,5.13l-.42.14.22-.88c.75-3.05,1.68-5.83,2.94-7.54a5.54,5.54,0,0,1,1.81-1.7A2.05,2.05,0,0,1,147.58,141.82Z"/><path class="cls-5" d="M155.63,149.08a31.72,31.72,0,0,1-2.54,4.13l-.41.63v-.76a15.09,15.09,0,0,0-.7-3.67,20.46,20.46,0,0,0-2-5.68,15.31,15.31,0,0,0-1.61-1.9s.24.08.6.34a6.11,6.11,0,0,1,1.31,1.36,17.52,17.52,0,0,1,2.2,5.75,13.86,13.86,0,0,1,.66,3.81l-.43-.14A31.73,31.73,0,0,1,155.63,149.08Z"/><ellipse class="cls-5" cx="149.3" cy="160.32" rx="0.26" ry="18.31" transform="translate(-9.99 9.92) rotate(-3.68)"/><path class="cls-2" d="M125.27,101.11a2.54,2.54,0,0,1-.12-2.35c.43-1.31,1.43-1.93,1.5-1.81s-.64.83-1,2S125.42,101.08,125.27,101.11Z"/><path class="cls-2" d="M141.77,101.67c-.11.09-.77-.76-.76-2s.65-2.11.76-2-.25.92-.24,2S141.9,101.6,141.77,101.67Z"/></g></svg>