<svg xmlns="http://www.w3.org/2000/svg" viewBox="0 0 22.09 15.89"><defs><style>.cls-1{fill:#fff;}</style></defs><title>jabatan</title><g id="Layer_2" data-name="Layer 2"><g id="Layer_1-2" data-name="Layer 1"><path class="cls-1" d="M17.25,2.51H13.57V1.33A1.19,1.19,0,0,0,12.47,0H9.3A1.19,1.19,0,0,0,8.19,1.33V2.51H4.9V15.78H17.25Zm-4.59-.22a.32.32,0,0,1-.09.22H9.27a.31.31,0,0,1-.09-.22V1.2A.32.32,0,0,1,9.5.88h2.85a.32.32,0,0,1,.32.32Z"/><path class="cls-1" d="M0,5.42l.2,8a2.3,2.3,0,0,0,2.42,2.49H3.79V2.57H2.42C.71,2.57,0,3.7,0,5.42Z"/><path class="cls-1" d="M22.09,13.41v-8c0-1.83-1-3-2.29-3H18.24V15.89H19.8A2.23,2.23,0,0,0,22.09,13.41Z"/></g></g></svg>