<svg xmlns="http://www.w3.org/2000/svg" viewBox="0 0 19.63 24.93"><defs><style>.cls-1{fill:#fff;}</style></defs><title>karyawan</title><g id="Layer_2" data-name="Layer 2"><g id="Layer_1-2" data-name="Layer 1"><path class="cls-1" d="M14.36,5.22v-.8A4.37,4.37,0,0,0,9.78,0H9.61A4.23,4.23,0,0,0,5,4.42v.8a.67.67,0,0,0-.67.67V7.54A.67.67,0,0,0,5,8.21h0c.27,2.4,3,5.09,4.55,5.09h.17c1.55,0,4.28-2.7,4.55-5.09h0A.67.67,0,0,0,15,7.54V5.88A.67.67,0,0,0,14.36,5.22Z"/><path class="cls-1" d="M5.13,14.53A5.13,5.13,0,0,0,0,19.67v5.26H9.81L5.29,14.53Z"/><path class="cls-1" d="M14.49,14.53h-.44L9.81,24.93h9.81V19.67A5.13,5.13,0,0,0,14.49,14.53Z"/><polygon class="cls-1" points="9.7 15.11 7.07 13.61 7.07 16.53 9.7 15.11"/><polygon class="cls-1" points="9.7 15.11 12.32 13.61 12.32 16.53 9.7 15.11"/><circle class="cls-1" cx="9.7" cy="15.11" r="0.83"/></g></g></svg>