<svg xmlns="http://www.w3.org/2000/svg" viewBox="0 0 20.31 17.06"><defs><style>.cls-1{fill:#ff6d22;}</style></defs><title>twitter-icon-footer</title><g id="Layer_2" data-name="Layer 2"><g id="Layer_1-2" data-name="Layer 1"><path class="cls-1" d="M18.49,2.63a3.73,3.73,0,0,0,1.32-.32,2.5,2.5,0,0,1,.5-.13,8.21,8.21,0,0,1-2,2.11,4.17,4.17,0,0,0,0,1.48.64.64,0,0,1-.06.44.5.5,0,0,0,0,.43,12.56,12.56,0,0,1-3.06,6.47A11.61,11.61,0,0,1,7.7,17H7.43a.64.64,0,0,0-.52,0,4,4,0,0,1-1.58,0,.47.47,0,0,0-.43,0A10.66,10.66,0,0,1,.26,15.48c0-.16-.27-.15-.26-.34H1.14a.67.67,0,0,0,.52,0,9.25,9.25,0,0,0,4.25-1.79A4.39,4.39,0,0,1,2,10.58c.08-.19.24-.12.38-.12a8.23,8.23,0,0,0,1.09,0c.21-.14.24-.2-.06-.3a4.19,4.19,0,0,1-3-3.4c.1-.19-.09-.45.16-.6a2.71,2.71,0,0,0,1.6.33,4.45,4.45,0,0,1-1.76-3,3.87,3.87,0,0,0,0-1A4.57,4.57,0,0,1,.79,1.19c.14-.38.34-.22.49,0A8,8,0,0,0,2.09,2,13,13,0,0,0,6.68,4.73c.7.25,1.44.35,2.15.54.23.06.51,0,.78.11s.25-.13.21-.31.09-.29,0-.42a.92.92,0,0,1,0-.63.47.47,0,0,0,0-.43A4,4,0,0,1,12.33.38,4,4,0,0,1,16.72,1c.15.13.37.18.45.39s.07,0,.14,0a18.45,18.45,0,0,0,2.3-.89.23.23,0,0,1,.15.16A4.31,4.31,0,0,1,18.3,2.54C18.27,2.76,18.41,2.65,18.49,2.63Z"/></g></g></svg>